<svg width="25" height="25" viewBox="0 0 25 25" fill="none" xmlns="http://www.w3.org/2000/svg">
<circle cx="12.5" cy="12.5" r="12.5" fill="#FBEFB4"/>
<mask id="mask0" mask-type="alpha" maskUnits="userSpaceOnUse" x="0" y="0" width="25" height="25">
<circle cx="12.5" cy="12.5" r="12.5" fill="#FBEFB4"/>
</mask>
<g mask="url(#mask0)">
<path d="M28.4613 10.775L25.6596 13.4087L25.0171 14.473L26.1111 15.567L32.7311 10.1898L28.3104 10.124L28.4613 10.775Z" fill="#F5AE42"/>
<path d="M23.9421 13.398L23.965 13.4209L24.7793 14.2352L25.6594 13.4085L27.6401 10.1143L28.3102 10.1238L27.3127 5.81582L23.5221 13.2854L23.9421 13.398Z" fill="#FCD15A"/>
<path d="M22.1633 11.6339L22.0096 12.8796L23.5226 13.2853L27.3132 5.81575L23.2477 7.55404L23.6505 8.0886L22.1633 11.6339Z" fill="#F5AE42"/>
<path d="M21.6765 12.7907L22.1633 11.6337L22.633 7.81731L23.2477 7.55385L20.5844 4.02573L20.1635 12.385L21.6765 12.7907Z" fill="#FCD15A"/>
<path d="M18.247 11.4354L18.5916 12.5646L19.7123 12.2649L19.7314 12.2706L20.1628 12.3852L20.5838 4.02593L17.5798 7.26863L18.164 7.59128L18.247 11.4354Z" fill="#F5AE42"/>
<path d="M22.1626 11.6342L23.6499 8.08889L23.247 7.55433L22.6323 7.81779L22.1626 11.6342Z" fill="#FCD15A"/>
<path d="M18.2476 11.4357L18.1645 7.59164L17.5803 7.269L17.125 7.7587L18.2476 11.4357Z" fill="#FCD15A"/>
<path d="M18.2735 12.6508L18.2477 11.4356L17.1251 7.75857L17.5804 7.26887L13.7106 5.12871L16.771 13.0536L18.2735 12.6508Z" fill="#FCD15A"/>
<path d="M14.6351 12.8981L15.2613 13.6198L15.4818 13.3993L15.4866 13.3983L16.7705 13.0537L13.7101 5.1288L12.2897 9.29649L12.9741 9.35663L14.6351 12.8981Z" fill="#F5AE42"/>
<path d="M14.6351 12.8979L12.9742 9.3564L12.2897 9.29627L12.0683 9.94538L14.6351 12.8979Z" fill="#FCD15A"/>
<path d="M15.0646 13.8161L14.635 12.8978L12.0682 9.94526L12.2896 9.29615L7.9043 8.90668L13.9391 14.9415L15.0646 13.8161Z" fill="#FCD15A"/>
<path d="M8.92729 13.0946L11.8321 15.608L12.8134 16.0681L13.9398 14.9417L7.90494 8.90683L8.29441 13.3113L8.92729 13.0946Z" fill="#F5AE42"/>
<path d="M12.3851 16.4958L12.3956 16.4853L12.6037 16.2772L11.8315 15.6081L8.353 13.9777L8.29382 13.3114L4.11182 14.7461L12.0386 17.7874L12.3851 16.4958Z" fill="#FCD15A"/>
<path d="M11.8315 15.6077L8.92668 13.0943L8.29379 13.311L8.35297 13.9773L11.8315 15.6077Z" fill="#FCD15A"/>
<path d="M10.4276 19.2686L11.6351 19.2924L12.0389 17.7871L4.11207 14.7458L6.26083 18.6109L6.74957 18.1546L10.4276 19.2686Z" fill="#F5AE42"/>
<path d="M11.2543 20.7347L11.2524 20.7252L11.5502 19.6102L10.4277 19.2685L6.58548 19.195L6.26092 18.6108L3.0249 21.6234L11.3746 21.1834L11.2543 20.7347Z" fill="#FCD15A"/>
<path d="M10.4269 19.2689L6.74894 18.1549L6.26019 18.6112L6.58475 19.1954L10.4269 19.2689Z" fill="#FCD15A"/>
<path d="M10.6357 23.1841L11.7812 22.7011L11.3746 21.1834L3.0249 21.6234L6.5597 24.2781L6.8203 23.6624L10.6357 23.1841Z" fill="#F5AE42"/>
<path d="M11.87 23.0306L10.6357 23.1843L7.09424 24.681L6.55967 24.2782L4.82903 28.3476L12.2766 24.5484L11.87 23.0306Z" fill="#FCD15A"/>
<path d="M12.2767 24.5485L4.8291 28.3477L9.13902 29.3357L9.12756 28.6656L12.4161 26.6791L13.2332 25.8047L12.4056 24.9771L12.3846 24.9561L12.2767 24.5485Z" fill="#F5AE42"/>
<path d="M10.6354 23.1842L6.81999 23.6624L6.55939 24.2781L7.09395 24.681L10.6354 23.1842Z" fill="#FCD15A"/>
<path d="M25.0171 14.4731L24.7794 14.2354L23.9652 13.4212L19.7316 20.7342L26.2065 16.9856L26.868 16.324L26.1111 15.5671L25.0171 14.4731Z" fill="#633A2E"/>
<path d="M23.5223 13.2856L22.0093 12.8799L21.6761 12.7911L20.1631 12.3854L19.7316 12.2709L19.7316 20.7341L23.9652 13.4211L23.9423 13.3982L23.5223 13.2856Z" fill="#6D4135"/>
<path d="M22.4582 20.7339L26.2068 16.9853L19.7319 20.7339L22.4582 20.7339Z" fill="#633A2E"/>
<path d="M19.7128 12.2651L18.5921 12.5648L18.2733 12.6507L16.7708 13.0535L15.4869 13.3981L15.4897 13.4067L19.7319 20.7341L19.7319 12.2708L19.7128 12.2651Z" fill="#6D4135"/>
<path d="M21.4578 21.7343L22.4582 20.7339L19.7319 20.7339L21.4578 21.7343Z" fill="#6D4135"/>
<path d="M15.4869 13.3982L15.4821 13.3992L15.2616 13.6197L15.065 13.8164L13.9395 14.9418L12.8131 16.0682L12.6041 16.2773L12.396 16.4854L12.4036 16.493L19.7319 20.7342L15.4898 13.4068L15.4869 13.3982Z" fill="#633A2E"/>
<path d="M20.7313 22.4607L21.4577 21.7343L19.7319 20.7339L20.7313 22.4607Z" fill="#6D4135"/>
<path d="M12.3959 16.4854L12.3854 16.4959L12.0389 17.7874L11.6351 19.2928L11.5502 19.6107L11.2523 20.7256L11.2542 20.7351L19.7318 20.7342L12.4036 16.493L12.3959 16.4854Z" fill="#633A2E"/>
<path d="M19.7318 23.4605L20.7312 22.461L19.7318 20.7342V23.4605Z" fill="#633A2E"/>
<path d="M15.9833 27.2088L19.7319 23.4602L19.7319 20.7339L15.9833 27.2088Z" fill="#633A2E"/>
<path d="M12.4053 24.9769L13.2329 25.8045L13.4706 26.0422L14.5664 27.1381L15.3101 27.8817L15.983 27.2087L19.7317 20.7338L12.4053 24.9769Z" fill="#6D4135"/>
<path d="M11.3742 21.1834L11.7809 22.7012L11.8697 23.0305L12.2763 24.5483L12.3842 24.9559L12.4052 24.9769L19.7316 20.7338L11.254 20.7348L11.3742 21.1834Z" fill="#6D4135"/>
</g>
</svg>
