<svg width="209" height="92" viewBox="0 0 209 92" fill="none" xmlns="http://www.w3.org/2000/svg">
<path d="M201.495 23.9657C198.351 21.3475 194.781 20.138 191.172 20.467C189.318 20.636 187.508 21.1915 185.766 22.1232C187.476 16.5263 185.692 10.8035 180.816 6.74214C178.026 4.41764 174.215 3.28647 170.365 3.63756C166.33 4.00542 162.719 5.87709 160.193 8.90887C155.362 14.7097 155.414 22.5417 160.06 27.8873C160.043 27.8889 160.024 27.8906 160.005 27.8923C157.672 28.1051 155.792 29.2574 153.719 31.7438C152.303 33.4435 151.528 36.0632 151.645 38.7508C151.77 41.6088 152.884 44.1159 154.701 45.6289C156.894 47.4568 159.395 48.3001 161.932 48.0687C162.885 47.9819 163.823 47.7479 164.734 47.3712C163.888 50.955 165.002 54.2091 167.972 56.6825C169.716 58.136 172.328 58.8223 175.138 58.5661C178.074 58.2984 180.707 57.0814 182.183 55.3101C184.373 52.6816 184.858 50.4441 184.556 48.1379C187.222 49.7034 190.299 50.4005 193.41 50.1176L193.411 50.1175C197.349 49.7585 200.921 47.8742 203.471 44.8128C205.956 41.829 207.08 37.94 206.635 33.8594C206.207 29.9369 204.333 26.3301 201.495 23.9657ZM202.237 43.7847C199.961 46.5171 196.775 48.1983 193.265 48.5183L193.264 48.5184C189.876 48.8265 186.531 47.8303 183.848 45.7123C183.574 45.4961 183.192 45.4834 182.903 45.6758C182.614 45.87 182.482 46.2289 182.578 46.563C183.352 49.2826 183.336 51.4177 180.949 54.2829C179.758 55.7128 177.476 56.7404 174.992 56.9669C172.604 57.1846 170.42 56.6312 169 55.449C166.03 52.9755 165.299 49.8438 166.819 46.1429L169.306 43.1574C169.59 42.8161 169.544 42.3105 169.203 42.0262C168.861 41.7419 168.356 41.788 168.071 42.1293L165.586 45.1131C162.408 47.1437 158.741 46.9045 155.729 44.3954C152.549 41.7466 152.597 35.6028 154.954 32.7726C156.752 30.6154 158.257 29.6651 160.151 29.4923C160.679 29.4442 161.266 29.452 161.943 29.5169C162.293 29.5503 162.618 29.3562 162.756 29.0362C162.895 28.7162 162.811 28.3439 162.55 28.1137C157.197 23.41 156.715 15.5955 161.428 9.93695C163.678 7.23514 166.903 5.5665 170.511 5.23758C173.94 4.92487 177.323 5.92327 179.788 7.97651C184.731 12.0939 186.117 18.1095 183.423 23.6952L171.156 38.4246C170.872 38.7659 170.918 39.2715 171.259 39.5558C171.43 39.6976 171.642 39.7573 171.846 39.7386C172.051 39.7199 172.249 39.6229 172.391 39.4526L184.66 24.7215C186.777 23.1716 189.016 22.2769 191.318 22.0671C194.494 21.7775 197.658 22.8603 200.466 25.2001C202.989 27.3014 204.655 30.5205 205.038 34.0332C205.435 37.6763 204.441 41.1388 202.237 43.7847Z" fill="black" stroke="black" stroke-width="0.6"/>
<path d="M191.433 28.5018C189.616 28.6675 187.973 29.5312 186.806 30.9323C185.638 32.3335 185.086 34.1052 185.252 35.9221C185.418 37.7389 186.281 39.3816 187.683 40.5493C189.084 41.717 190.856 42.2677 192.673 42.1021C194.489 41.9365 196.132 41.0736 197.299 39.6724C199.708 36.7795 199.315 32.465 196.423 30.0555C195.021 28.8878 193.249 28.3363 191.433 28.5018ZM196.065 38.6435C195.172 39.7155 193.916 40.3746 192.527 40.5012C191.138 40.6279 189.782 40.2062 188.711 39.3141C187.638 38.4205 186.979 37.165 186.852 35.7754C186.725 34.3873 187.148 33.0315 188.04 31.9596C188.932 30.8877 190.189 30.2278 191.579 30.1011C192.967 29.9745 194.323 30.397 195.394 31.289C197.607 33.1322 197.907 36.4307 196.065 38.6435Z" fill="black" stroke="black" stroke-width="0.6"/>
<path d="M174.066 44.4836C172.891 44.5907 171.827 45.1483 171.072 46.0553C170.316 46.9623 169.96 48.1088 170.067 49.2848C170.174 50.4601 170.732 51.5239 171.639 52.2786C172.546 53.034 173.693 53.3909 174.868 53.2837C176.044 53.1765 177.107 52.6181 177.863 51.7111C178.618 50.8049 178.975 49.6576 178.868 48.4824C178.761 47.3063 178.202 46.2433 177.295 45.4878C176.388 44.7324 175.241 44.3764 174.066 44.4836ZM176.627 50.6831C175.667 51.8371 173.822 52.0061 172.667 51.0442C172.09 50.5636 171.735 49.887 171.667 49.1389C171.599 48.3901 171.826 47.6612 172.306 47.0833C172.787 46.5071 173.464 46.1518 174.212 46.0836C174.96 46.0153 175.689 46.2425 176.267 46.7222C176.844 47.2028 177.199 47.8794 177.268 48.6283C177.335 49.3763 177.108 50.1061 176.627 50.6831Z" fill="black" stroke="black" stroke-width="0.6"/>
<path d="M160.486 33.1732C159.31 33.2805 158.247 33.8388 157.491 34.7458C155.932 36.6175 156.186 39.4087 158.059 40.9683C158.966 41.7237 160.112 42.0798 161.288 41.9726C162.464 41.8654 163.527 41.3078 164.282 40.4009C165.038 39.4939 165.394 38.3473 165.287 37.1713C165.18 35.9961 164.622 34.9322 163.715 34.1776C162.808 33.4229 161.661 33.0661 160.486 33.1732ZM163.047 39.3729C162.086 40.5277 160.241 40.6927 159.087 39.7339C157.896 38.7414 157.734 36.9646 158.726 35.7739C159.206 35.1969 159.883 34.8415 160.632 34.7733C161.38 34.7051 162.109 34.9322 162.687 35.4127C163.264 35.8932 163.619 36.57 163.687 37.318C163.755 38.066 163.528 38.7958 163.047 39.3729Z" fill="black" stroke="black" stroke-width="0.6"/>
<path d="M176.311 22.1915C177.478 20.7904 178.029 19.0179 177.864 17.2019C177.698 15.3851 176.835 13.7423 175.434 12.5746C174.033 11.4069 172.261 10.8553 170.443 11.021C168.627 11.1867 166.985 12.0503 165.817 13.4515C163.408 16.3445 163.801 20.6581 166.694 23.0684C168.095 24.2354 169.868 24.7868 171.684 24.6213C173.5 24.4564 175.144 23.5934 176.311 22.1915ZM167.052 14.4803C167.945 13.4083 169.201 12.7484 170.59 12.6218C171.979 12.4952 173.335 12.9176 174.407 13.8097C175.479 14.7017 176.138 15.9589 176.265 17.3485C176.391 18.7365 175.969 20.0923 175.077 21.1642C174.185 22.2361 172.928 22.8952 171.539 23.022C170.151 23.1485 168.795 22.7268 167.723 21.8348C165.511 19.9916 165.21 16.6923 167.052 14.4803Z" fill="black" stroke="black" stroke-width="0.6"/>
<path d="M188.122 18.055C187.837 18.3963 187.883 18.9019 188.225 19.1862C188.234 19.1942 188.245 19.1956 188.255 19.202C188.264 19.21 188.267 19.221 188.276 19.2291C188.447 19.3709 188.658 19.4306 188.863 19.4119C189.068 19.3932 189.266 19.2962 189.408 19.1259C189.537 18.9705 189.655 18.809 189.768 18.6454C191.66 16.8409 194.652 16.7004 196.71 18.4117C196.88 18.5535 197.092 18.6132 197.297 18.5946C197.501 18.5759 197.699 18.4788 197.841 18.3086C198.125 17.9672 198.079 17.4616 197.738 17.1774C195.755 15.5262 193.106 15.1918 190.858 16.076C191.322 13.7056 190.514 11.1601 188.531 9.50898C188.526 9.50534 188.462 9.45234 188.457 9.44871C188.113 9.17359 187.642 9.25205 187.364 9.59439C187.085 9.936 187.164 10.462 187.503 10.7433C189.558 12.4556 189.962 15.4261 188.528 17.6129C188.389 17.7555 188.252 17.8995 188.122 18.055Z" fill="black" stroke="black" stroke-width="0.6"/>
<path d="M157.5 56.5C150.833 71 129 97.7 95 88.5C52.5 77 4.5 27 -6.5 50.5" stroke="black" stroke-linecap="round" stroke-linejoin="round" stroke-dasharray="4 9"/>
</svg>
