<svg width="40" height="40" viewBox="0 0 40 40" fill="none" xmlns="http://www.w3.org/2000/svg">
<circle cx="20" cy="20" r="20" fill="white" fill-opacity="0.6"/>
<path d="M21.074 26.0559C21.1224 26.1527 21.1466 26.2556 21.1466 26.3645C21.1466 26.5461 21.074 26.6974 20.9288 26.8184C20.7956 26.9395 20.6322 27 20.4385 27C20.1359 27 19.9241 26.8547 19.8031 26.5642L18.514 23.6229H11.669L10.3617 26.5642C10.2407 26.8547 10.0289 27 9.72626 27C9.53259 27 9.36313 26.9395 9.21788 26.8184C9.07263 26.6853 9 26.5279 9 26.3464C9 26.2495 9.02421 26.1527 9.07263 26.0559L14.2654 14.5084C14.338 14.3389 14.4469 14.2118 14.5922 14.1271C14.7374 14.0424 14.8948 14 15.0642 14C15.2458 14 15.4092 14.0484 15.5545 14.1453C15.6997 14.23 15.8087 14.351 15.8813 14.5084L21.074 26.0559ZM12.2137 22.3883H17.9693L15.0824 15.8701L12.2137 22.3883Z" fill="black"/>
<path d="M31.3589 26.3464C31.3925 26.4134 31.4092 26.4846 31.4092 26.5601C31.4092 26.6858 31.3589 26.7905 31.2584 26.8743C31.1662 26.9581 31.0531 27 30.919 27C30.7095 27 30.5628 26.8994 30.479 26.6983L29.5866 24.662H24.8478L23.9427 26.6983C23.8589 26.8994 23.7123 27 23.5028 27C23.3687 27 23.2514 26.9581 23.1508 26.8743C23.0503 26.7821 23 26.6732 23 26.5475C23 26.4804 23.0168 26.4134 23.0503 26.3464L26.6453 18.352C26.6955 18.2346 26.7709 18.1466 26.8715 18.088C26.9721 18.0293 27.081 18 27.1983 18C27.324 18 27.4372 18.0335 27.5377 18.1006C27.6383 18.1592 27.7137 18.243 27.764 18.352L31.3589 26.3464ZM25.2249 23.8073H29.2095L27.2109 19.2947L25.2249 23.8073Z" fill="black" stroke="black" stroke-width="0.3"/>
</svg>
