<svg width="22" height="22" viewBox="0 0 22 22" fill="none" xmlns="http://www.w3.org/2000/svg">
<circle cx="11" cy="11" r="11" fill="#696969" fill-opacity="0.2"/>
<path fill-rule="evenodd" clip-rule="evenodd" d="M7.78764 6.78991C7.50261 6.52387 7.05588 6.53928 6.78984 6.82431C6.52381 7.10935 6.53922 7.55608 6.82425 7.82211L10.2292 11L6.82425 14.178C6.53922 14.444 6.52381 14.8907 6.78985 15.1758C7.05588 15.4608 7.50261 15.4762 7.78764 15.2102L11.2638 11.9657L14.74 15.2102C15.0251 15.4762 15.4718 15.4608 15.7378 15.1758C16.0038 14.8907 15.9884 14.444 15.7034 14.178L12.2985 11L15.7034 7.82211C15.9884 7.55608 16.0038 7.10935 15.7378 6.82431C15.4718 6.53928 15.0251 6.52387 14.74 6.78991L14.9697 7.03595L14.74 6.78991L11.2638 10.0343L7.78764 6.78991Z" fill="white"/>
</svg>
