<svg width="21" height="20" viewBox="0 0 21 20" fill="none" xmlns="http://www.w3.org/2000/svg">
<circle cx="10.8855" cy="10" r="10" fill="#BABABA"/>
<path fill-rule="evenodd" clip-rule="evenodd" d="M7.96486 6.17261C7.70574 5.93076 7.29962 5.94476 7.05777 6.20389C6.81592 6.46301 6.82993 6.86913 7.08905 7.11098L10.1844 10L7.08905 12.889C6.82993 13.1309 6.81592 13.537 7.05777 13.7961C7.29962 14.0552 7.70574 14.0692 7.96486 13.8274L11.125 10.8779L14.2852 13.8274C14.5443 14.0692 14.9504 14.0552 15.1923 13.7961C15.4341 13.537 15.4201 13.1309 15.161 12.889L12.0656 10L15.161 7.11098C15.4201 6.86913 15.4341 6.46301 15.1923 6.20389C14.9504 5.94476 14.5443 5.93076 14.2852 6.17261L14.494 6.39629L14.2852 6.17261L11.125 9.1221L7.96486 6.17261Z" fill="white"/>
</svg>
