<svg width="142" height="65" viewBox="0 0 142 65" fill="none" xmlns="http://www.w3.org/2000/svg">
<path d="M88.0324 37.4759C85.4906 37.5674 83.6072 36.9548 82.4369 35.6931C82.1378 35.3715 81.8826 35.0118 81.678 34.6233C83.7534 33.709 85.5638 32.1639 85.7649 29.6221C86.0209 26.3764 84.4757 25.0506 83.0769 24.9592C81.3854 24.8129 79.3465 26.3581 79.0905 29.1284C78.9289 30.5979 79.0123 32.084 79.3374 33.5262C78.2181 33.8317 77.0737 34.0367 75.9179 34.1388C75.535 30.7335 74.508 27.4322 72.8916 24.4106C69.2436 17.8551 62.9075 13.9054 54.5508 13.0368C33.3117 10.8333 15.5652 24.7398 15.3915 24.9226C13.6104 24.2603 11.7042 24.0028 9.81121 24.1688C7.91821 24.3349 6.08594 24.9203 4.44738 25.8827C2.01535 27.2907 0.707903 29.1833 1.05534 30.6553C1.09756 30.8395 1.19584 31.0061 1.33665 31.1322C1.47746 31.2583 1.65388 31.3376 1.84163 31.3593C2.96476 31.5548 4.02413 32.0185 4.92981 32.7109C5.83549 33.4033 6.56073 34.3039 7.04398 35.3365C5.28853 37.4485 5.11481 41.7366 5.77311 45.348C6.39483 48.7584 4.27366 50.0841 4.19137 50.1298C4.00916 50.2349 3.86875 50.3995 3.7938 50.5961C3.71885 50.7926 3.71396 51.009 3.77994 51.2087C3.91708 51.6292 5.23367 55.3961 7.52855 56.5482C7.63437 56.6002 7.74924 56.6312 7.86684 56.6396C10.1907 56.8309 12.529 56.5363 14.7327 55.7744C16.9365 55.0125 18.9575 53.8001 20.667 52.2144C24.3242 56.4384 19.8167 62.2717 19.6156 62.5002C19.5066 62.6346 19.4379 62.7971 19.4176 62.969C19.3973 63.1408 19.4262 63.3148 19.5009 63.4709C19.5755 63.627 19.693 63.7586 19.8395 63.8506C19.9861 63.9426 20.1557 63.9911 20.3287 63.9905H27.1676C27.377 63.9914 27.5803 63.9204 27.7437 63.7894C30.5505 61.5128 33.0557 55.963 34.1437 52.9275C34.8294 53.0738 35.5152 53.2018 36.1918 53.3024C35.762 55.9904 32.754 60.7814 31.5197 62.5459C31.4246 62.683 31.3688 62.8434 31.3584 63.0099C31.348 63.1764 31.3833 63.3425 31.4605 63.4904C31.5377 63.6382 31.6539 63.7621 31.7965 63.8487C31.9391 63.9352 32.1026 63.9811 32.2694 63.9814H38.6695C38.8917 63.9811 39.1063 63.8998 39.2729 63.7528C43.0124 60.4796 44.7587 55.4419 45.2524 53.6956C49.3302 53.3938 52.6857 52.4795 54.3954 51.3732C54.5733 51.5615 54.7626 51.7386 54.9623 51.9035C54.7337 55.2773 50.6376 60.6351 49.0102 62.4911C48.8942 62.6231 48.8187 62.7857 48.7928 62.9595C48.7668 63.1333 48.7915 63.3108 48.8639 63.471C48.9362 63.6311 49.0532 63.767 49.2007 63.8624C49.3483 63.9578 49.5202 64.0086 49.6959 64.0088H55.52C55.6912 64.0094 55.8591 63.9619 56.0046 63.8717C59.744 61.5402 61.4903 57.1516 62.0389 55.259C62.5464 55.3723 63.0641 55.4336 63.5841 55.4419C63.4313 57.9504 62.7785 60.4031 61.664 62.6557C61.5939 62.7948 61.5605 62.9496 61.567 63.1054C61.5736 63.2611 61.6198 63.4126 61.7013 63.5454C61.7828 63.6782 61.897 63.788 62.0329 63.8643C62.1688 63.9406 62.3219 63.9809 62.4778 63.9814H68.9784C69.1498 63.9817 69.3178 63.9339 69.4633 63.8434C69.6088 63.7529 69.7259 63.6233 69.8013 63.4694C74.5739 53.7778 76.6859 44.1686 76.0734 35.9765C77.3867 35.852 78.6849 35.6009 79.95 35.2268C80.2466 35.8454 80.635 36.4156 81.102 36.9182C82.574 38.4908 84.7592 39.2771 87.6209 39.2771H88.0872C88.3297 39.2771 88.5623 39.1808 88.7337 39.0093C88.9052 38.8378 89.0015 38.6053 89.0015 38.3628C88.9981 38.2403 88.97 38.1197 88.9191 38.0083C88.8681 37.8969 88.7952 37.7968 88.7048 37.7141C88.6144 37.6313 88.5083 37.5676 88.3928 37.5267C88.2773 37.4858 88.1547 37.4685 88.0324 37.4759ZM38.2672 62.1619H33.9609C35.3049 60.0773 37.5541 56.2647 37.9838 53.5493C39.729 53.744 41.4853 53.8234 43.241 53.787C42.2777 56.9367 40.572 59.8089 38.2672 62.1619ZM55.2 62.1619H51.5428C53.1611 60.0956 55.8491 56.283 56.544 53.019L57.2297 53.403C58.1828 53.9127 59.1731 54.3498 60.192 54.7104C59.7075 56.3836 58.2446 60.1413 55.2 62.1619ZM68.4024 62.1619H63.8949C64.6172 60.3882 65.7235 57.1333 65.3304 54.2624C65.3141 54.1251 65.2669 53.9933 65.1923 53.8769C65.1177 53.7605 65.0176 53.6625 64.8997 53.5903C64.7817 53.5182 64.649 53.4737 64.5114 53.4602C64.3738 53.4468 64.2349 53.4647 64.1052 53.5127C63.4012 53.7687 61.2618 53.3664 58.6834 52.0955C57.9115 51.7192 57.1741 51.2755 56.48 50.7698C55.9954 50.1572 52.8959 46.0429 53.6548 42.084C53.6776 41.9639 53.6766 41.8405 53.6517 41.7209C53.6268 41.6012 53.5786 41.4876 53.5099 41.3866C53.4411 41.2856 53.3531 41.1991 53.2509 41.1321C53.1487 41.065 53.0343 41.0188 52.9142 40.996C52.7942 40.9732 52.6708 40.9742 52.5511 40.9991C52.4315 41.024 52.3179 41.0722 52.2168 41.1409C52.1158 41.2097 52.0293 41.2977 51.9623 41.3999C51.8953 41.5021 51.849 41.6165 51.8262 41.7366C51.2502 44.7537 52.4205 47.6978 53.5268 49.6635C51.6982 51.1721 43.3141 53.0555 34.3997 51.0807V48.2646C34.3997 48.0221 34.3034 47.7896 34.1319 47.6181C33.9605 47.4467 33.7279 47.3503 33.4854 47.3503C33.2429 47.3503 33.0104 47.4467 32.8389 47.6181C32.6675 47.7896 32.5711 48.0221 32.5711 48.2646V51.6841C31.5746 54.8659 29.0968 60.0682 26.8202 62.1437H22.1299C23.9036 59.1813 25.2842 54.4636 21.9836 50.8612C23.2767 49.3948 24.2457 47.6719 24.827 45.8052C24.8547 45.6881 24.8589 45.5668 24.8397 45.448C24.8204 45.3293 24.7779 45.2155 24.7146 45.1132C24.6514 45.0109 24.5686 44.9221 24.471 44.8518C24.3734 44.7815 24.263 44.7311 24.1459 44.7035C24.0288 44.6758 23.9075 44.6715 23.7887 44.6908C23.67 44.7101 23.5563 44.7526 23.454 44.8159C23.3517 44.8791 23.2628 44.9619 23.1925 45.0595C23.1222 45.1571 23.0718 45.2675 23.0442 45.3846C22.415 47.2164 21.3984 48.891 20.0636 50.2944C18.5518 51.8755 16.7108 53.1046 14.6709 53.8946C12.631 54.6847 10.4423 55.0163 8.25999 54.8659C7.17198 54.2076 6.25768 52.3973 5.79139 51.2635C6.62195 50.4838 7.22931 49.4964 7.55077 48.4035C7.87222 47.3105 7.89612 46.1516 7.61998 45.0463C6.91598 41.1971 7.40055 37.4302 8.74457 36.2873C8.87168 36.176 8.96546 36.0317 9.0155 35.8703C9.06553 35.7089 9.06986 35.5368 9.028 35.3731C8.54119 34.012 7.73231 32.7889 6.6704 31.8082C5.60848 30.8275 4.32505 30.1182 2.92964 29.741C3.50384 28.7667 4.34446 27.9769 5.35253 27.4644C7.31658 26.2761 9.61266 25.756 11.8971 25.9818C14.1815 26.2076 16.3313 27.1672 18.0247 28.717C18.2041 28.8807 18.4412 28.9663 18.6839 28.9552C18.9265 28.9441 19.1547 28.837 19.3184 28.6575C19.4821 28.4781 19.5678 28.241 19.5566 27.9984C19.5455 27.7558 19.4384 27.5275 19.259 27.3638C18.6196 26.7792 17.9244 26.2586 17.1835 25.8095C20.5481 23.3775 36.1552 12.9636 54.3497 14.838C62.0755 15.6425 67.927 19.2632 71.2733 25.3067C76.2745 34.3125 75.1591 48.0818 68.4116 62.1619H68.4024ZM81.0563 32.9045C80.8234 31.7183 80.771 30.5039 80.9008 29.3021C81.0563 27.6381 82.1169 26.7878 82.8392 26.7878H82.9123C83.662 26.8518 84.0643 27.9124 83.9363 29.485C83.8083 31.0576 82.574 32.2096 81.0654 32.9136L81.0563 32.9045Z" fill="#999999" stroke="#999999" stroke-width="0.3"/>
<path d="M12.0726 43.3457C12.8502 43.3457 13.4806 42.7153 13.4806 41.9377C13.4806 41.1601 12.8502 40.5297 12.0726 40.5297C11.2949 40.5297 10.6646 41.1601 10.6646 41.9377C10.6646 42.7153 11.2949 43.3457 12.0726 43.3457Z" fill="#999999" stroke="#999999" stroke-width="0.3"/>
<path d="M7.25428 28.0312C7.07176 28.133 6.9296 28.2942 6.85147 28.488C6.77334 28.6818 6.76395 28.8965 6.82488 29.0964C6.88581 29.2963 7.01337 29.4693 7.18633 29.5866C7.35928 29.7039 7.56719 29.7583 7.77543 29.741C7.82115 29.741 12.6578 28.333 14.8704 30.5364C15.0453 30.6862 15.2703 30.7645 15.5004 30.7556C15.7305 30.7467 15.9488 30.6513 16.1116 30.4885C16.2744 30.3256 16.3698 30.1074 16.3787 29.8773C16.3876 29.6472 16.3093 29.4222 16.1595 29.2473C13.1881 26.3124 7.50114 27.9581 7.25428 28.0312Z" fill="#999999" stroke="#999999" stroke-width="0.3"/>
<path d="M58.2628 18.4403C50.153 15.6974 40.2237 19.6655 39.8031 19.8301C39.6063 19.9379 39.456 20.1144 39.3809 20.3259C39.3057 20.5374 39.311 20.7692 39.3958 20.977C39.4805 21.1849 39.6387 21.3543 39.8403 21.453C40.0418 21.5517 40.2727 21.5729 40.4888 21.5124C40.5894 21.5124 50.2078 17.6723 57.6868 20.1592C65.0011 22.5912 66.6011 26.1753 66.6103 26.2027C66.7108 26.4127 66.8876 26.5764 67.1047 26.6605C67.3218 26.7446 67.5627 26.7427 67.7785 26.6553C67.9942 26.5678 68.1685 26.4013 68.2657 26.1898C68.3629 25.9783 68.3758 25.7377 68.3017 25.517C68.2377 25.3524 66.4549 21.1741 58.2628 18.4403Z" fill="#999999" stroke="#999999" stroke-width="0.3"/>
<path d="M113.351 35.9285L96.7785 37.4113" stroke="#999999" stroke-width="2.3" stroke-linecap="round" stroke-linejoin="round"/>
<path d="M109.291 20.7783L94.1959 27.7734" stroke="#999999" stroke-width="2.3" stroke-linecap="round" stroke-linejoin="round"/>
<path d="M94.8034 32.7718L114.714 24.4864" stroke="#999999" stroke-width="2.3" stroke-linecap="round" stroke-linejoin="round"/>
<path d="M131.549 32.5992C131.797 35.1145 131.228 37.6428 129.928 39.81C128.627 41.9771 126.663 43.6681 124.327 44.6326C121.991 45.5971 119.406 45.784 116.955 45.1656C114.504 44.5472 112.318 43.1563 110.719 41.1988" stroke="#999999" stroke-width="2.3" stroke-linecap="round" stroke-linejoin="round"/>
<path d="M116.645 18.3705C117.418 16.9091 118.519 15.6468 119.862 14.6826C121.205 13.7184 122.753 13.0785 124.385 12.8132C126.017 12.5479 127.688 12.6643 129.267 13.1535C130.847 13.6426 132.291 14.491 133.487 15.6322C134.684 16.7734 135.599 18.1763 136.162 19.7307C136.725 21.2852 136.92 22.949 136.732 24.5916C136.544 26.2341 135.977 27.8107 135.078 29.1976C134.178 30.5845 132.969 31.7441 131.545 32.5852" stroke="#999999" stroke-width="2.3" stroke-linecap="round" stroke-linejoin="round"/>
<path d="M105.327 16.121C105.062 13.4107 105.841 10.7013 107.504 8.54497C109.167 6.38868 111.59 4.9478 114.279 4.51596C116.968 4.08412 119.72 4.69383 121.975 6.22083C124.23 7.74784 125.818 10.0772 126.415 12.7342" stroke="#999999" stroke-width="2.3" stroke-linecap="round" stroke-linejoin="round"/>
</svg>
