<svg width="18" height="18" viewBox="0 0 18 18" fill="none" xmlns="http://www.w3.org/2000/svg">
<circle cx="9" cy="9" r="8.5" fill="#F5F0E7" stroke="#CB0F0F"/>
<path d="M9.06803 10.5041C8.80403 10.5041 8.66403 10.3521 8.64803 10.0481L8.36003 5.03205C8.34403 4.79205 8.39603 4.60005 8.51603 4.45605C8.64403 4.31205 8.82803 4.24005 9.06803 4.24005C9.30003 4.24005 9.47603 4.31205 9.59603 4.45605C9.71603 4.60005 9.76403 4.79205 9.74003 5.03205L9.45203 10.0481C9.43603 10.3521 9.30803 10.5041 9.06803 10.5041ZM9.06803 13.8321C8.82803 13.8321 8.63603 13.7601 8.49203 13.6161C8.35603 13.4721 8.28803 13.2881 8.28803 13.0641C8.28803 12.8401 8.35603 12.6601 8.49203 12.5241C8.63603 12.3801 8.82803 12.3081 9.06803 12.3081C9.30003 12.3081 9.48403 12.3801 9.62003 12.5241C9.75603 12.6601 9.82403 12.8401 9.82403 13.0641C9.82403 13.2881 9.75603 13.4721 9.62003 13.6161C9.48403 13.7601 9.30003 13.8321 9.06803 13.8321Z" fill="#CA0F0F"/>
</svg>
