<svg width="40" height="40" viewBox="0 0 40 40" fill="none" xmlns="http://www.w3.org/2000/svg">
<circle cx="20" cy="20" r="20" fill="white" fill-opacity="0.6"/>
<path fill-rule="evenodd" clip-rule="evenodd" d="M20.6056 12.1062C19.5334 11.8929 18.4221 12.0024 17.4121 12.4207C16.4021 12.8391 15.5389 13.5475 14.9315 14.4565C14.3242 15.3654 14 16.4341 14 17.5273C14 18.0093 14.3907 18.4 14.8727 18.4C15.3547 18.4 15.7455 18.0093 15.7455 17.5273C15.7455 16.7793 15.9673 16.0481 16.3828 15.4262C16.7984 14.8043 17.389 14.3196 18.08 14.0333C18.7711 13.7471 19.5315 13.6722 20.2651 13.8181C20.9987 13.964 21.6725 14.3242 22.2014 14.8531C22.7303 15.382 23.0905 16.0559 23.2364 16.7895C23.3823 17.5231 23.3075 18.2835 23.0212 18.9745C22.735 19.6656 22.2503 20.2562 21.6283 20.6717C21.0064 21.0873 20.2752 21.3091 19.5273 21.3091C19.0453 21.3091 18.6545 21.6998 18.6545 22.1818V23.3455C18.6545 23.8274 19.0453 24.2182 19.5273 24.2182C20.0093 24.2182 20.4 23.8274 20.4 23.3455V22.9852C21.1829 22.86 21.9332 22.5673 22.5981 22.123C23.507 21.5157 24.2155 20.6524 24.6338 19.6425C25.0522 18.6325 25.1616 17.5211 24.9483 16.449C24.7351 15.3768 24.2086 14.3919 23.4356 13.6189C22.6626 12.8459 21.6778 12.3195 20.6056 12.1062ZM20.6909 27.8364C20.6909 28.479 20.1699 29 19.5273 29C18.8846 29 18.3636 28.479 18.3636 27.8364C18.3636 27.1937 18.8846 26.6727 19.5273 26.6727C20.1699 26.6727 20.6909 27.1937 20.6909 27.8364Z" fill="black"/>
</svg>
