<svg width="25" height="25" viewBox="0 0 25 25" fill="none" xmlns="http://www.w3.org/2000/svg">
<circle cx="12.5" cy="12.5" r="12.5" fill="#D7EBF1"/>
<mask id="mask0" mask-type="alpha" maskUnits="userSpaceOnUse" x="0" y="0" width="25" height="25">
<circle cx="12.5" cy="12.5" r="12.5" fill="#D7EBF1"/>
</mask>
<g mask="url(#mask0)">
<path d="M31.5819 -0.661308L21.6477 21.4759L19.8533 8.74619L19.8529 8.74477L31.5819 -0.661308Z" fill="white"/>
<path d="M31.5813 -0.661355L19.8523 8.74472L19.8527 8.74614L18.8114 9.58096L18.328 7.4059L31.5813 -0.661355Z" fill="#82A7BA"/>
<path d="M31.5813 -0.661497L18.328 7.40576L18.3266 7.40612L3.6501 7.84007L31.5813 -0.661497Z" fill="white"/>
<path d="M19.853 8.74612L21.6474 21.4758L14.9506 15.5084L13.2777 14.0203L18.8117 9.58094L19.853 8.74612Z" fill="#DAE8EF"/>
<path d="M18.3288 7.40597L18.8123 9.58103L13.2782 14.0204L11.0631 19.6574L10.6781 12.0616L18.3274 7.40633L18.3288 7.40597Z" fill="#91ADBB"/>
<path d="M18.3269 7.40632L10.6776 12.0615L3.65039 7.84027L18.3269 7.40632Z" fill="#DAE8EF"/>
<path d="M14.9509 15.5088L11.0629 19.6577L13.2781 14.0207L14.9509 15.5088Z" fill="#5F7B86"/>
</g>
</svg>
