<svg width="25" height="25" viewBox="0 0 25 25" fill="none" xmlns="http://www.w3.org/2000/svg">
<circle cx="12.5" cy="12.5" r="12.5" fill="#FFE9AE"/>
<mask id="mask0" mask-type="alpha" maskUnits="userSpaceOnUse" x="0" y="0" width="25" height="25">
<circle cx="12.5" cy="12.5" r="12.5" fill="#FFE9AE"/>
</mask>
<g mask="url(#mask0)">
<path d="M19.8551 21.3689L19.1426 21.4986L20.6706 29.066L35.8801 27.635L27.6941 18.5892L19.8551 21.3689Z" fill="#9AB437"/>
<path d="M16.6125 6.44293L15.8807 6.81897L17.3446 13.6714L18.2944 18.124L19.2312 17.4654L27.6943 18.5891L22.4045 5.66603L17.697 3.25176L17.9337 5.76694L16.6125 6.44293Z" fill="#94AE39"/>
<path d="M19.855 21.3687L27.694 18.589L19.231 17.4653L19.855 21.3687Z" fill="#7E9D3B"/>
<path d="M18.4471 21.6236C18.5105 21.6113 19.8994 28.5037 20.0273 29.1264L20.6691 29.066L19.1425 21.497L18.4471 21.6236Z" fill="#698534"/>
<path d="M18.2941 18.1239L17.6601 18.5691L17.6603 18.5706L17.1077 18.9596L15.8354 19.8535L15.8338 19.8537L13.52 21.4819L13.4636 22.5232L17.7451 21.749L18.4469 21.6234L19.1425 21.4984L19.8549 21.3686L19.2309 17.4652L18.2941 18.1239Z" fill="#B0C236"/>
<path d="M17.7453 21.749L19.27 29.1976L20.0274 29.1263C19.8995 28.5036 18.5106 21.6112 18.4471 21.6235L17.7453 21.749Z" fill="#7E9640"/>
<path d="M17.9335 5.76708L17.6968 3.2519L16.4773 5.0076L17.9335 5.76708Z" fill="#78963A"/>
<path d="M5.98481 9.87659L9.22849 10.2281L10.2564 9.70039L15.8803 6.81876L16.6121 6.44272L16.4771 5.00724L17.6966 3.25155L16.5433 3.90235L5.98481 9.87659Z" fill="#B0C236"/>
<path d="M16.4766 5.00769L16.6116 6.44316L17.9328 5.76717L16.4766 5.00769Z" fill="#59732F"/>
<path d="M17.66 18.5692L18.294 18.124L17.3441 13.6713L16.6836 13.7335L17.66 18.5692Z" fill="#698534"/>
<path d="M5.98434 9.87688L16.5428 3.90263L15.6721 3.74006L4.78889 9.92979L5.95549 15.3134L5.98434 9.87688Z" fill="#698534"/>
<path d="M17.3448 13.6715L15.8809 6.81907L10.257 9.7007L15.6462 11.8095L15.5194 13.8432L16.0971 13.7888L16.6843 13.7336L17.3448 13.6715Z" fill="#749137"/>
<path d="M17.6609 18.5709L17.6607 18.5693L16.6843 13.7336L16.0972 13.7889L16.7803 17.2824L17.1083 18.9599L17.6609 18.5709Z" fill="#7E9640"/>
<path d="M17.1081 18.96L16.7801 17.2825L16.7646 17.2855L12.972 19.5889L12.506 21.1154L15.8342 19.8541L15.8358 19.8539L17.1081 18.96Z" fill="#84A43B"/>
<path d="M10.2995 15.184L8.91797 16.0553L9.08492 16.574L15.4254 15.3647L15.5186 13.8434L15.6455 11.8097L10.2995 15.184Z" fill="#B0C236"/>
<path d="M10.2564 9.70041L9.2285 10.2281L5.98483 9.87661L5.95597 15.3131L10.2997 15.1834L15.6456 11.8092L10.2564 9.70041Z" fill="#90AA37"/>
</g>
</svg>
