<svg width="40" height="40" viewBox="0 0 40 40" fill="none" xmlns="http://www.w3.org/2000/svg">
<circle cx="20" cy="20" r="20" fill="white" fill-opacity="0.6"/>
<path fill-rule="evenodd" clip-rule="evenodd" d="M23.4179 12.7916C21.8933 12.16 20.2157 11.9948 18.5972 12.3168C16.9787 12.6387 15.492 13.4333 14.3252 14.6002L12.2216 16.7038V14.439C12.2216 14.1449 11.9831 13.9064 11.689 13.9064C11.3949 13.9064 11.1564 14.1449 11.1564 14.439V17.9895C11.1564 18.2836 11.3949 18.522 11.689 18.522H15.2394C15.5336 18.522 15.772 18.2836 15.772 17.9895C15.772 17.6953 15.5336 17.4569 15.2394 17.4569H12.9748L15.0783 15.3534C16.0962 14.3355 17.3931 13.6423 18.805 13.3614C20.2169 13.0806 21.6803 13.2247 23.0103 13.7756C24.3402 14.3265 25.477 15.2594 26.2767 16.4563C27.0765 17.6532 27.5034 19.0605 27.5034 20.5C27.5034 21.9395 27.0765 23.3467 26.2767 24.5437C25.477 25.7406 24.3402 26.6735 23.0103 27.2244C21.6803 27.7753 20.2169 27.9194 18.805 27.6386C17.3931 27.3577 16.0962 26.6645 15.0783 25.6466C14.8703 25.4386 14.5331 25.4386 14.3252 25.6466C14.1172 25.8546 14.1172 26.1918 14.3252 26.3998C15.492 27.5666 16.9787 28.3613 18.5972 28.6832C20.2157 29.0052 21.8933 28.8399 23.4179 28.2084C24.9425 27.5769 26.2456 26.5075 27.1624 25.1354C28.0792 23.7633 28.5685 22.1502 28.5685 20.5C28.5685 18.8498 28.0792 17.2366 27.1624 15.8646C26.2456 14.4925 24.9425 13.4231 23.4179 12.7916ZM20.7575 16.2394C20.7575 15.9453 20.519 15.7069 20.2249 15.7069C19.9308 15.7069 19.6923 15.9453 19.6923 16.2394V20.4901C19.692 20.5108 19.6928 20.5316 19.6948 20.5521C19.7025 20.6307 19.7272 20.7043 19.7652 20.7691C19.801 20.8304 19.8495 20.8851 19.9094 20.9291C19.928 20.9428 19.9475 20.9553 19.9678 20.9665L23.6484 23.0915C23.9031 23.2385 24.2288 23.1513 24.3759 22.8965C24.5229 22.6418 24.4356 22.3161 24.1809 22.169L20.7575 20.1925V16.2394Z" fill="black"/>
<path fill-rule="evenodd" clip-rule="evenodd" d="M23.358 12.9361C21.862 12.3164 20.2159 12.1543 18.6277 12.4702C17.0396 12.7861 15.5808 13.5658 14.4358 14.7108L12.3322 16.8144C12.2875 16.8592 12.2202 16.8726 12.1617 16.8483C12.1033 16.8241 12.0651 16.7671 12.0651 16.7038V14.439C12.0651 14.2313 11.8967 14.0629 11.689 14.0629C11.4813 14.0629 11.3129 14.2313 11.3129 14.439V17.9895C11.3129 18.1972 11.4813 18.3656 11.689 18.3656H15.2395C15.4472 18.3656 15.6156 18.1972 15.6156 17.9895C15.6156 17.7817 15.4472 17.6133 15.2395 17.6133H12.9748C12.9115 17.6133 12.8545 17.5752 12.8303 17.5168C12.8061 17.4583 12.8194 17.391 12.8642 17.3463L14.9677 15.2428C16.0075 14.203 17.3323 13.4949 18.7745 13.208C20.2167 12.9211 21.7116 13.0684 23.0701 13.6311C24.4287 14.1938 25.5899 15.1468 26.4068 16.3694C27.2238 17.5921 27.6598 19.0295 27.6598 20.5C27.6598 21.9705 27.2238 23.4079 26.4068 24.6306C25.5899 25.8532 24.4287 26.8062 23.0701 27.3689C21.7116 27.9316 20.2167 28.0789 18.7745 27.792C17.3323 27.5051 16.0075 26.797 14.9677 25.7572C14.8208 25.6104 14.5827 25.6104 14.4358 25.7572C14.2889 25.9041 14.2889 26.1423 14.4358 26.2892C15.5808 27.4341 17.0396 28.2139 18.6277 28.5298C20.2159 28.8457 21.862 28.6836 23.358 28.0639C24.854 27.4442 26.1327 26.3949 27.0323 25.0485C27.9319 23.7022 28.4121 22.1193 28.4121 20.5C28.4121 18.8807 27.9319 17.2978 27.0323 15.9515C26.1327 14.6051 24.854 13.5558 23.358 12.9361ZM18.5667 12.1633C20.2155 11.8354 21.9246 12.0037 23.4778 12.647C25.0309 13.2904 26.3584 14.3798 27.2924 15.7777C28.2264 17.1755 28.7249 18.8189 28.7249 20.5C28.7249 22.1811 28.2264 23.8245 27.2924 25.2223C26.3584 26.6202 25.0309 27.7096 23.4778 28.353C21.9246 28.9963 20.2155 29.1646 18.5667 28.8367C16.9178 28.5087 15.4033 27.6991 14.2145 26.5104C13.9455 26.2413 13.9455 25.8051 14.2145 25.536C14.4836 25.2669 14.9199 25.2669 15.189 25.536C16.185 26.532 17.454 27.2103 18.8355 27.4851C20.217 27.7599 21.649 27.6189 22.9504 27.0798C24.2518 26.5408 25.3641 25.628 26.1467 24.4568C26.9292 23.2856 27.3469 21.9086 27.3469 20.5C27.3469 19.0914 26.9292 17.7144 26.1467 16.5432C25.3641 15.372 24.2518 14.4592 22.9504 13.9201C21.649 13.3811 20.217 13.2401 18.8355 13.5149C17.454 13.7897 16.185 14.468 15.189 15.464L13.3525 17.3005H15.2395C15.62 17.3005 15.9285 17.6089 15.9285 17.9895C15.9285 18.37 15.62 18.6785 15.2395 18.6785H11.689C11.3085 18.6785 11 18.37 11 17.9895V14.439C11 14.0585 11.3085 13.75 11.689 13.75C12.0695 13.75 12.378 14.0585 12.378 14.439V16.3261L14.2145 14.4896C15.4033 13.3008 16.9178 12.4913 18.5667 12.1633ZM20.2249 15.8633C20.0172 15.8633 19.8488 16.0317 19.8488 16.2395V20.4928C19.8485 20.5075 19.8491 20.5222 19.8505 20.5367C19.8559 20.5921 19.8733 20.6442 19.9002 20.6899C19.9254 20.7331 19.9596 20.7719 20.0019 20.8029C20.0151 20.8126 20.0291 20.8216 20.0434 20.8295L20.046 20.831L23.7266 22.956C23.9065 23.0599 24.1365 22.9982 24.2404 22.8183C24.3442 22.6384 24.2826 22.4084 24.1027 22.3045L20.6792 20.328C20.6308 20.3 20.601 20.2484 20.601 20.1925V16.2395C20.601 16.0317 20.4326 15.8633 20.2249 15.8633ZM19.5359 16.2395C19.5359 15.8589 19.8444 15.5504 20.2249 15.5504C20.6054 15.5504 20.9139 15.8589 20.9139 16.2395V20.1022L24.2591 22.0336C24.5887 22.2238 24.7016 22.6452 24.5113 22.9748C24.3211 23.3043 23.8997 23.4172 23.5701 23.227L19.8907 21.1027C19.865 21.0883 19.8402 21.0724 19.8166 21.0551C19.7392 20.9982 19.6764 20.9273 19.6301 20.848C19.581 20.7642 19.5491 20.6691 19.5392 20.5676M19.5359 16.2395V20.4887V16.2395Z" fill="black"/>
</svg>
