<svg width="40" height="40" viewBox="0 0 40 40" fill="none" xmlns="http://www.w3.org/2000/svg">
<circle cx="20" cy="20" r="20" fill="white" fill-opacity="0.6"/>
<path d="M9.47003 26.212C9.58981 26.2735 9.70958 26.3043 9.82936 26.3043C10.0689 26.3043 10.3085 26.212 10.4582 25.9964C13.5125 22.3315 19.6212 22.3623 21.1184 22.4239V25.2264C21.1184 25.6268 21.3879 26.0272 21.7472 26.1812C22.0766 26.3351 22.4359 26.2428 22.7054 25.9656L30.7006 19.0362C30.9102 18.8822 31 18.6358 31 18.3587C31 18.0815 30.8802 17.8659 30.6706 17.6811L22.6755 11.1829C22.406 10.9673 22.0167 10.9365 21.6574 11.1213C21.328 11.3061 21.1184 11.6141 21.1184 11.9837V14.817C12.0752 16.634 9.64969 22.1467 9.02086 25.288C8.93103 25.6576 9.14064 26.0272 9.47003 26.212ZM21.5376 15.9873C21.8969 15.9257 22.3161 15.5253 22.3161 15.0634V12.4764L29.5926 18.4203L22.3161 24.7337V22.1467C22.3161 21.6848 21.8969 21.2536 21.4478 21.2228C21.2082 21.192 20.8189 21.192 20.2799 21.192C18.0341 21.192 13.5724 21.5616 10.548 24.2101C11.5362 21.3152 14.2012 17.3732 21.5376 15.9873Z" fill="black"/>
</svg>
