<svg width="25" height="25" viewBox="0 0 25 25" fill="none" xmlns="http://www.w3.org/2000/svg">
<circle cx="12.5" cy="12.5" r="12.5" fill="#E6DAD2"/>
<mask id="mask0" mask-type="alpha" maskUnits="userSpaceOnUse" x="0" y="0" width="25" height="25">
<circle cx="12.5" cy="12.5" r="12.5" fill="#E6DAD2"/>
</mask>
<g mask="url(#mask0)">
<path d="M27.7931 11.7622L28.2724 14.4633L23.546 13.8622L24.2634 12.851L23.2754 11.5883L23.8629 9.22734L27.0773 7.73779L27.7931 11.7622Z" fill="#996741"/>
<path d="M28.2722 14.4633L24.3977 25.4695H11.0347L7.16016 14.4633L11.8866 13.8622L13.173 15.6717L16.6007 18.2206H17.717H18.8317L22.2594 15.6717L23.5458 13.8622L28.2722 14.4633Z" fill="#CC844E"/>
<path d="M26.8021 5.73718L27.337 7.61659L27.0773 7.73775L23.8629 9.2273L18.2506 7.81696L18.2119 6.37246L26.8021 5.73718Z" fill="#BF7A4B"/>
<path d="M23.2751 11.5883L24.263 12.851L23.5456 13.8622L22.2593 15.6717L23.2751 11.5883Z" fill="#FCB77E"/>
<path d="M23.8626 9.22736L23.275 11.5883L22.2592 15.6717L18.8315 18.2206L17.7168 16.4561V14.4664L18.6522 12.82L20.6559 12.1816L19.8535 10.7045L17.7168 11.6038V9.22736H23.8626Z" fill="#E0835A"/>
<path d="M23.8626 9.22729H17.7168L18.2502 7.81696L23.8626 9.22729Z" fill="#7A5135"/>
<path d="M19.8537 10.7045L20.6561 12.1816L18.6523 12.82L19.8537 10.7045Z" fill="#91483A"/>
<path d="M17.7168 11.6038L19.8535 10.7045L18.6522 12.82L17.7168 14.4664V11.6038Z" fill="#B55C47"/>
<path d="M17.7168 16.4561L18.8315 18.2205H17.7168V16.4561Z" fill="#E26556"/>
<path d="M18.2115 6.3725L18.2502 7.817L17.7168 9.22734V6.40822L18.2115 6.3725Z" fill="#E0835A"/>
<path d="M17.7169 16.4561V18.2205H16.6006L17.7169 16.4561Z" fill="#F47D6B"/>
<path d="M17.7166 14.4664V16.4561L16.6004 18.2206L13.1726 15.6717L12.1569 11.5883L11.5693 9.22736H17.7166V11.6038L15.5768 10.7045L14.776 12.1816L16.7797 12.82L17.7166 14.4664Z" fill="#F79B7F"/>
<path d="M17.717 11.6038V14.4664L16.78 12.82L15.5771 10.7045L17.717 11.6038Z" fill="#DB7861"/>
<path d="M17.7171 6.40822V9.22734L17.1821 7.817L17.2223 6.3725L17.7171 6.40822Z" fill="#F79B7F"/>
<path d="M17.1817 7.81696L17.7166 9.22729H11.5693L17.1817 7.81696Z" fill="#7A5135"/>
<path d="M17.2224 6.37246L17.1822 7.81696L11.5698 9.2273L8.35545 7.73775L8.0957 7.61659L8.62911 5.73718L17.2224 6.37246Z" fill="#BF7A4B"/>
<path d="M15.5773 10.7045L16.7801 12.82L14.7764 12.1816L15.5773 10.7045Z" fill="#91483A"/>
<path d="M12.1569 11.5883L13.1727 15.6717L11.8863 13.8622L11.1689 12.851L12.1569 11.5883Z" fill="#FFBC80"/>
<path d="M11.5696 9.22734L12.1572 11.5883L11.1692 12.851L11.8866 13.8622L7.16016 14.4633L7.71212 11.3553L8.3553 7.73779L11.5696 9.22734Z" fill="#996741"/>
<path d="M8.62891 5.73725L8.0955 7.61666L8.35525 7.73782L7.71207 11.3553L-0.323036 8.95866L-5 4.93268L-0.186978 5.21537L8.62891 5.73725Z" fill="#D38D54"/>
<path d="M5.08536 -1.98547L5.526 1.37106L2.84814 -1.98547H5.08536Z" fill="#966941"/>
<path d="M1.92036 -1.98547L-0.186979 5.21531L-5 4.93262L-1.32955 -1.98547H1.92036Z" fill="#966941"/>
<path d="M21.7521 15.024L21.0827 17.3212L18.83 18.9972H17.7168V17.8276V16.658L21.7521 15.024Z" fill="#F5E6C1"/>
<path d="M17.7171 17.8276L17.7155 18.9972H16.6008L14.3697 17.3383L13.6802 15.024L17.7155 16.658L17.7171 17.8276Z" fill="#FFF2DC"/>
</g>
</svg>
