<svg width="31" height="18" viewBox="0 0 31 18" fill="none" xmlns="http://www.w3.org/2000/svg">
<path d="M16.436 16.5433L16.4359 16.5434L16.4377 16.547C16.497 16.6656 16.5266 16.7911 16.5266 16.9248C16.5266 17.1423 16.4414 17.3217 16.2643 17.4693L16.2643 17.4693L16.2611 17.4722C16.0987 17.6198 15.8996 17.6947 15.6573 17.6947C15.4667 17.6947 15.3113 17.6492 15.1858 17.5631C15.06 17.4768 14.9569 17.3448 14.8798 17.1597L14.8798 17.1597L14.8791 17.1581L13.1145 13.1319L13.0883 13.072H13.0229H3.65338H3.58839L3.562 13.1314L1.77259 17.1576L1.77256 17.1576L1.77166 17.1597C1.69456 17.3448 1.59149 17.4768 1.46569 17.5631C1.34016 17.6492 1.18472 17.6947 0.994116 17.6947C0.752604 17.6947 0.544035 17.6201 0.364065 17.4708C0.185124 17.3061 0.1 17.1172 0.1 16.9C0.1 16.7847 0.128694 16.6674 0.188854 16.547L0.18893 16.5471L0.190614 16.5433L7.29854 0.736892L7.29856 0.736899L7.29925 0.735272C7.39108 0.521017 7.52658 0.364474 7.70508 0.260347C7.88848 0.153361 8.08647 0.1 8.30087 0.1C8.53049 0.1 8.73471 0.160885 8.91643 0.282028L8.91633 0.282178L8.92151 0.285201C9.10191 0.390437 9.23715 0.540173 9.32824 0.737332C9.32831 0.737483 9.32838 0.737635 9.32845 0.737786L16.436 16.5433ZM15.6573 17.7947C15.2431 17.7947 14.9532 17.5959 14.7875 17.1982L16.5272 16.5023C16.5934 16.6349 16.6266 16.7757 16.6266 16.9248C16.6266 17.1734 16.5272 17.3805 16.3284 17.5461C16.1461 17.7118 15.9224 17.7947 15.6573 17.7947ZM4.30744 11.4418L4.2457 11.582H4.39896H12.2773H12.431L12.3688 11.4415L8.41715 2.51935L8.32543 2.31226L8.23419 2.51956L4.30744 11.4418Z" fill="black" stroke="white" stroke-width="0.2"/>
<path d="M30.6053 16.9C30.6512 16.9918 30.6742 17.0893 30.6742 17.1925C30.6742 17.3646 30.6053 17.508 30.4677 17.6227C30.3415 17.7374 30.1867 17.7947 30.0031 17.7947C29.7164 17.7947 29.5156 17.6571 29.4009 17.3818L28.1793 14.5944H21.6927L20.4539 17.3818C20.3392 17.6571 20.1385 17.7947 19.8517 17.7947C19.6682 17.7947 19.5076 17.7374 19.3699 17.6227C19.2323 17.4965 19.1635 17.3474 19.1635 17.1753C19.1635 17.0836 19.1864 16.9918 19.2323 16.9L24.1531 5.9571C24.222 5.79652 24.3252 5.67608 24.4629 5.59578C24.6005 5.51549 24.7496 5.47534 24.9102 5.47534C25.0823 5.47534 25.2371 5.52122 25.3748 5.61299C25.5124 5.69328 25.6156 5.80799 25.6845 5.9571L30.6053 16.9ZM22.2089 13.4244H27.6631L24.9274 7.24754L22.2089 13.4244Z" fill="black"/>
</svg>
