<svg width="101" height="25" viewBox="0 0 101 25" fill="none" xmlns="http://www.w3.org/2000/svg">
<path fill-rule="evenodd" clip-rule="evenodd" d="M5.15111 7.7277C6.52805 7.5975 7.90499 7.98811 9.15676 8.89951C9.40711 9.02971 9.65746 8.96461 9.84523 8.76931C9.9704 8.50891 9.90782 8.24851 9.72005 8.05321C8.28052 7.0116 6.65323 6.55589 5.08852 6.7512C4.02452 6.8163 3.0857 7.272 2.52241 7.923C1.64617 8.89951 1.45841 10.527 2.20947 11.5686C3.02311 12.8055 4.33746 13.131 5.52664 13.4565C5.7144 13.5216 5.96476 13.5867 6.15252 13.6518C6.90358 13.9123 7.65464 14.1076 8.28052 14.5633C8.84382 14.9539 9.09417 16.0606 8.9064 16.7767C8.65605 17.8183 7.40429 18.4042 6.40287 18.4693C4.6504 18.5995 2.89794 18.0136 1.58358 16.9069C1.39582 16.7116 1.08287 16.7767 0.895108 16.972C0.707344 17.1673 0.769936 17.4928 0.9577 17.6881C2.33464 18.8599 4.08711 19.5109 5.90217 19.5109C6.08993 19.5109 6.2777 19.5109 6.46546 19.5109C7.8424 19.3807 9.4697 18.5995 9.84523 17.0371C10.0956 15.9955 9.78264 14.4331 8.78123 13.7169C8.03017 13.1961 7.21652 12.9357 6.40287 12.6753C6.21511 12.6102 5.96476 12.5451 5.77699 12.48C4.71299 12.1545 3.5864 11.8941 2.96052 10.9827C2.5224 10.2666 2.64758 9.15991 3.21088 8.57401C3.77417 7.98811 4.6504 7.7928 5.15111 7.7277Z" fill="black"/>
<path fill-rule="evenodd" clip-rule="evenodd" d="M57.9044 7.7277C59.1895 7.5975 60.4747 7.98811 61.643 8.89951C61.8766 9.02971 62.1103 8.96461 62.2856 8.76931C62.4024 8.50891 62.344 8.24851 62.1687 8.05321C60.8252 7.0116 59.3064 6.55589 57.846 6.7512C56.8529 6.8163 55.9767 7.272 55.4509 7.923C54.6331 8.89951 54.4579 10.527 55.1588 11.5686C55.9182 12.8055 57.145 13.131 58.2549 13.4565C58.4301 13.5216 58.6638 13.5867 58.839 13.6518C59.54 13.9123 60.241 14.1076 60.8252 14.5633C61.3509 14.9539 61.5846 16.0606 61.4093 16.7767C61.1757 17.8183 60.0073 18.4042 59.0727 18.4693C57.437 18.5995 55.8014 18.0136 54.5747 16.9069C54.3994 16.7116 54.1074 16.7767 53.9321 16.972C53.7569 17.1673 53.8153 17.4928 53.9905 17.6881C55.2757 18.8599 56.9113 19.5109 58.6054 19.5109C58.7806 19.5109 58.9559 19.5109 59.1311 19.5109C60.4163 19.3807 61.9351 18.5995 62.2856 17.0371C62.5192 15.9955 62.2271 14.4331 61.2925 13.7169C60.5915 13.1961 59.8321 12.9357 59.0727 12.6753C58.8974 12.6102 58.6638 12.5451 58.4885 12.48C57.4955 12.1545 56.444 11.8941 55.8598 10.9827C55.4509 10.2666 55.5678 9.15991 56.0935 8.57401C56.6192 7.98811 57.437 7.7928 57.9044 7.7277Z" fill="black"/>
<path fill-rule="evenodd" clip-rule="evenodd" d="M18.9871 18.0846C18.213 18.4087 17.2455 18.4087 17.2455 18.4087C16.5359 18.4735 15.9554 18.279 15.5684 17.8902C14.7298 17.0476 14.7298 15.4273 14.7298 15.4273V9.01099H18.9226C19.1806 9.01099 19.4386 8.81656 19.4386 8.4925C19.4386 8.23326 19.2451 7.97401 18.9226 7.97401H14.7943V3.56683C14.7943 3.30759 14.6008 3.04834 14.2783 3.04834C14.0203 3.04834 13.7623 3.24277 13.7623 3.56683V7.97401H11.0531C10.7951 7.97401 10.5371 8.16845 10.5371 8.4925C10.5371 8.75175 10.7306 9.01099 11.0531 9.01099H13.7623V15.4273C13.7623 15.4921 13.6978 17.5013 14.8589 18.6679C15.4394 19.2512 16.1489 19.5104 17.052 19.5104C17.1165 19.5104 17.2455 19.5104 17.31 19.5104C17.3745 19.5104 18.4711 19.5105 19.3741 19.1216C19.6321 18.992 19.7611 18.7327 19.6321 18.4735C19.5031 18.0846 19.2451 17.955 18.9871 18.0846Z" fill="black"/>
<path fill-rule="evenodd" clip-rule="evenodd" d="M26.6938 18.5434C23.9828 18.5434 21.8263 15.9639 21.8263 12.804C21.8263 9.64402 23.9828 7.06449 26.6938 7.06449C29.4048 7.06449 31.5613 9.64402 31.5613 12.804C31.5613 15.9639 29.4048 18.5434 26.6938 18.5434ZM26.6938 6.09717C23.4899 6.09717 20.9021 9.12812 20.9021 12.804C20.9021 16.5443 23.4899 19.5107 26.6938 19.5107C29.8977 19.5107 32.4855 16.4798 32.4855 12.804C32.5471 9.12812 29.8977 6.09717 26.6938 6.09717Z" fill="black"/>
<path fill-rule="evenodd" clip-rule="evenodd" d="M40.6844 6.89625C40.6201 6.89625 38.9475 6.32859 37.2749 7.21162C36.5029 7.59006 35.8596 8.22079 35.345 8.97767V7.21162C35.345 6.95932 35.152 6.70703 34.8303 6.70703C34.573 6.70703 34.3157 6.89625 34.3157 7.21162V19.0063C34.3157 19.2586 34.5087 19.5109 34.8303 19.5109C35.0876 19.5109 35.345 19.3217 35.345 19.0063V11.4375C35.8596 9.79762 36.6316 8.6623 37.7252 8.09464C39.0118 7.40084 40.3628 7.77928 40.3628 7.84235C40.6201 7.90542 40.8774 7.77928 41.0061 7.52698C41.0704 7.21162 40.9417 6.95932 40.6844 6.89625Z" fill="black"/>
<path fill-rule="evenodd" clip-rule="evenodd" d="M82.7567 6.89625C82.6985 6.89625 81.1854 6.32859 79.6723 7.21162C78.9739 7.59006 78.392 8.22079 77.9264 8.97767V7.21162C77.9264 6.95932 77.7518 6.70703 77.4608 6.70703C77.228 6.70703 76.9952 6.89625 76.9952 7.21162V19.0063C76.9952 19.2586 77.1698 19.5109 77.4608 19.5109C77.6936 19.5109 77.9264 19.3217 77.9264 19.0063V11.4375C78.392 9.79762 79.0903 8.6623 80.0797 8.09464C81.2436 7.40084 82.4657 7.77928 82.4657 7.84235C82.6985 7.90542 82.9313 7.77928 83.0477 7.52698C83.1641 7.21162 83.0477 6.95932 82.7567 6.89625Z" fill="black"/>
<path fill-rule="evenodd" clip-rule="evenodd" d="M53.5119 6.11321C53.2491 6.05026 52.9862 6.17616 52.8548 6.42796L48.6493 18.3254C48.5178 18.3884 48.4521 18.3884 48.3207 18.3884C48.1893 18.3884 48.1235 18.2625 48.0578 18.1995L42.6037 6.67976C42.4723 6.42796 42.2095 6.30206 41.9466 6.42796C41.6838 6.55386 41.5523 6.80566 41.6838 7.05745L47.2036 18.6402C47.2036 18.7031 47.4664 19.1438 48.0578 19.3326C48.1235 19.3326 48.1893 19.3326 48.255 19.3956L47.795 20.6546V20.7175C47.795 20.7175 47.5979 21.5359 46.9407 22.3542C46.0865 23.4873 44.7722 23.9909 43.1951 23.9909C42.9323 23.9909 42.6694 24.1798 42.6694 24.4945C42.6694 24.7463 42.8666 24.9981 43.1951 24.9981C47.5979 24.9981 48.6492 21.347 48.7807 20.9693L53.7748 6.86861C53.9062 6.49091 53.7748 6.23911 53.5119 6.11321Z" fill="black"/>
<path fill-rule="evenodd" clip-rule="evenodd" d="M73.5538 19.4428C73.276 19.4428 72.9983 19.191 72.9983 18.9393V7.16953C72.9983 6.91777 73.276 6.66602 73.5538 6.66602C73.8316 6.66602 74.1093 6.91777 74.1093 7.16953V18.9393C74.1093 19.191 73.901 19.4428 73.5538 19.4428Z" fill="black"/>
<path fill-rule="evenodd" clip-rule="evenodd" d="M68.8813 19.5109C66.0048 19.5109 64.1913 17.5163 64.1913 14.2993V7.22176C64.1913 6.96439 64.4414 6.70703 64.6915 6.70703C64.9417 6.70703 65.1918 6.96439 65.1918 7.22176V14.2993C65.1918 16.9373 66.5676 18.4814 68.8813 18.4814C71.2576 18.4814 72.9461 16.6799 72.9461 14.1062C72.9461 13.8489 73.1962 13.5915 73.4463 13.5915C73.6965 13.5915 73.9466 13.8489 73.9466 14.1062C73.9466 17.259 71.8205 19.5109 68.8813 19.5109Z" fill="black"/>
<path fill-rule="evenodd" clip-rule="evenodd" d="M89.9349 7.92629C89.27 7.92629 88.6051 7.79738 87.8738 7.47511C87.1424 7.15283 86.411 7.08837 85.6132 7.21728C85.2143 7.28174 84.8153 7.47511 84.5494 7.66847C84.2834 7.86184 83.951 7.79738 83.818 7.53956C83.6185 7.28174 83.685 6.95947 83.951 6.83056C84.3499 6.50828 84.8818 6.31492 85.4802 6.18601C86.4775 5.99264 87.4748 6.12155 88.3392 6.50828C89.0706 6.83056 90.5333 7.21729 91.3312 6.37937C91.5306 6.18601 91.8631 6.12155 92.0625 6.37937C92.262 6.57274 92.3285 6.89501 92.0625 7.08837C91.5306 7.60401 90.7992 7.92629 89.9349 7.92629Z" fill="black"/>
<path fill-rule="evenodd" clip-rule="evenodd" d="M88.4437 19.5106C88.2068 19.5106 87.97 19.2607 87.97 19.0108V4.077C88.1476 2.38992 88.7398 1.20272 89.8057 0.577874C91.7007 -0.60933 94.2471 0.39042 94.3656 0.452905C94.6024 0.577873 94.7209 0.827811 94.6617 1.07775C94.5432 1.32769 94.3064 1.45265 94.0695 1.39017C94.0695 1.39017 91.8192 0.51539 90.3387 1.45266C89.5689 1.95253 89.0951 2.8898 88.9767 4.20197V19.0733C88.9175 19.2607 88.6806 19.5106 88.4437 19.5106Z" fill="black"/>
<path fill-rule="evenodd" clip-rule="evenodd" d="M97.2845 0.555664H95.9304C95.8783 0.555664 95.7742 0.611215 95.7742 0.722317C95.7742 0.777868 95.8263 0.88897 95.9304 0.88897H96.4512V2.61106C96.4512 2.72216 96.5033 2.77771 96.6074 2.77771C96.7116 2.77771 96.7637 2.72216 96.7637 2.61106V0.83342H97.2845C97.3365 0.83342 97.4407 0.777869 97.4407 0.666767C97.4407 0.611216 97.3886 0.555664 97.2845 0.555664Z" fill="black"/>
<path fill-rule="evenodd" clip-rule="evenodd" d="M100.021 0.581966C100.008 0.593672 99.9959 0.609083 99.9841 0.626244L99.1103 2.14804L98.2326 0.629867C98.2218 0.610232 98.2077 0.59198 98.1889 0.578325C98.1651 0.561072 98.1363 0.555664 98.1093 0.555664C98.0781 0.555664 98.0459 0.564787 98.0232 0.590054C98.0021 0.613426 97.9962 0.642984 97.9962 0.670172V2.6632C97.9962 2.69143 98.0032 2.7218 98.0267 2.74527C98.051 2.76962 98.0843 2.77771 98.1158 2.77771C98.1471 2.77771 98.1798 2.76915 98.2034 2.74433C98.2257 2.72089 98.2321 2.6909 98.2321 2.6632V1.07631L98.9904 2.37783C99.0021 2.3988 99.0179 2.41764 99.0395 2.43127C99.0618 2.44534 99.0872 2.45195 99.1138 2.45195C99.1387 2.45195 99.169 2.44733 99.1922 2.42773C99.21 2.41425 99.2234 2.39662 99.2339 2.37771L99.9824 1.07833V2.6632C99.9824 2.69143 99.9893 2.7218 100.013 2.74527C100.037 2.76962 100.07 2.77771 100.102 2.77771C100.133 2.77771 100.166 2.76915 100.19 2.74433C100.212 2.72089 100.218 2.6909 100.218 2.6632V0.670172C100.218 0.642984 100.212 0.613426 100.191 0.590054C100.169 0.564787 100.136 0.555664 100.105 0.555664C100.078 0.555664 100.049 0.560834 100.025 0.578088L100.021 0.581966Z" fill="black"/>
<path d="M99.1105 2.25452L100.03 0.652404C100.041 0.63661 100.051 0.624764 100.06 0.616867C100.066 0.611932 100.075 0.608538 100.085 0.606687M100.105 0.605021C100.107 0.605021 100.108 0.605054 100.11 0.60512M98.1147 0.605125C98.1129 0.605056 98.1111 0.605021 98.1093 0.605021C98.0701 0.605021 98.0506 0.626738 98.0506 0.670172V2.6632C98.0506 2.68899 98.0582 2.70713 98.0736 2.7176M99.0388 2.35522C99.0504 2.37632 99.0654 2.39037 99.0838 2.39737M100.037 0.877477V2.6632C100.037 2.68899 100.044 2.70713 100.06 2.7176M99.9841 0.626244C99.9959 0.609083 100.008 0.593672 100.021 0.581966L100.025 0.578088C100.049 0.560834 100.078 0.555664 100.105 0.555664C100.136 0.555664 100.169 0.564787 100.191 0.590054C100.212 0.613426 100.218 0.642984 100.218 0.670172V2.6632C100.218 2.6909 100.212 2.72089 100.19 2.74433C100.166 2.76915 100.133 2.77771 100.102 2.77771C100.07 2.77771 100.037 2.76962 100.013 2.74527C99.9893 2.7218 99.9824 2.69143 99.9824 2.6632V1.07833L99.2339 2.37771C99.2234 2.39662 99.21 2.41425 99.1922 2.42773C99.169 2.44733 99.1387 2.45195 99.1138 2.45195C99.0872 2.45195 99.0618 2.44534 99.0395 2.43127C99.0179 2.41764 99.0021 2.3988 98.9904 2.37783L98.2321 1.07631V2.6632C98.2321 2.6909 98.2257 2.72089 98.2034 2.74433C98.1798 2.76915 98.1471 2.77771 98.1158 2.77771C98.0843 2.77771 98.051 2.76962 98.0267 2.74527C98.0032 2.7218 97.9962 2.69143 97.9962 2.6632V0.670172C97.9962 0.642984 98.0021 0.613426 98.0232 0.590054C98.0459 0.564787 98.0781 0.555664 98.1093 0.555664C98.1363 0.555664 98.1651 0.561072 98.1889 0.578325C98.2077 0.59198 98.2218 0.610232 98.2326 0.629867L99.1103 2.14804L99.9841 0.626244Z" stroke="black" stroke-width="0.1"/>
</svg>
