<svg width="40" height="40" viewBox="0 0 40 40" fill="none" xmlns="http://www.w3.org/2000/svg">
<circle cx="20" cy="20" r="20" fill="white" fill-opacity="0.6"/>
<path fill-rule="evenodd" clip-rule="evenodd" d="M20.5 11C19.3838 11 18.2784 11.2121 17.2472 11.6242C16.2159 12.0363 15.2789 12.6403 14.4896 13.4017C13.7003 14.1632 13.0742 15.0671 12.647 16.062C12.2199 17.0569 12 18.1231 12 19.2V26.0844C12 26.4333 12.1437 26.7679 12.3994 27.0147C12.6552 27.2614 13.0021 27.4 13.3638 27.4H20.5C22.7544 27.4 24.9164 26.5361 26.5104 24.9983C28.1045 23.4605 29 21.3748 29 19.2V19.2C29 18.1232 28.7801 17.0569 28.353 16.062C27.9258 15.0671 27.2997 14.1632 26.5104 13.4017C25.7211 12.6403 24.7841 12.0363 23.7528 11.6242C22.7215 11.2121 21.6162 11 20.5 11H20.5ZM17.7944 12.8988C18.6522 12.556 19.5716 12.3796 20.5 12.3796H20.5C21.4284 12.3796 22.3478 12.556 23.2056 12.8988C24.0633 13.2415 24.8427 13.7439 25.4992 14.3772C26.1557 15.0106 26.6765 15.7625 27.0318 16.5899C27.3871 17.4174 27.5699 18.3043 27.5699 19.2V19.2C27.5699 21.0089 26.8251 22.7437 25.4992 24.0228C24.1733 25.3018 22.3751 26.0204 20.5 26.0204H13.4301V19.2C13.4301 18.3043 13.6129 17.4174 13.9682 16.5899C14.3235 15.7624 14.8443 15.0106 15.5008 14.3772C16.1573 13.7439 16.9367 13.2415 17.7944 12.8988ZM17.7921 17.5306C17.3972 17.5306 17.0771 17.8394 17.0771 18.2204C17.0771 18.6014 17.3972 18.9102 17.7921 18.9102H22.8693C23.2642 18.9102 23.5843 18.6014 23.5843 18.2204C23.5843 17.8394 23.2642 17.5306 22.8693 17.5306H17.7921ZM17.7921 20.1429C17.3972 20.1429 17.0771 20.4517 17.0771 20.8326C17.0771 21.2136 17.3972 21.5224 17.7921 21.5224H22.8693C23.2642 21.5224 23.5843 21.2136 23.5843 20.8326C23.5843 20.4517 23.2642 20.1429 22.8693 20.1429H17.7921Z" fill="black"/>
</svg>
