<svg width="29" height="22" viewBox="0 0 29 22" fill="none" xmlns="http://www.w3.org/2000/svg">
<path d="M24.3083 8.74772H22.278C21.5192 4.30212 17.6392 1 13.0855 1C7.94138 1 3.75586 5.18522 3.75586 10.3294C3.75586 11.2988 3.90693 12.2507 4.20017 13.1669C2.38699 13.485 1 15.0473 1 16.9118V17.19C1 19.2912 2.7401 21 4.87908 21H18.1318C20.2707 21 22.0108 19.2912 22.0108 17.19V16.9118C22.0108 16.7178 22.0108 16.6453 22.2982 16.6453H24.3086C26.4478 16.6453 28.188 14.9365 28.188 12.8359V12.5577C28.1876 10.4568 26.4475 8.74772 24.3083 8.74772ZM13.0855 1.94206C17.1249 1.94206 20.575 4.8321 21.3209 8.74772H11.0556C8.9166 8.74772 7.1765 10.4568 7.1765 12.5574V12.8356C7.1765 13.0269 7.13812 13.0948 7.14088 13.0984C7.13658 13.0994 7.12522 13.1018 7.10373 13.1018H5.16987C4.85666 12.2101 4.69822 11.2788 4.69822 10.3291C4.69822 5.70446 8.46093 1.94206 13.0855 1.94206ZM27.2453 12.8356C27.2453 14.4163 25.9277 15.7029 24.3083 15.7029H22.2979C21.5281 15.7029 21.0685 16.1549 21.0685 16.9118V17.19C21.0685 18.7714 19.7509 20.0579 18.1318 20.0579H4.87908C3.25965 20.0579 1.94237 18.7717 1.94237 17.19V16.9118C1.94237 15.3909 3.17613 14.1372 4.72402 14.054L7.10403 14.0445C7.59471 14.0445 8.11917 13.7273 8.11917 12.8356V12.5574C8.11917 10.9764 9.43676 9.69009 11.0559 9.69009H22.406H24.3083C25.9277 9.69009 27.2453 10.9764 27.2453 12.5574V12.8356Z" fill="black" stroke="black" stroke-width="0.4"/>
</svg>
