<svg width="58" height="78" viewBox="0 0 58 78" fill="none" xmlns="http://www.w3.org/2000/svg">
<path d="M34.3552 1.00478C31.4156 1.09079 28.6252 2.31898 26.5764 4.4287C24.5275 6.53841 23.3815 9.36348 23.3815 12.3043V28.0343C21.2579 27.7953 19.1102 28.166 17.1895 29.103C15.2689 30.04 13.6548 31.5046 12.5361 33.3254C10.7815 33.219 9.02706 33.537 7.42147 34.2526C5.81587 34.9682 4.4064 36.0603 3.31244 37.4363C2.21849 38.8122 1.47228 40.4316 1.13704 42.1572C0.801791 43.8827 0.887381 45.6635 1.38656 47.349C2.26856 49.8433 3.84673 52.0328 5.93426 53.6581C6.34846 53.9811 6.84204 54.1864 7.36308 54.2526C7.88413 54.3189 8.4134 54.2436 8.89524 54.0345C9.37707 53.8254 9.79367 53.4902 10.1012 53.0644C10.4088 52.6387 10.5959 52.138 10.643 51.6149C10.9276 48.5056 12.2197 45.5741 14.3229 43.2664C14.6348 42.9238 14.8895 42.5331 15.0771 42.1093C15.6865 40.7341 15.8671 39.2072 15.5954 37.7277C15.3236 36.2483 14.6122 34.8851 13.5539 33.8161C14.5803 32.1868 16.0501 30.8839 17.7907 30.0603C19.5314 29.2366 21.4708 28.9263 23.3815 29.1657V76.4695C23.3898 76.6129 23.4527 76.7478 23.5572 76.8464C23.6617 76.945 23.7999 77 23.9436 77C24.0872 77 24.2255 76.945 24.33 76.8464C24.4345 76.7478 24.4973 76.6129 24.5056 76.4695V49.4985C26.4164 49.259 28.3558 49.5692 30.0964 50.3928C31.8371 51.2165 33.3068 52.5193 34.3333 54.1486C33.275 55.2176 32.5635 56.5808 32.2918 58.0603C32.02 59.5397 32.2007 61.0668 32.8101 62.4421C32.9977 62.8658 33.2524 63.2565 33.5644 63.5992C35.6676 65.9069 36.9597 68.8381 37.2443 71.9474C37.2924 72.4696 37.4801 72.9693 37.7877 73.394C38.0953 73.8187 38.5114 74.1527 38.9925 74.3612C39.4736 74.5698 40.002 74.6451 40.5222 74.5792C41.0424 74.5133 41.5354 74.3088 41.9493 73.9869C44.039 72.3636 45.6197 70.1756 46.5043 67.6817C47.0035 65.9963 47.0891 64.2153 46.7539 62.4897C46.4186 60.7641 45.6724 59.1448 44.5785 57.7688C43.4845 56.3928 42.0751 55.3009 40.4694 54.5853C38.8638 53.8698 37.1094 53.5517 35.3548 53.6581C34.2363 51.8361 32.6218 50.3702 30.7004 49.4325C28.779 48.4949 26.6302 48.1241 24.5056 48.3635V12.3043C24.5419 9.62906 25.6302 7.07572 27.5348 5.19672C29.4395 3.31771 32.0075 2.26409 34.683 2.26409C37.3585 2.26409 39.9265 3.31771 41.8312 5.19672C43.7358 7.07572 44.8241 9.62906 44.8604 12.3043V13.7434C41.965 13.8884 39.2361 15.1406 37.238 17.241C35.2398 19.3414 34.1252 22.1292 34.1246 25.0282V38.3673C34.1249 38.5163 34.1551 38.6638 34.2135 38.801C34.2719 38.9381 34.3572 39.0621 34.4645 39.1656C34.5717 39.269 34.6987 39.35 34.8378 39.4034C34.977 39.4569 35.1254 39.4818 35.2744 39.4767C35.6524 39.4637 36.0298 39.4367 36.4058 39.3959V43.2148C36.4059 43.3661 36.4369 43.5158 36.4968 43.6547C36.5568 43.7936 36.6445 43.9189 36.7545 44.0227C36.8645 44.1266 36.9945 44.2067 37.1367 44.2586C37.2788 44.3105 37.43 44.3327 37.581 44.3241C38.9774 44.2429 40.3502 43.9272 41.6419 43.3904L44.6369 46.382C44.7402 46.4855 44.8629 46.5676 44.998 46.6236C45.1331 46.6797 45.278 46.7087 45.4242 46.7087C45.5705 46.7087 45.7153 46.6797 45.8504 46.6236C45.9855 46.5676 46.1082 46.4855 46.2115 46.382L49.203 43.3904C50.4946 43.9272 51.8673 44.2429 53.2636 44.3241C53.4147 44.3327 53.5659 44.3105 53.708 44.2586C53.8502 44.2067 53.9802 44.1266 54.0902 44.0227C54.2002 43.9189 54.2879 43.7936 54.3479 43.6547C54.4078 43.5158 54.4388 43.3661 54.4389 43.2148V39.3959C54.8149 39.4367 55.1923 39.4637 55.5703 39.4767C55.7199 39.4828 55.8691 39.4586 56.0091 39.4056C56.1491 39.3526 56.2769 39.2719 56.385 39.1683C56.493 39.0648 56.579 38.9404 56.6379 38.8028C56.6967 38.6651 56.7271 38.5169 56.7274 38.3673V25.0282C56.7267 22.1286 55.6116 19.3403 53.6127 17.2398C51.6138 15.1393 48.884 13.8876 45.988 13.7434V12.3043C45.9881 10.7922 45.6847 9.29544 45.0959 7.90262C44.5071 6.5098 43.6448 5.24922 42.5601 4.1956C41.4754 3.14198 40.1904 2.31671 38.7811 1.76861C37.3717 1.22052 35.8667 0.960829 34.3552 1.00478ZM45.0177 14.8602C46.3778 14.8059 47.7349 15.025 49.0088 15.5045V24.0837C49.0081 27.7806 47.5739 31.3332 45.0077 33.9944C42.4414 36.6556 38.9432 38.2178 35.2487 38.3527V25.0282C35.2488 22.3998 36.2658 19.8735 38.0867 17.9781C39.9077 16.0828 42.3914 14.9655 45.0177 14.8602ZM50.1366 16.0098C51.784 16.8707 53.1642 18.1664 54.1273 19.7562C55.0904 21.3461 55.5996 23.1694 55.5997 25.0282V38.3527C52.0839 38.2235 48.7395 36.801 46.2078 34.358C48.7371 31.5333 50.136 27.8753 50.1366 24.0837V16.0098ZM12.3091 34.4385C12.4068 34.4436 12.5044 34.45 12.6019 34.458C13.5581 35.3608 14.2107 36.5381 14.4697 37.8273C14.7288 39.1166 14.5815 40.4544 14.0482 41.6565C13.9096 41.9689 13.7217 42.2571 13.4916 42.5098C11.2232 44.9986 9.82947 48.16 9.52247 51.5135C9.49287 51.8345 9.37753 52.1417 9.18852 52.4028C8.9995 52.6639 8.74376 52.8695 8.44807 52.9979C8.15238 53.1263 7.82761 53.1727 7.50775 53.1326C7.1879 53.0924 6.88472 52.9671 6.62996 52.7696C4.71941 51.2832 3.27261 49.2825 2.45946 47.0026C2.02047 45.5045 1.9452 43.9234 2.23991 42.3904C2.53461 40.8575 3.19079 39.4168 4.15394 38.1883C5.11709 36.9599 6.35942 35.979 7.77777 35.327C9.19612 34.675 10.7495 34.3708 12.3091 34.4397L12.3091 34.4385ZM45.4241 35.1707C45.9677 35.6947 46.549 36.1782 47.1635 36.617C46.3048 38.4842 44.9549 40.0831 43.2582 41.2427C41.5614 42.4023 39.5814 43.079 37.5299 43.2007V39.2315C40.5027 38.6818 43.2482 37.2695 45.4241 35.1707ZM48.1155 37.2432C49.7135 38.2162 51.4753 38.8899 53.3148 39.2315V43.2007C50.6593 43.0429 48.1436 41.9568 46.2078 40.1322C46.9749 39.2626 47.617 38.2902 48.1155 37.2432ZM45.4241 40.9415C46.2332 41.7046 47.1409 42.356 48.1228 42.8784L45.4241 45.5807L42.7256 42.8784C43.7075 42.356 44.615 41.7046 45.4241 40.9415ZM35.5818 54.771C37.1413 54.7022 38.6948 55.0066 40.1131 55.6586C41.5315 56.3106 42.7738 57.2914 43.7369 58.5199C44.7001 59.7484 45.3563 61.1888 45.651 62.7218C45.9457 64.2547 45.8704 65.8361 45.4314 67.3341C44.6183 69.6141 43.1715 71.6145 41.2609 73.1009C41.0062 73.2995 40.7026 73.4258 40.3822 73.4665C40.0618 73.5072 39.7364 73.4609 39.4401 73.3324C39.1438 73.2039 38.8875 72.9979 38.6983 72.7361C38.5091 72.4744 38.3938 72.1667 38.3647 71.845C38.0577 68.4915 36.664 65.3299 34.3955 62.8411C34.1642 62.5887 33.975 62.3007 33.8353 61.988C33.302 60.786 33.1547 59.448 33.4138 58.1587C33.6728 56.8694 34.3253 55.6924 35.2815 54.7896C35.3803 54.7815 35.4791 54.7749 35.5781 54.7698L35.5818 54.771Z" fill="#999999" stroke="#999999"/>
</svg>
