<svg width="58" height="78" viewBox="0 0 58 78" fill="none" xmlns="http://www.w3.org/2000/svg">
<path d="M34.4189 1.00478C31.4793 1.09079 28.6889 2.31898 26.6401 4.4287C24.5912 6.53841 23.4452 9.36348 23.4453 12.3043V28.0343C21.3217 27.7953 19.1739 28.166 17.2533 29.103C15.3326 30.04 13.7185 31.5046 12.5998 33.3254C10.8452 33.219 9.09078 33.537 7.48519 34.2526C5.87959 34.9682 4.47012 36.0603 3.37617 37.4363C2.28221 38.8122 1.536 40.4316 1.20076 42.1572C0.865512 43.8827 0.951102 45.6635 1.45028 47.349C2.33228 49.8433 3.91045 52.0328 5.99798 53.6581C6.41218 53.9811 6.90576 54.1864 7.42681 54.2526C7.94785 54.3189 8.47712 54.2436 8.95896 54.0345C9.44079 53.8254 9.85739 53.4902 10.1649 53.0644C10.4725 52.6387 10.6596 52.138 10.7067 51.6149C10.9913 48.5056 12.2834 45.5741 14.3866 43.2664C14.6985 42.9238 14.9532 42.5331 15.1408 42.1093C15.7502 40.7341 15.9308 39.2072 15.6591 37.7277C15.3873 36.2483 14.6759 34.8851 13.6176 33.8161C14.6441 32.1868 16.1138 30.8839 17.8545 30.0603C19.5951 29.2366 21.5345 28.9263 23.4453 29.1657V76.4695C23.4536 76.6129 23.5164 76.7478 23.6209 76.8464C23.7254 76.945 23.8636 77 24.0073 77C24.151 77 24.2892 76.945 24.3937 76.8464C24.4982 76.7478 24.561 76.6129 24.5693 76.4695V49.4985C26.4801 49.259 28.4195 49.5692 30.1601 50.3928C31.9008 51.2165 33.3705 52.5193 34.397 54.1486C33.3387 55.2176 32.6272 56.5808 32.3555 58.0603C32.0838 59.5397 32.2644 61.0668 32.8738 62.4421C33.0614 62.8658 33.3162 63.2565 33.6282 63.5992C35.7313 65.9069 37.0235 68.8381 37.3081 71.9474C37.3562 72.4696 37.5438 72.9693 37.8514 73.394C38.159 73.8187 38.5751 74.1527 39.0563 74.3612C39.5374 74.5698 40.0657 74.6451 40.5859 74.5792C41.1062 74.5133 41.5991 74.3088 42.0131 73.9869C44.1027 72.3636 45.6834 70.1756 46.5681 67.6817C47.0672 65.9963 47.1528 64.2153 46.8176 62.4897C46.4824 60.7641 45.7362 59.1448 44.6422 57.7688C43.5482 56.3928 42.1388 55.3009 40.5332 54.5853C38.9276 53.8698 37.1731 53.5517 35.4185 53.6581C34.3 51.8361 32.6855 50.3702 30.7641 49.4325C28.8427 48.4949 26.6939 48.1241 24.5693 48.3635V12.3043C24.6056 9.62906 25.6939 7.07572 27.5986 5.19672C29.5032 3.31771 32.0712 2.26409 34.7467 2.26409C37.4223 2.26409 39.9902 3.31771 41.8949 5.19672C43.7996 7.07572 44.8878 9.62906 44.9241 12.3043V13.7434C42.0287 13.8884 39.2999 15.1406 37.3017 17.241C35.3035 19.3414 34.1889 22.1292 34.1883 25.0282V38.3673C34.1886 38.5163 34.2188 38.6638 34.2772 38.801C34.3356 38.9381 34.421 39.0621 34.5282 39.1656C34.6355 39.269 34.7624 39.35 34.9016 39.4034C35.0407 39.4569 35.1891 39.4818 35.3381 39.4767C35.7161 39.4637 36.0935 39.4367 36.4695 39.3959V43.2148C36.4696 43.3661 36.5006 43.5158 36.5605 43.6547C36.6205 43.7936 36.7082 43.9189 36.8182 44.0227C36.9282 44.1266 37.0583 44.2067 37.2004 44.2586C37.3425 44.3105 37.4937 44.3327 37.6448 44.3241C39.0412 44.2429 40.4139 43.9272 41.7056 43.3904L44.7006 46.382C44.8039 46.4855 44.9267 46.5676 45.0617 46.6236C45.1968 46.6797 45.3417 46.7087 45.4879 46.7087C45.6342 46.7087 45.779 46.6797 45.9141 46.6236C46.0492 46.5676 46.1719 46.4855 46.2752 46.382L49.2667 43.3904C50.5583 43.9272 51.931 44.2429 53.3274 44.3241C53.4784 44.3327 53.6296 44.3105 53.7717 44.2586C53.9139 44.2067 54.0439 44.1266 54.1539 44.0227C54.2639 43.9189 54.3516 43.7936 54.4116 43.6547C54.4715 43.5158 54.5025 43.3661 54.5026 43.2148V39.3959C54.8786 39.4367 55.256 39.4637 55.634 39.4767C55.7836 39.4828 55.9328 39.4586 56.0728 39.4056C56.2128 39.3526 56.3406 39.2719 56.4487 39.1683C56.5567 39.0648 56.6427 38.9404 56.7016 38.8028C56.7604 38.6651 56.7909 38.5169 56.7911 38.3673V25.0282C56.7905 22.1286 55.6754 19.3403 53.6765 17.2398C51.6775 15.1393 48.9478 13.8876 46.0518 13.7434V12.3043C46.0518 10.7922 45.7484 9.29544 45.1596 7.90262C44.5708 6.5098 43.7085 5.24922 42.6238 4.1956C41.5392 3.14198 40.2541 2.31671 38.8448 1.76861C37.4354 1.22052 35.9305 0.960829 34.4189 1.00478ZM45.0814 14.8602C46.4415 14.8059 47.7986 15.025 49.0725 15.5045V24.0837C49.0719 27.7806 47.6376 31.3332 45.0714 33.9944C42.5051 36.6556 39.0069 38.2178 35.3124 38.3527V25.0282C35.3125 22.3998 36.3295 19.8735 38.1505 17.9781C39.9714 16.0828 42.4551 14.9655 45.0814 14.8602ZM50.2003 16.0098C51.8478 16.8707 53.2279 18.1664 54.191 19.7562C55.1541 21.3461 55.6633 23.1694 55.6635 25.0282V38.3527C52.1476 38.2235 48.8032 36.801 46.2715 34.358C48.8008 31.5333 50.1997 27.8753 50.2003 24.0837V16.0098ZM12.3728 34.4385C12.4705 34.4436 12.5681 34.45 12.6656 34.458C13.6218 35.3608 14.2744 36.5381 14.5335 37.8273C14.7925 39.1166 14.6452 40.4544 14.112 41.6565C13.9734 41.9689 13.7854 42.2571 13.5553 42.5098C11.2869 44.9986 9.89319 48.16 9.58619 51.5135C9.55659 51.8345 9.44125 52.1417 9.25224 52.4028C9.06322 52.6639 8.80748 52.8695 8.51179 52.9979C8.2161 53.1263 7.89133 53.1727 7.57147 53.1326C7.25162 53.0924 6.94844 52.9671 6.69368 52.7696C4.78313 51.2832 3.33633 49.2825 2.52318 47.0026C2.08419 45.5045 2.00892 43.9234 2.30363 42.3904C2.59834 40.8575 3.25451 39.4168 4.21766 38.1883C5.18081 36.9599 6.42314 35.979 7.84149 35.327C9.25984 34.675 10.8133 34.3708 12.3728 34.4397L12.3728 34.4385ZM45.4878 35.1707C46.0314 35.6947 46.6128 36.1782 47.2272 36.617C46.3685 38.4842 45.0187 40.0831 43.3219 41.2427C41.6251 42.4023 39.6451 43.079 37.5936 43.2007V39.2315C40.5664 38.6818 43.3119 37.2695 45.4878 35.1707ZM48.1792 37.2432C49.7772 38.2162 51.5391 38.8899 53.3785 39.2315V43.2007C50.723 43.0429 48.2074 41.9568 46.2715 40.1322C47.0386 39.2626 47.6807 38.2902 48.1792 37.2432ZM45.4878 40.9415C46.297 41.7046 47.2046 42.356 48.1865 42.8784L45.4878 45.5807L42.7894 42.8784C43.7712 42.356 44.6788 41.7046 45.4878 40.9415ZM35.6456 54.771C37.2051 54.7022 38.7585 55.0066 40.1768 55.6586C41.5952 56.3106 42.8375 57.2914 43.8007 58.5199C44.7638 59.7484 45.42 61.1888 45.7147 62.7218C46.0094 64.2547 45.9341 65.8361 45.4952 67.3341C44.682 69.6141 43.2352 71.6145 41.3246 73.1009C41.0699 73.2995 40.7664 73.4258 40.446 73.4665C40.1256 73.5072 39.8001 73.4609 39.5038 73.3324C39.2075 73.2039 38.9513 72.9979 38.762 72.7361C38.5728 72.4744 38.4575 72.1667 38.4284 71.845C38.1214 68.4915 36.7277 65.3299 34.4592 62.8411C34.2279 62.5887 34.0387 62.3007 33.8991 61.988C33.3658 60.786 33.2185 59.448 33.4775 58.1587C33.7365 56.8694 34.3891 55.6924 35.3452 54.7896C35.444 54.7815 35.5429 54.7749 35.6418 54.7698L35.6456 54.771Z" fill="black" stroke="black" stroke-width="1.2"/>
</svg>
