<svg width="25" height="25" viewBox="0 0 25 25" fill="none" xmlns="http://www.w3.org/2000/svg">
<circle cx="12.5" cy="12.5" r="12.5" fill="#F3E7FD"/>
<mask id="mask0" mask-type="alpha" maskUnits="userSpaceOnUse" x="0" y="0" width="25" height="25">
<circle cx="12.5" cy="12.5" r="12.5" fill="#F3E7FD"/>
</mask>
<g mask="url(#mask0)">
<path d="M15.4271 10.7974L16.2749 11.128L16.7358 11.536L27.6115 -2.6803L27.9929 -3.18123L27.9842 -7.42055L25.8649 -7.41546L15.4983 10.6764L15.4271 10.7974Z" fill="#9B8BED"/>
<path d="M23.9982 6.91465L23.995 6.91252L22.541 9.62316L18.1194 12.7618L18.5152 13.1102L18.3541 13.6773L18.3596 13.6801L18.6776 13.9919L18.6849 13.9838L32.6558 4.24123L33.4042 3.7215L34.444 -1.70296L32.6747 -2.09447L23.9982 6.91465Z" fill="#826DCC"/>
<path d="M17.3282 12.0625L25.2075 4.65486L25.7013 4.19263L27.5425 -2.40508L27.6112 -2.67996L16.7356 11.5363L17.3282 12.0625Z" fill="#9DE6A5"/>
<path d="M28.8274 10.5336L29.5604 10.1918L32.6567 4.24111L18.6857 13.9837L18.6784 13.9917L19.5671 14.8638L28.8274 10.5336Z" fill="#91D891"/>
<path d="M18.1196 12.7618L22.5413 9.62319L23.9953 6.91255L25.208 4.65503L17.3288 12.0626L18.1196 12.7618Z" fill="#9B8BED"/>
<path d="M20.3306 15.6148L25.7247 14.7896L28.8258 10.5335L19.5654 14.8636L20.3306 15.6148Z" fill="#826DCC"/>
<path d="M10.3164 9.37582L12.3398 9.99732L13.9351 9.07315L14.2687 8.88053L13.2136 7.94727L11.7055 7.7915L11.3562 8.18577L10.3063 9.37175L10.3164 9.37582Z" fill="#8F7DDB"/>
<path d="M16.7359 11.5364L16.275 11.1285L15.4272 10.7978L14.0699 10.2656L14.1407 10.8844L13.2075 11.9395L18.5152 13.1102L18.1195 12.7618L17.3286 12.0626L16.7359 11.5364Z" fill="#7267C1"/>
<path d="M17.7141 15.9289L18.3537 13.677L18.5148 13.1099L13.207 11.9392L17.7141 15.9289Z" fill="#91D891"/>
<path d="M10.3155 9.37617L10.3165 9.38148L13.2071 11.9393L14.1404 10.8842L14.0696 10.2654L13.9341 9.0735L12.3388 9.99767L10.3155 9.37617Z" fill="#91D891"/>
<path d="M20.0986 18.036L20.108 18.0248L20.5058 16.1241L20.5635 15.8436L20.3318 15.6148L19.5666 14.8637L18.678 13.9916L18.36 13.6799L18.3545 13.6771L17.7148 15.929L20.0986 18.036Z" fill="#3CBC73"/>
<path d="M20.0981 18.0359L22.8523 20.4742L22.8617 20.463L23.0631 18.8445L23.0981 18.5552L20.5053 16.124L20.1075 18.0247L20.0981 18.0359Z" fill="#91D891"/>
<path d="M11.3555 8.18581L10.478 8.11578L9.07961 9.69752L9.25637 10.5593L10.3055 9.37179L11.3555 8.18581Z" fill="#826DCC"/>
<path d="M22.8519 20.4743L25.4654 22.7857L25.4748 22.7745L25.6072 21.5137L25.6323 21.2694L23.0628 18.8446L22.8613 20.4631L22.8519 20.4743Z" fill="#3CBC73"/>
<path d="M28.0358 23.8666L25.6072 21.5136L25.4748 22.7744L25.4654 22.7856L27.3612 24.4646L28.0495 24.0752L28.0447 24.011L28.0358 23.8666Z" fill="#91CE91"/>
<path d="M13.2079 11.9393L10.3173 9.38152L10.3163 9.37621L10.3061 9.37213L11.1729 11.3146L10.4526 13.0103L11.6517 12.9987L12.2747 12.9944L13.2079 11.9393Z" fill="#9DE6A5"/>
<path d="M24.231 23.0698L26.5356 24.9324L27.3625 24.4647L25.4666 22.7857L24.231 23.0698Z" fill="#ACE5C6"/>
<path d="M21.2705 20.8693L23.99 23.1247L24.2302 23.0695L25.4659 22.7854L22.8523 20.474L21.2705 20.8693Z" fill="#57CEA1"/>
<path d="M20.0989 18.0358L18.2598 18.6613L20.9889 20.9407L21.2712 20.8695L22.853 20.4741L20.0989 18.0358Z" fill="#ACE5C6"/>
<path d="M17.7144 15.929L15.5698 16.8315L15.9175 17.1088L16.8883 17.8793L17.7226 18.544L17.9871 18.7543L18.2591 18.6614L20.0982 18.036L17.7144 15.929Z" fill="#57CEA1"/>
<path d="M15.5697 16.8314L17.7143 15.9289L13.2073 11.9392L15.016 17.0659L15.5697 16.8314Z" fill="#ACE5C6"/>
<path d="M10.3056 9.37189L9.25647 10.5594L8.9057 10.9545L9.24584 12.4318L10.3009 13.3651L10.4521 13.0101L11.1724 11.3144L10.3056 9.37189Z" fill="#9B8BED"/>
<path d="M14.6215 16.7152L15.0166 17.066L13.2079 11.9392L12.2746 12.9943L11.6516 12.9986L12.3444 14.2823L12.7756 15.0827L13.2365 15.4907L13.8307 16.016L14.6215 16.7152Z" fill="#826DCC"/>
<path d="M13.7142 27.6142L17.562 24.0174L17.7223 18.5437L16.888 17.879L13.7142 27.6142Z" fill="#826DCC"/>
<path d="M15.9179 17.1086L15.9028 17.127L7.93618 32.1816L13.4639 28.3838L13.715 27.6143L16.8888 17.8791L15.9179 17.1086Z" fill="#91D891"/>
<path d="M15.9172 17.1086L15.5695 16.8312L15.0158 17.0658L14.6207 16.715L12.045 21.4861L9.53191 23.2599L9.53276 23.2614L1.64802 32.9712L2.2515 34.6811L7.50982 32.9867L7.9354 32.1815L15.902 17.127L15.9172 17.1086Z" fill="#826DCC"/>
<path d="M0.449877 28.0165L13.2358 15.4907L12.7749 15.0827L12.3437 14.2823L12.2323 14.367L-4.46238 26.86L-4.20817 28.9641L-0.000458325 28.4581L0.449877 28.0165Z" fill="#9B8BED"/>
<path d="M14.6208 16.7155L13.8299 16.0163L7.43762 24.7382L9.532 23.2603L12.0451 21.4866L14.6208 16.7155Z" fill="#9B8BED"/>
<path d="M13.2367 15.4907L0.450798 28.0164L0.716215 27.9154L7.03957 25.2842L7.43854 24.7379L13.8308 16.016L13.2367 15.4907Z" fill="#9DE6A5"/>
</g>
</svg>
