<svg width="105" height="98" viewBox="0 0 105 98" fill="none" xmlns="http://www.w3.org/2000/svg">
<g clip-path="url(#clip0_1_9)">
<path d="M87.8889 83.8444C89.2111 60.4333 79.1 45.2667 69.2222 38.9667C67.9778 38.1889 66.8111 37.5667 65.5667 37.0222C71.4778 29.7889 72.4111 17.8111 69.7667 10.2667C68.2889 6.06667 65.8 3.57778 62.6889 3.18889C58.1 2.64445 56.3889 5.21111 55.7667 6.68889C54.9889 8.47778 55.1444 10.5778 56 12.4444C62.2222 25.3556 58.4889 33.4444 57.4 35.3889C55.6889 35.5444 54.1333 35.9333 52.7333 36.7111C47.6778 39.4333 45.5778 43.0889 44.8778 47.0555C44.8778 47.1333 44.8 47.2889 44.8 47.3667C44.2556 50.6333 44.5667 53.9778 44.8778 57.2444C45.1111 59.8889 45.3444 62.4555 45.1111 64.8667C44.4889 72.0222 40.0556 79.1778 38.0333 81.2778C35.4667 77.3889 29.4 71.0111 18.6667 73.9667C8.01111 76.9222 6.45555 88.1222 6.22222 92.2444C2.64444 91.7778 0.622217 94.1111 0.0777723 95.5889C-0.155561 96.2111 0.15555 96.8333 0.699995 97.0667C0.85555 97.1444 1.01111 97.1444 1.16666 97.1444C1.63333 97.1444 2.02222 96.9111 2.25555 96.4444C2.41111 96.1333 3.57777 93.6444 6.99999 94.8111C7.38888 94.9667 7.77777 94.8889 8.08888 94.6555C8.39999 94.4222 8.55555 94.0333 8.55555 93.6444C8.55555 93.0222 8.01111 79.3333 19.3667 76.1444C32.2 72.5667 37.1778 84.3111 37.4111 84.7778C37.5667 85.0889 37.8 85.4 38.1889 85.4778C38.5 85.5555 38.8889 85.4778 39.2 85.3222C39.2778 85.3222 43.8667 81.9 48.8444 83.1444C52.3444 84 55.3 86.9555 57.7111 91.8555C58.0222 92.4 58.7222 92.7111 59.2667 92.4C59.8111 92.0889 60.1222 91.3889 59.8111 90.8444C59.3444 89.9111 58.8778 88.9778 58.3333 88.1222C61.0556 87.5 66.1889 87.2667 70.2333 92.7889C70.4667 93.1778 70.9333 93.3333 71.4 93.2555C71.7889 93.1778 75.1333 92.7889 76.3 96.3666C76.4556 96.8333 76.9222 97.1444 77.3889 97.1444C77.5444 97.1444 77.6222 97.1444 77.7778 97.0667C78.4 96.8333 78.7111 96.2111 78.4778 95.5889C77.1556 91.6222 73.8111 90.7667 71.7111 90.8444C70.3889 89.1333 68.9889 87.9667 67.5111 87.1111C67.9778 86.5667 68.4444 86.0222 68.8333 85.4778C69.0667 85.4778 69.3 85.5555 69.6111 85.5555C71.5556 85.5555 73.6556 84.7 73.9667 84.6222C74.2 84.5444 74.4333 84.3111 74.5889 84.0778C76.2222 80.7333 76.6111 74.3555 76.6889 70.5444C78.7111 73.8889 79.2556 78.4 78.9445 79.4889C77 80.5778 76.4556 82.9111 77.3889 85.8667C77.7778 87.0333 78.7889 87.8111 80.0333 87.8111C80.1111 87.8111 80.1889 87.8111 80.1889 87.8111C83.6889 87.5778 85.8667 86.4111 86.8 85.7889C87.5 85.3222 87.8889 84.6222 87.8889 83.8444ZM58.1778 11.4333C57.5556 10.1889 57.4778 8.71111 57.9444 7.54444C58.6444 5.83333 60.1222 5.21111 62.4556 5.44444C65.3333 5.75556 66.8889 9.02222 67.5889 10.9667C70.1556 18.2 68.9111 29.7889 63.2333 36.0889C62.1444 35.7778 61.0556 35.5444 59.9667 35.4667C61.6 31.9667 64.0111 23.5667 58.1778 11.4333ZM47.5222 62.7667C47.5222 60.9 47.3667 58.9555 47.2111 57.0889C46.9778 54.0555 46.6667 51.1 47.0556 48.3778C48.1444 48.0667 50.5556 47.6 52.5 48.6889C53.9778 49.5444 54.9111 51.1778 55.3 53.5111C55.6889 55.6111 55.3 57.4 54.2111 58.8778C52.4222 61.2111 49.3111 62.3 47.5222 62.7667ZM72.6444 82.6778C72.0222 82.9111 71.1667 83.1444 70.4667 83.2222C72.1 80.6555 73.2667 78.1666 74.0444 75.9889C73.8111 78.4778 73.3444 80.9667 72.6444 82.6778ZM85.6333 83.6889C85.6333 83.7666 85.5556 83.8444 85.5556 83.9222C84.7778 84.4667 83.0667 85.4 80.1111 85.5555C79.9556 85.5555 79.7222 85.4778 79.7222 85.2444C79.3333 83.9222 79.0222 82.2111 80.3445 81.5889C82.5222 80.5 80.8111 74.4333 80.6556 73.7333C79.7222 70.4667 78.2444 68.1333 76.4556 66.7333C76.3778 66.6555 76.3 66.5778 76.1444 66.5C75.9889 66.4222 75.9111 66.3444 75.7556 66.2667C75.6778 66.1889 75.5222 66.1111 75.4444 66.1111C74.3556 65.4889 73.1889 65.2555 71.9444 65.4111C71.3222 65.4889 70.8556 66.0333 70.9333 66.7333C71.0111 67.3555 71.5556 67.8222 72.2556 67.7444C72.8 67.6666 73.3444 67.7444 73.8889 67.9C73.5778 70.4667 72.0222 78.8667 65.4889 86.2555C62.0667 85.0889 58.8 85.7111 57.0889 86.1778C54.9111 83.3778 52.4222 81.6666 49.5444 80.9667C46.1222 80.1111 42.9333 80.9667 40.7556 81.9C43.4 78.5555 46.9778 71.7111 47.5222 65.1778C49.3889 64.7889 53.6667 63.5444 56.0778 60.2778C57.5556 58.2555 58.1 55.8444 57.6333 53.1222C57.0889 50.0111 55.7667 47.8333 53.6667 46.6667C51.5667 45.5 49.3111 45.5778 47.6778 45.8889C48.5333 43.1667 50.4 40.7556 53.9 38.8111C57.6333 36.8667 62.9222 37.6444 68.0556 40.9111C76.9222 46.5889 86.8778 61.2111 85.6333 83.6889Z" fill="black"/>
<path d="M57.5556 67.4333C55.0667 66.5778 52.1889 68.3667 51.1 71.4C50.0111 74.4333 51.1778 77.6222 53.6667 78.4777C54.0556 78.6333 54.5222 78.7111 54.9889 78.7111C55.8444 78.7111 56.7778 78.4 57.5556 77.9333C58.7222 77.1555 59.5778 75.9889 60.1222 74.5889C60.5889 73.1889 60.6667 71.6333 60.2 70.3889C59.8111 68.9111 58.8 67.9 57.5556 67.4333ZM57.9444 73.8111C57.6333 74.7444 57.0111 75.5222 56.3111 75.9889C55.6889 76.3778 55.0667 76.5333 54.4444 76.3C53.2 75.8333 52.6556 73.9667 53.2778 72.1778C53.8222 70.6222 55.0667 69.5333 56.1556 69.5333C56.3111 69.5333 56.5444 69.5333 56.7 69.6111C57.2444 69.8444 57.7111 70.3111 57.9444 71.0111C58.3333 71.8667 58.2556 72.8778 57.9444 73.8111Z" fill="black"/>
<path d="M72.4111 28C72.1778 28.6222 72.4889 29.2444 73.1111 29.4778C73.2667 29.5555 73.4222 29.5555 73.5 29.5555C73.9667 29.5555 74.4333 29.2444 74.5889 28.7778C79.4111 15.8667 73.1889 7.07777 72.8778 6.68888C72.4889 6.14444 71.7889 6.06666 71.2444 6.45555C70.7 6.84444 70.6222 7.54444 71.0111 8.08888C71.2444 8.39999 76.7667 16.3333 72.4111 28Z" fill="black"/>
<path d="M77.4667 35.3111C77.6222 35.3889 77.8556 35.4667 78.0111 35.4667C78.4 35.4667 78.7889 35.2333 79.0222 34.8444C82.9889 27.6111 82.6778 20.2222 82.0556 16.4889C81.9778 15.8667 81.3556 15.4 80.7333 15.4778C80.1111 15.5556 79.6444 16.1778 79.7222 16.8C80.2667 20.3 80.5778 27.0667 76.9222 33.6778C76.6889 34.3 76.9222 35 77.4667 35.3111Z" fill="black"/>
<path d="M53.9 26.9111C53.5111 27.4555 53.5889 28.1556 54.1333 28.5444C54.3667 28.7 54.6 28.7778 54.8333 28.7778C55.2222 28.7778 55.5333 28.6222 55.7667 28.3111C56.0778 27.9222 58.4111 24.3444 53.5111 15.4C51.3333 11.4333 50.7111 8.08889 51.5667 5.6C52.4222 3.18889 54.3667 2.33333 54.4444 2.33333C55.0667 2.1 55.3 1.4 55.0667 0.855554C54.8333 0.233332 54.1333 -1.37091e-06 53.5111 0.233332C53.3556 0.31111 50.4778 1.47778 49.3111 4.9C48.1444 8.08889 48.8444 12.0556 51.4111 16.7222C55.6111 24.1111 53.9 26.9111 53.9 26.9111Z" fill="black"/>
<path d="M46.7444 24.1889C46.5889 24.8111 46.9 25.4333 47.5222 25.6667C47.6 25.6667 47.7555 25.7444 47.8333 25.7444C48.3778 25.7444 48.8444 25.4333 48.9222 24.8889C50.6333 18.9778 45.1111 11.0444 44.8778 10.6556C44.4889 10.1111 43.7889 10.0333 43.2444 10.3444C42.7 10.7333 42.6222 11.4333 42.9333 11.9778C44.4111 14 47.8333 20.1444 46.7444 24.1889Z" fill="black"/>
<path d="M54.8333 95.6666H41.9222C38.5 93.8 34.3 94.8889 32.5889 95.4333C30.2555 93.0222 27.9222 92.0111 25.5111 92.1667C21.7778 92.5555 19.6778 95.9778 19.6 96.1333C19.2889 96.6778 19.4444 97.3778 19.9889 97.7666C20.5333 98.0777 21.2333 97.9222 21.6222 97.3778C21.6222 97.3778 23.2555 94.7333 25.8222 94.5C27.6111 94.3444 29.4778 95.3555 31.4222 97.5333C31.7333 97.9222 32.2778 98 32.7444 97.8444C32.8222 97.8444 37.7222 95.7444 40.9889 97.7666C41.1444 97.8444 41.3778 97.9222 41.6111 97.9222H54.8333C55.4555 97.9222 56 97.3778 56 96.7555C56 96.1333 55.4555 95.6666 54.8333 95.6666Z" fill="black"/>
<path d="M105 81.1222C104.689 78.8667 102.9 74.6667 98.3889 74.6667C94.0333 74.6667 91.7778 78.0111 91.7778 81.2778C91.7778 81.9 92.3222 82.4444 92.9444 82.4444H103.833C104.144 82.4444 104.456 82.2889 104.689 82.0555C104.922 81.8222 105 81.4333 105 81.1222ZM94.2666 80.1111C94.6555 78.6333 95.7444 77 98.3889 77C100.722 77 101.811 78.7889 102.278 80.1111H94.2666Z" fill="black"/>
<path d="M87.5 91.7778C83.3778 91.7778 82.4444 94.8889 82.4444 96.0556C82.4444 96.6778 82.9889 97.2222 83.6111 97.2222H93.7222C94.1889 97.2222 94.5778 96.9889 94.7333 96.6C94.8889 96.2111 94.8889 95.7444 94.6555 95.3555C94.5778 95.2 91.9333 91.7778 87.5 91.7778ZM85.2444 94.8889C85.6333 94.5 86.2555 94.1111 87.5 94.1111C88.6667 94.1111 89.6778 94.4222 90.4555 94.8889H85.2444Z" fill="black"/>
</g>
<defs>
<clipPath id="clip0_1_9">
<rect width="105" height="98" fill="white"/>
</clipPath>
</defs>
</svg>
