<svg width="12" height="8" viewBox="0 0 12 8" fill="none" xmlns="http://www.w3.org/2000/svg">
<path d="M0.256379 7.9517C0.321712 7.9839 0.387045 8 0.452378 8C0.583045 8 0.713711 7.9517 0.795377 7.83902C2.46137 5.92329 5.79336 5.93939 6.61002 5.97159V7.43655C6.61002 7.64583 6.75702 7.85511 6.95302 7.93561C7.13269 8.0161 7.32868 7.9678 7.47568 7.82292L11.8367 4.20075C11.951 4.12025 12 3.99147 12 3.84658C12 3.70169 11.9347 3.589 11.8203 3.49241L7.45935 0.0956206C7.31235 -0.0170692 7.10002 -0.0331675 6.90402 0.0634237C6.72435 0.160015 6.61002 0.321 6.61002 0.514183V1.99525C1.67737 2.94506 0.354379 5.8267 0.0113803 7.46875C-0.0376195 7.66193 0.0767134 7.85511 0.256379 7.9517ZM6.83869 2.60699C7.03469 2.5748 7.26335 2.36551 7.26335 2.12404V0.771759L11.2323 3.87878L7.26335 7.17898V5.8267C7.26335 5.58522 7.03469 5.35984 6.78969 5.34374C6.65902 5.32764 6.44669 5.32764 6.15269 5.32764C4.92769 5.32764 2.49404 5.52083 0.844377 6.9053C1.38337 5.39204 2.83704 3.33143 6.83869 2.60699Z" fill="#29342B"/>
</svg>
