<svg width="23" height="16" viewBox="0 0 23 16" fill="none" xmlns="http://www.w3.org/2000/svg">
<path d="M0.491394 15.9034C0.616615 15.9678 0.741837 16 0.867059 16C1.1175 16 1.36795 15.9034 1.52447 15.678C4.71763 11.8466 11.1039 11.8788 12.6692 11.9432V14.8731C12.6692 15.2917 12.951 15.7102 13.3266 15.8712C13.671 16.0322 14.0466 15.9356 14.3284 15.6458L22.6869 8.40149C22.9061 8.24051 23 7.98293 23 7.69316C23 7.40338 22.8748 7.178 22.6556 6.98482L14.2971 0.191241C14.0153 -0.0341383 13.6084 -0.066335 13.2327 0.126847C12.8883 0.32003 12.6692 0.642 12.6692 1.02836V3.99049C3.21497 5.89012 0.679226 11.6534 0.0218122 14.9375C-0.0721041 15.3239 0.147034 15.7102 0.491394 15.9034ZM13.1075 5.21398C13.4832 5.14959 13.9214 4.73103 13.9214 4.24807V1.54352L21.5286 7.75755L13.9214 14.3579V11.6534C13.9214 11.1704 13.4831 10.7197 13.0136 10.6875C12.7631 10.6553 12.3562 10.6553 11.7927 10.6553C9.44475 10.6553 4.78024 11.0417 1.61839 13.8106C2.65147 10.7841 5.43765 6.66285 13.1075 5.21398Z" fill="#29342B"/>
</svg>
