<svg width="12" height="10" viewBox="0 0 12 10" fill="none" xmlns="http://www.w3.org/2000/svg">
<path d="M11.2986 1.05596L11.2693 1L7.76221 3.21361C7.35354 2.47299 6.67498 1.9233 5.84475 1.66206C4.99386 1.39424 4.08595 1.46172 3.28773 1.85178C2.29358 2.33744 1.55519 3.16692 1.20884 4.18732C0.862482 5.20772 0.949498 6.29694 1.45403 7.25435C2.08272 8.44771 3.15659 9.33375 4.47752 9.74954C5.0094 9.91696 5.55558 10 6.09943 10C6.90619 10 7.70767 9.81702 8.44808 9.45539C11.6389 7.89636 12.9176 4.12837 11.2986 1.05596ZM8.39525 9.35515C5.89401 10.5772 2.82686 9.61174 1.55783 7.20348C1.06759 6.27271 0.982906 5.214 1.31963 4.22203C1.65619 3.23021 2.37391 2.42377 3.34057 1.95172C3.80082 1.72685 4.29914 1.61299 4.80072 1.61299C5.13853 1.61299 5.47804 1.66461 5.80855 1.76859C6.62945 2.02698 7.29683 2.57743 7.68778 3.31894L7.68855 3.32028C7.99948 3.91083 8.05324 4.58276 7.83959 5.21236C7.62578 5.8421 7.17019 6.35395 6.55657 6.65378C5.54937 7.14603 4.31343 6.75717 3.80206 5.78704C3.60534 5.41374 3.57147 4.98913 3.7065 4.59114C3.84153 4.19316 4.12961 3.86968 4.5173 3.68041C5.15142 3.37055 5.9299 3.61533 6.25186 4.22637C6.37524 4.46038 6.39653 4.7267 6.31184 4.97626C6.227 5.22582 6.0466 5.42871 5.80342 5.5475C5.40781 5.74096 4.92254 5.5879 4.72147 5.20697C4.70702 5.17944 4.67206 5.16882 4.64316 5.18229C4.61441 5.19635 4.60307 5.23001 4.61768 5.25769C4.84765 5.69398 5.40346 5.86859 5.85625 5.64745C6.12709 5.51504 6.32831 5.28896 6.42279 5.01112C6.51711 4.73313 6.49333 4.43629 6.35582 4.17565C6.00511 3.50955 5.15702 3.24263 4.46462 3.58032C4.04912 3.7832 3.74068 4.12987 3.59586 4.55628C3.45104 4.98269 3.48756 5.43798 3.69842 5.83791C4.23854 6.86325 5.54393 7.2741 6.6094 6.75403C7.25068 6.44073 7.72678 5.90569 7.95038 5.24737C8.16823 4.60506 8.12021 3.92055 7.81535 3.31415L11.2242 1.16278C12.7692 4.16982 11.5095 7.83368 8.39525 9.35515Z" fill="#29342B"/>
<path fill-rule="evenodd" clip-rule="evenodd" d="M10.7514 0.405137L7.31639 2.59327C7.29326 2.55096 7.2693 2.50925 7.24453 2.46814C7.22401 2.43409 7.20294 2.40046 7.18132 2.36725C6.74814 1.70185 6.09647 1.20777 5.31645 0.960066C5.31581 0.959863 5.31517 0.959661 5.31453 0.959458C5.31454 0.95946 5.31453 0.959457 5.31453 0.959458C4.95801 0.846426 4.5919 0.790333 4.2275 0.79032C3.68629 0.790301 3.14882 0.913973 2.652 1.1585C2.65201 1.15849 2.652 1.1585 2.652 1.1585C2.65115 1.15892 2.65028 1.15935 2.64942 1.15977C1.61316 1.67066 0.843326 2.54302 0.481781 3.61617M2.70453 1.26497C2.70368 1.26539 2.70282 1.26581 2.70197 1.26623C2.70197 1.26623 2.70198 1.26623 2.70197 1.26623C1.69503 1.7633 0.947389 2.61164 0.596643 3.65477C0.596412 3.65546 0.596181 3.65615 0.595951 3.65683C0.245829 4.6996 0.333963 5.81227 0.843893 6.79083C0.843895 6.79084 0.843891 6.79083 0.843893 6.79083C0.844292 6.7916 0.844697 6.79238 0.845096 6.79314C1.50658 8.06002 2.63648 8.9476 3.92702 9.35802C4.45862 9.52708 5.01747 9.61517 5.58208 9.61547C6.38949 9.61589 7.20865 9.43675 7.97667 9.05805C7.97748 9.05765 7.97829 9.05725 7.9791 9.05685C7.9791 9.05684 7.97909 9.05685 7.9791 9.05685C11.1444 7.49462 12.4715 3.79037 11.0427 0.673081C11.026 0.636719 11.009 0.600437 10.9915 0.564239C10.9707 0.520873 10.9493 0.477628 10.9273 0.434511L7.37182 2.69911C7.39328 2.74219 7.41352 2.78564 7.43254 2.82944C7.6953 3.43448 7.72454 4.10359 7.51266 4.73407C7.51246 4.73466 7.51226 4.73525 7.51206 4.73584C7.51206 4.73585 7.51206 4.73584 7.51206 4.73584C7.27859 5.42799 6.78228 5.99052 6.11399 6.32003C6.11319 6.32043 6.11238 6.32082 6.11157 6.32122C6.11157 6.32122 6.11157 6.32122 6.11157 6.32122C5.00147 6.86646 3.64261 6.43481 3.07895 5.35795C3.07895 5.35794 3.07895 5.35795 3.07895 5.35795C3.07856 5.3572 3.07816 5.35644 3.07777 5.3557C2.85784 4.93472 2.81976 4.45547 2.97081 4.00661C2.97101 4.00599 2.97122 4.00538 2.97143 4.00476C3.12274 3.55675 3.44416 3.19255 3.87694 2.97929C3.87773 2.9789 3.87852 2.97851 3.8793 2.97812C3.87932 2.97812 3.87929 2.97813 3.8793 2.97812C4.60018 2.62489 5.48199 2.9049 5.84818 3.60343C5.84818 3.60344 5.84817 3.60342 5.84818 3.60343C5.84861 3.60426 5.84906 3.60512 5.8495 3.60595C5.99293 3.8803 6.01772 4.19277 5.91935 4.48539C5.91913 4.48604 5.91891 4.4867 5.91869 4.48735C5.91868 4.48737 5.91869 4.48733 5.91869 4.48735C5.81986 4.77889 5.61028 5.01615 5.32844 5.15521C5.3276 5.15562 5.32676 5.15604 5.32592 5.15645C5.3259 5.15646 5.32593 5.15644 5.32592 5.15645C4.91712 5.35647 4.4285 5.24509 4.14956 4.91358C4.10715 4.86318 4.06959 4.80769 4.03789 4.74744C4.03785 4.74736 4.03793 4.74752 4.03789 4.74744C4.03749 4.74669 4.03697 4.74569 4.03658 4.74494C4.02135 4.7158 4.03318 4.68037 4.06316 4.66556C4.09244 4.6518 4.12767 4.66195 4.14349 4.68909C4.1435 4.68911 4.14348 4.68907 4.14349 4.68909C4.14395 4.68988 4.14442 4.69073 4.14484 4.69155C4.17415 4.74758 4.20924 4.79892 4.24905 4.84524C4.49418 5.13043 4.91836 5.22519 5.27334 5.05C5.27418 5.04959 5.27502 5.04917 5.27587 5.04875C5.27588 5.04875 5.27585 5.04876 5.27587 5.04875C5.52821 4.92353 5.71544 4.7105 5.80363 4.4487C5.80385 4.44805 5.80407 4.44739 5.80428 4.44674C5.80429 4.44672 5.80428 4.44677 5.80428 4.44674C5.89151 4.18554 5.86958 3.90696 5.7424 3.66189C5.74238 3.66186 5.74241 3.66192 5.7424 3.66189C5.74197 3.66107 5.7415 3.66016 5.74107 3.65934C5.40526 3.01614 4.59329 2.75848 3.93188 3.08465C3.93108 3.08504 3.93029 3.08543 3.92949 3.08583C3.92947 3.08584 3.92951 3.08582 3.92949 3.08583C3.52636 3.28522 3.22676 3.62522 3.0862 4.04331C3.08599 4.04394 3.08578 4.04457 3.08557 4.0452C2.94574 4.46278 2.98087 4.90808 3.1847 5.29989C3.1847 5.2999 3.18469 5.29988 3.1847 5.29989C3.18508 5.30063 3.18549 5.30141 3.18587 5.30215C3.71925 6.32334 5.00835 6.73266 6.05889 6.21451C6.0597 6.21411 6.06051 6.21371 6.06133 6.21331C6.06134 6.2133 6.06131 6.21331 6.06133 6.21331C6.70009 5.89752 7.17438 5.35925 7.3971 4.69722C7.3973 4.69664 7.39749 4.69605 7.39769 4.69547C7.3977 4.69545 7.39768 4.69549 7.39769 4.69547C7.60204 4.08631 7.57081 3.43955 7.31228 2.8564C7.29688 2.82167 7.28068 2.78718 7.26368 2.75293C7.25582 2.73709 7.24778 2.7213 7.23957 2.70556L7.23876 2.70414C7.22947 2.68637 7.22004 2.6687 7.21046 2.65114C7.19212 2.61753 7.17324 2.5843 7.15383 2.55147C6.73825 1.84864 6.07915 1.32699 5.28061 1.07281C5.28061 1.07281 5.28061 1.07282 5.28061 1.07281C5.27997 1.07261 5.27932 1.0724 5.27868 1.0722C4.93396 0.962744 4.57984 0.908408 4.2275 0.908408C3.70434 0.908408 3.18458 1.02826 2.70453 1.26497ZM10.8184 0.815915C12.1623 3.79497 10.8912 7.32761 7.8602 8.82204C5.37609 10.0469 2.3341 9.07611 1.0785 6.67138C0.600163 5.75484 0.517902 4.71468 0.846192 3.73863C1.17441 2.7625 1.8742 1.96759 2.82095 1.501C3.2648 1.28214 3.74476 1.17157 4.2275 1.17157C4.5527 1.17157 4.87994 1.22171 5.19898 1.32301C5.99045 1.57444 6.63052 2.1084 7.00539 2.82595C7.00623 2.82756 7.00708 2.82915 7.00795 2.83074C7.29765 3.38828 7.34707 4.01997 7.14756 4.61334C6.94738 5.20837 6.52099 5.69319 5.94241 5.97851C5.01663 6.43513 3.88463 6.07131 3.41927 5.18039C3.24714 4.85075 3.2178 4.478 3.33576 4.12713C3.45376 3.77614 3.70538 3.48964 4.04828 3.32069C4.58498 3.05602 5.23989 3.2682 5.50767 3.78109C5.60327 3.9641 5.61951 4.17025 5.55407 4.36486C5.48836 4.55982 5.34892 4.71931 5.15688 4.81399C4.8693 4.95592 4.52005 4.84076 4.37822 4.56976C4.37824 4.5698 4.3782 4.56971 4.37822 4.56976L4.27121 4.62552M4.27121 4.62552C4.44344 4.95169 4.86316 5.08937 5.20936 4.92048C5.20938 4.92048 5.20934 4.92049 5.20936 4.92048M7.70509 2.79888L10.8184 0.815915L7.70509 2.79888ZM3.91125 4.81294L3.91153 4.81347L3.91125 4.81294ZM11.094 0.498992C12.6444 3.6995 11.2994 7.5523 8.03177 9.16357C8.03096 9.16397 8.03015 9.16437 8.02933 9.16477C7.25775 9.54463 6.42266 9.73684 5.58208 9.73684C5.01483 9.73684 4.44516 9.64944 3.89039 9.4732C2.51348 9.03579 1.39394 8.10399 0.738037 6.84899C0.738033 6.84898 0.73804 6.849 0.738037 6.84899C0.737639 6.84823 0.737231 6.84745 0.736834 6.84669C0.210592 5.83889 0.119833 4.69234 0.481087 3.61823M2.53296 0.923757C3.42672 0.482998 4.44402 0.406814 5.39618 0.709268C6.23401 0.975328 6.9365 1.50759 7.40336 2.22582L10.8328 0.0412356C10.8951 0.00156421 10.9712 -0.010138 11.0425 0.0089838C11.1138 0.0281056 11.1739 0.0762932 11.2079 0.141791L11.2383 0.200306C12.9973 3.56912 11.605 7.69505 8.14824 9.39957C7.33978 9.79808 6.46394 10 5.58208 10C4.9877 10 4.39113 9.9084 3.81065 9.724C2.36814 9.26575 1.19204 8.28759 0.503437 6.96845L0.610489 6.91258M10.9743 0.263159L11.0049 0.322061C11.015 0.341301 11.0249 0.360567 11.0348 0.379858C11.0549 0.419465 11.0747 0.459178 11.094 0.498992M2.53296 0.923757C1.43461 1.46527 0.615618 2.3924 0.231537 3.53438C-0.152625 4.67659 -0.0558435 5.89738 0.503437 6.96845M10.9743 0.263159L10.7514 0.405137L10.9743 0.263159Z" fill="#29342B"/>
<path d="M6.7446 8.218C4.94326 8.77619 2.98421 7.81938 2.37758 6.08547C2.36979 6.06307 2.34452 6.05091 2.32104 6.05782C2.29764 6.06509 2.28517 6.08913 2.29306 6.11166C2.73224 7.36744 3.86285 8.2258 5.14022 8.42061C5.67223 8.50175 6.22976 8.46769 6.77316 8.29948C6.79657 8.29221 6.80904 8.26817 6.80114 8.24564C6.79336 8.22313 6.76798 8.21095 6.7446 8.218Z" fill="#29342B"/>
<path fill-rule="evenodd" clip-rule="evenodd" d="M6.67185 7.97602L6.67185 7.97603C6.8157 7.93269 6.98461 8.00334 7.03994 8.1626C7.04 8.16277 7.04007 8.16295 7.04013 8.16312L6.80127 8.24564L7.03976 8.16207C7.03982 8.16225 7.03988 8.16242 7.03994 8.1626C7.0968 8.3258 7.00226 8.49299 6.84821 8.54081L6.84802 8.54087C6.26692 8.72076 5.67075 8.75712 5.10225 8.67042C3.74054 8.46274 2.5274 7.54664 2.05471 6.19522M2.36788 6.30581C2.8513 7.45559 3.92993 8.236 5.14035 8.4206C5.60743 8.49184 6.09418 8.47428 6.57376 8.3551C6.63921 8.33884 6.70451 8.32068 6.76962 8.30061C6.76984 8.30054 6.77006 8.30047 6.77027 8.3004M6.74473 8.21799C6.74574 8.21769 6.74674 8.21742 6.74775 8.21719C6.74777 8.21718 6.7478 8.21718 6.74782 8.21717M2.61631 6.00221C3.17617 7.60209 4.99292 8.49628 6.66994 7.97661L6.67185 7.97602M2.61631 6.00221C2.56082 5.84307 2.39258 5.77337 2.24982 5.8154L2.24981 5.81537L2.24626 5.81647C2.09209 5.86433 1.99752 6.03175 2.05466 6.19508M2.61631 6.00221C2.61629 6.00215 2.61627 6.00208 2.61624 6.00201L2.53278 6.03121C2.53243 6.03022 2.53208 6.02922 2.53173 6.02823C2.53208 6.02923 2.53242 6.03022 2.53276 6.03122L2.37772 6.08546C2.37737 6.08445 2.37698 6.08347 2.37656 6.0825C2.37655 6.08248 2.37655 6.08247 2.37654 6.08245C2.36761 6.06199 2.34358 6.05122 2.32118 6.05782C2.29777 6.06508 2.2853 6.08912 2.2932 6.11165C2.29353 6.11261 2.29387 6.11357 2.2942 6.11452C2.29422 6.11457 2.29424 6.11462 2.29425 6.11466C2.31698 6.17945 2.34154 6.24318 2.36788 6.30581M2.44995 6.27332C2.4241 6.21178 2.4 6.14914 2.37772 6.08546L2.53284 6.03149C2.56473 6.12739 2.52407 6.22349 2.44995 6.27332ZM2.53284 6.03149C2.53281 6.0314 2.53278 6.03131 2.53276 6.03122L2.53278 6.03121M6.74473 8.21799C6.68036 8.23794 6.61579 8.25595 6.55108 8.27206L6.74473 8.21799Z" fill="#29342B"/>
</svg>
