<svg width="25" height="21" viewBox="0 0 25 21" fill="none" xmlns="http://www.w3.org/2000/svg">
<mask id="path-1-outside-1" maskUnits="userSpaceOnUse" x="0" y="0" width="25" height="21" fill="black">
<rect fill="white" width="25" height="21"/>
<path d="M22.533 1.11813L22.4716 1L15.1387 5.67317C14.2843 4.10965 12.8654 2.94918 11.1295 2.39769C9.35038 1.83229 7.45201 1.97475 5.78301 2.7982C3.70433 3.82348 2.16042 5.57462 1.43623 7.72879C0.712032 9.88297 0.893974 12.1824 1.94891 14.2036C3.26344 16.7229 5.5088 18.5935 8.27075 19.4713C9.38286 19.8247 10.5249 20 11.662 20C13.3489 20 15.0247 19.6137 16.5728 18.8503C23.2446 15.559 25.9181 7.60434 22.533 1.11813ZM16.4624 18.6386C11.2325 21.2186 4.81937 19.1803 2.16594 14.0962C1.1409 12.1313 0.963827 9.89623 1.66788 7.80207C2.3716 5.70823 3.8723 4.00574 5.89348 3.00919C6.85582 2.53445 7.89776 2.29408 8.94653 2.29408C9.65285 2.29408 10.3628 2.40306 11.0538 2.62258C12.7702 3.16807 14.1657 4.33012 14.9831 5.89553L14.9847 5.89838C15.6348 7.14508 15.7473 8.56361 15.3005 9.89276C14.8535 11.2222 13.9009 12.3028 12.6179 12.9358C10.5119 13.9749 7.92765 13.154 6.85842 11.106C6.4471 10.3179 6.37627 9.42149 6.65861 8.5813C6.94094 7.74111 7.5433 7.05822 8.35392 6.65865C9.67982 6.0045 11.3076 6.52125 11.9807 7.81123C12.2387 8.30524 12.2832 8.86747 12.1061 9.39433C11.9288 9.92118 11.5515 10.3495 11.0431 10.6003C10.2159 11.0087 9.20125 10.6856 8.78083 9.88139C8.75062 9.82327 8.67752 9.80084 8.61708 9.82927C8.55698 9.85896 8.53326 9.93003 8.5638 9.98846C9.04465 10.9095 10.2068 11.2781 11.1536 10.8113C11.7198 10.5317 12.1406 10.0545 12.3381 9.46792C12.5353 8.88105 12.4856 8.25438 12.1981 7.70415C11.4648 6.29794 9.69152 5.73444 8.24378 6.44734C7.37501 6.87565 6.73009 7.6075 6.42728 8.50771C6.12448 9.40791 6.20083 10.3691 6.64172 11.2134C7.77105 13.378 10.5005 14.2453 12.7283 13.1474C14.0692 12.486 15.0647 11.3565 15.5322 9.96667C15.9877 8.61068 15.8873 7.16561 15.2498 5.88543L22.3774 1.34366C25.6079 7.69184 22.9739 15.4266 16.4624 18.6386Z"/>
<path d="M13.6464 16.7976C9.88425 17.9634 5.79271 15.9651 4.52576 12.3437C4.50948 12.2969 4.4567 12.2715 4.40767 12.286C4.35878 12.3012 4.33275 12.3514 4.34923 12.3984C5.26647 15.0212 7.62777 16.8139 10.2956 17.2207C11.4067 17.3902 12.5712 17.3191 13.7061 16.9677C13.755 16.9526 13.781 16.9024 13.7645 16.8553C13.7483 16.8083 13.6952 16.7829 13.6464 16.7976Z"/>
</mask>
<path d="M22.533 1.11813L22.4716 1L15.1387 5.67317C14.2843 4.10965 12.8654 2.94918 11.1295 2.39769C9.35038 1.83229 7.45201 1.97475 5.78301 2.7982C3.70433 3.82348 2.16042 5.57462 1.43623 7.72879C0.712032 9.88297 0.893974 12.1824 1.94891 14.2036C3.26344 16.7229 5.5088 18.5935 8.27075 19.4713C9.38286 19.8247 10.5249 20 11.662 20C13.3489 20 15.0247 19.6137 16.5728 18.8503C23.2446 15.559 25.9181 7.60434 22.533 1.11813ZM16.4624 18.6386C11.2325 21.2186 4.81937 19.1803 2.16594 14.0962C1.1409 12.1313 0.963827 9.89623 1.66788 7.80207C2.3716 5.70823 3.8723 4.00574 5.89348 3.00919C6.85582 2.53445 7.89776 2.29408 8.94653 2.29408C9.65285 2.29408 10.3628 2.40306 11.0538 2.62258C12.7702 3.16807 14.1657 4.33012 14.9831 5.89553L14.9847 5.89838C15.6348 7.14508 15.7473 8.56361 15.3005 9.89276C14.8535 11.2222 13.9009 12.3028 12.6179 12.9358C10.5119 13.9749 7.92765 13.154 6.85842 11.106C6.4471 10.3179 6.37627 9.42149 6.65861 8.5813C6.94094 7.74111 7.5433 7.05822 8.35392 6.65865C9.67982 6.0045 11.3076 6.52125 11.9807 7.81123C12.2387 8.30524 12.2832 8.86747 12.1061 9.39433C11.9288 9.92118 11.5515 10.3495 11.0431 10.6003C10.2159 11.0087 9.20125 10.6856 8.78083 9.88139C8.75062 9.82327 8.67752 9.80084 8.61708 9.82927C8.55698 9.85896 8.53326 9.93003 8.5638 9.98846C9.04465 10.9095 10.2068 11.2781 11.1536 10.8113C11.7198 10.5317 12.1406 10.0545 12.3381 9.46792C12.5353 8.88105 12.4856 8.25438 12.1981 7.70415C11.4648 6.29794 9.69152 5.73444 8.24378 6.44734C7.37501 6.87565 6.73009 7.6075 6.42728 8.50771C6.12448 9.40791 6.20083 10.3691 6.64172 11.2134C7.77105 13.378 10.5005 14.2453 12.7283 13.1474C14.0692 12.486 15.0647 11.3565 15.5322 9.96667C15.9877 8.61068 15.8873 7.16561 15.2498 5.88543L22.3774 1.34366C25.6079 7.69184 22.9739 15.4266 16.4624 18.6386Z" fill="black"/>
<path d="M13.6464 16.7976C9.88425 17.9634 5.79271 15.9651 4.52576 12.3437C4.50948 12.2969 4.4567 12.2715 4.40767 12.286C4.35878 12.3012 4.33275 12.3514 4.34923 12.3984C5.26647 15.0212 7.62777 16.8139 10.2956 17.2207C11.4067 17.3902 12.5712 17.3191 13.7061 16.9677C13.755 16.9526 13.781 16.9024 13.7645 16.8553C13.7483 16.8083 13.6952 16.7829 13.6464 16.7976Z" fill="black"/>
<path d="M22.533 1.11813L22.0894 1.34873L22.0898 1.34947L22.533 1.11813ZM22.4716 1L22.9153 0.769399C22.8506 0.644954 22.7366 0.553398 22.6012 0.517067C22.4657 0.480736 22.3212 0.50297 22.2029 0.578346L22.4716 1ZM15.1387 5.67317L14.7 5.91295C14.7664 6.03443 14.8802 6.12295 15.0142 6.15742C15.1483 6.19189 15.2907 6.16922 15.4074 6.09482L15.1387 5.67317ZM11.1295 2.39769L10.9781 2.8742L10.9781 2.87422L11.1295 2.39769ZM5.78301 2.7982L6.00419 3.24662L6.00424 3.24659L5.78301 2.7982ZM1.43623 7.72879L0.962291 7.56946L0.962291 7.56946L1.43623 7.72879ZM1.94891 14.2036L2.3922 13.9723L2.39217 13.9723L1.94891 14.2036ZM8.27075 19.4713L8.42219 18.9947L8.42219 18.9947L8.27075 19.4713ZM16.5728 18.8503L16.794 19.2987L16.794 19.2987L16.5728 18.8503ZM16.4624 18.6386L16.2412 18.1902L16.2412 18.1902L16.4624 18.6386ZM2.16594 14.0962L1.72264 14.3275L1.72268 14.3276L2.16594 14.0962ZM1.66788 7.80207L2.14181 7.96141L2.14183 7.96136L1.66788 7.80207ZM5.89348 3.00919L6.11459 3.45765L6.11469 3.4576L5.89348 3.00919ZM11.0538 2.62258L11.2052 2.14606L11.2052 2.14605L11.0538 2.62258ZM14.9831 5.89553L14.5399 6.12697C14.5428 6.13254 14.5458 6.13804 14.5489 6.14349L14.9831 5.89553ZM14.9847 5.89838L15.4281 5.66719C15.4251 5.66154 15.4221 5.65595 15.4189 5.65042L14.9847 5.89838ZM15.3005 9.89276L15.7745 10.0521L15.7745 10.0521L15.3005 9.89276ZM12.6179 12.9358L12.3966 12.4874L12.3966 12.4874L12.6179 12.9358ZM6.85842 11.106L6.41516 11.3373L6.41519 11.3374L6.85842 11.106ZM6.65861 8.5813L7.13257 8.74057L7.13257 8.74057L6.65861 8.5813ZM8.35392 6.65865L8.57498 7.10713L8.57514 7.10705L8.35392 6.65865ZM11.9807 7.81123L11.5375 8.04256L11.5375 8.04267L11.9807 7.81123ZM12.1061 9.39433L12.58 9.55388L12.5801 9.55362L12.1061 9.39433ZM11.0431 10.6003L10.8219 10.1519L10.8217 10.152L11.0431 10.6003ZM8.78083 9.88139L8.3372 10.112L8.33773 10.113L8.78083 9.88139ZM8.61708 9.82927L8.40421 9.37675L8.39564 9.38098L8.61708 9.82927ZM8.5638 9.98846L9.00704 9.75707L9.00693 9.75686L8.5638 9.98846ZM11.1536 10.8113L11.3747 11.2597L11.3749 11.2596L11.1536 10.8113ZM12.3381 9.46792L12.812 9.6275L12.8121 9.62719L12.3381 9.46792ZM12.1981 7.70415L11.7547 7.93534L11.755 7.93573L12.1981 7.70415ZM8.24378 6.44734L8.0229 5.99878L8.02269 5.99888L8.24378 6.44734ZM6.42728 8.50771L5.95338 8.3483L5.95338 8.3483L6.42728 8.50771ZM6.64172 11.2134L7.08501 10.9821L7.08493 10.9819L6.64172 11.2134ZM12.7283 13.1474L12.9494 13.5959L12.9495 13.5958L12.7283 13.1474ZM15.5322 9.96667L16.0061 10.1261L16.0061 10.1259L15.5322 9.96667ZM15.2498 5.88543L14.9812 5.46376C14.7654 5.60121 14.6882 5.87932 14.8023 6.10829L15.2498 5.88543ZM22.3774 1.34366L22.823 1.11689C22.7591 0.991228 22.6451 0.898406 22.509 0.86129C22.373 0.824175 22.2276 0.846218 22.1087 0.921988L22.3774 1.34366ZM13.6464 16.7976L13.5022 16.3188L13.4984 16.32L13.6464 16.7976ZM4.52576 12.3437L4.05352 12.508L4.05381 12.5088L4.52576 12.3437ZM4.40767 12.286L4.26646 11.8063L4.25944 11.8085L4.40767 12.286ZM4.34923 12.3984L4.8212 12.2334L4.8211 12.2331L4.34923 12.3984ZM10.2956 17.2207L10.371 16.7265L10.371 16.7265L10.2956 17.2207ZM13.7061 16.9677L13.8539 17.4454L13.8543 17.4453L13.7061 16.9677ZM13.7645 16.8553L13.2919 17.0186L13.2926 17.0206L13.7645 16.8553ZM22.9767 0.887531L22.9153 0.769399L22.028 1.2306L22.0894 1.34873L22.9767 0.887531ZM22.2029 0.578346L14.87 5.25151L15.4074 6.09482L22.7404 1.42165L22.2029 0.578346ZM15.5775 5.43338C14.6599 3.75442 13.1368 2.51076 11.2809 1.92116L10.9781 2.87422C12.5941 3.3876 13.9086 4.46489 14.7 5.91295L15.5775 5.43338ZM11.2809 1.92117C9.37898 1.31674 7.34703 1.469 5.56178 2.3498L6.00424 3.24659C7.55699 2.4805 9.32178 2.34785 10.9781 2.8742L11.2809 1.92117ZM5.56184 2.34978C3.36646 3.43262 1.72984 5.28632 0.962291 7.56946L1.91016 7.88812C2.591 5.86292 4.0422 4.21435 6.00419 3.24662L5.56184 2.34978ZM0.962291 7.56946C0.194591 9.85305 0.387971 12.2936 1.50566 14.435L2.39217 13.9723C1.39998 12.0713 1.22947 9.91288 1.91016 7.88812L0.962291 7.56946ZM1.50563 14.4349C2.88262 17.0739 5.23437 19.0309 8.1193 19.9478L8.42219 18.9947C5.78323 18.156 3.64427 16.3719 2.3922 13.9723L1.50563 14.4349ZM8.1193 19.9478C9.28026 20.3167 10.4733 20.5 11.662 20.5V19.5C10.5764 19.5 9.48547 19.3327 8.42219 18.9947L8.1193 19.9478ZM11.662 20.5C13.4256 20.5 15.1771 20.096 16.794 19.2987L16.3517 18.4018C14.8723 19.1314 13.2722 19.5 11.662 19.5V20.5ZM16.794 19.2987C23.7101 15.8869 26.495 7.62892 22.9763 0.886796L22.0898 1.34947C25.3413 7.57977 22.779 15.2311 16.3516 18.4019L16.794 19.2987ZM16.2412 18.1902C11.2482 20.6533 5.13345 18.7015 2.6092 13.8649L1.72268 14.3276C4.5053 19.6592 11.2168 21.7839 16.6836 19.087L16.2412 18.1902ZM2.60925 13.865C1.64687 12.0201 1.48128 9.92612 2.14181 7.96141L1.19394 7.64274C0.446373 9.86635 0.63492 12.2424 1.72264 14.3275L2.60925 13.865ZM2.14183 7.96136C2.8022 5.9965 4.21017 4.39662 6.11459 3.45765L5.67237 2.56074C3.53442 3.61485 1.94101 5.41995 1.19393 7.64278L2.14183 7.96136ZM6.11469 3.4576C7.00828 3.01677 7.97454 2.79408 8.94653 2.79408V1.79408C7.82099 1.79408 6.70336 2.05213 5.67227 2.56079L6.11469 3.4576ZM8.94653 2.79408C9.60131 2.79408 10.2602 2.89509 10.9024 3.09911L11.2052 2.14605C10.4653 1.91102 9.7044 1.79408 8.94653 1.79408V2.79408ZM10.9024 3.09909C12.4959 3.60552 13.7849 4.6812 14.5399 6.12697L15.4263 5.66409C14.5464 3.97905 13.0446 2.73062 11.2052 2.14606L10.9024 3.09909ZM14.5489 6.14349L14.5505 6.14634L15.4189 5.65042L15.4173 5.64757L14.5489 6.14349ZM14.5414 6.12957C15.1289 7.25616 15.2298 8.53372 14.8266 9.73346L15.7745 10.0521C16.2647 8.5935 16.1408 7.03401 15.4281 5.66719L14.5414 6.12957ZM14.8266 9.73339C14.4229 10.9339 13.563 11.9119 12.3966 12.4874L12.8391 13.3842C14.2388 12.6936 15.284 11.5105 15.7745 10.0521L14.8266 9.73339ZM12.3966 12.4874C10.5276 13.4097 8.24169 12.6752 7.30165 10.8746L6.41519 11.3374C7.61362 13.6329 10.4962 14.5402 12.8391 13.3841L12.3966 12.4874ZM7.30168 10.8746C6.95313 10.2068 6.89368 9.45144 7.13257 8.74057L6.18465 8.42203C5.85886 9.39154 5.94107 10.429 6.41516 11.3373L7.30168 10.8746ZM7.13257 8.74057C7.37152 8.02946 7.88109 7.44916 8.57498 7.10713L8.13286 6.21018C7.20551 6.66728 6.51037 7.45276 6.18465 8.42203L7.13257 8.74057ZM8.57514 7.10705C9.66419 6.56976 10.9935 7.00018 11.5375 8.04256L12.424 7.57991C11.6216 6.04233 9.69545 5.43925 8.1327 6.21026L8.57514 7.10705ZM11.5375 8.04267C11.7327 8.41639 11.7658 8.83755 11.6322 9.23504L12.5801 9.55362C12.8006 8.8974 12.7447 8.19409 12.4239 7.57979L11.5375 8.04267ZM11.6323 9.23478C11.4982 9.63304 11.2135 9.95873 10.8219 10.1519L11.2643 11.0487C11.8896 10.7403 12.3593 10.2093 12.58 9.55388L11.6323 9.23478ZM10.8217 10.152C10.2319 10.4431 9.51533 10.2071 9.22393 9.64974L8.33773 10.113C8.88716 11.164 10.1999 11.5742 11.2644 11.0486L10.8217 10.152ZM9.22446 9.65075C9.0616 9.3375 8.68987 9.24247 8.40425 9.37683L8.82992 10.2817C8.66516 10.3592 8.43963 10.309 8.3372 10.112L9.22446 9.65075ZM8.39564 9.38098C8.09041 9.53176 7.95685 9.90661 8.12067 10.2201L9.00693 9.75686C9.10967 9.95345 9.02355 10.1862 8.83853 10.2776L8.39564 9.38098ZM8.12057 10.2199C8.7307 11.3885 10.1912 11.8433 11.3747 11.2597L10.9324 10.3628C10.2224 10.713 9.3586 10.4305 9.00704 9.75707L8.12057 10.2199ZM11.3749 11.2596C12.0577 10.9226 12.5711 10.3428 12.812 9.6275L11.8643 9.30834C11.7101 9.76611 11.382 10.1409 10.9322 10.3629L11.3749 11.2596ZM12.8121 9.62719C13.0528 8.91091 12.9916 8.14312 12.6412 7.47258L11.755 7.93573C11.9796 8.36564 12.0179 8.85119 11.8642 9.30865L12.8121 9.62719ZM12.6414 7.47297C11.7789 5.81885 9.70714 5.16942 8.0229 5.99878L8.46466 6.89591C9.67589 6.29947 11.1507 6.77703 11.7548 7.93534L12.6414 7.47297ZM8.02269 5.99888C7.03706 6.4848 6.29951 7.31928 5.95338 8.3483L6.90119 8.66711C7.16067 7.89572 7.71295 7.2665 8.46487 6.8958L8.02269 5.99888ZM5.95338 8.3483C5.607 9.37805 5.69486 10.4803 6.1985 11.4448L7.08493 10.9819C6.7068 10.2578 6.64196 9.43777 6.90119 8.66711L5.95338 8.3483ZM6.19842 11.4447C7.457 13.857 10.4849 14.8105 12.9494 13.5959L12.5073 12.6989C10.5162 13.6802 8.08511 12.899 7.08501 10.9821L6.19842 11.4447ZM12.9495 13.5958C14.4071 12.8768 15.4952 11.6447 16.0061 10.1261L15.0583 9.80725C14.6341 11.0682 13.7312 12.0952 12.5071 12.699L12.9495 13.5958ZM16.0061 10.1259C16.504 8.64395 16.394 7.06143 15.6974 5.66256L14.8023 6.10829C15.3806 7.26979 15.4714 8.5774 15.0582 9.80745L16.0061 10.1259ZM15.5185 6.30709L22.6461 1.76533L22.1087 0.921988L14.9812 5.46376L15.5185 6.30709ZM21.9318 1.57042C25.0324 7.6634 22.5099 15.098 16.2412 18.1902L16.6835 19.0871C23.4379 15.7553 26.1834 7.72027 22.823 1.11689L21.9318 1.57042ZM13.4984 16.32C9.98211 17.4096 6.17196 15.535 4.99771 12.1786L4.05381 12.5088C5.41346 16.3951 9.78639 18.5172 13.7944 17.2752L13.4984 16.32ZM4.99799 12.1794C4.88746 11.8618 4.55165 11.7224 4.26648 11.8063L4.54887 12.7656C4.36175 12.8207 4.13149 12.7321 4.05353 12.508L4.99799 12.1794ZM4.25944 11.8085C3.95174 11.904 3.76323 12.238 3.87736 12.5638L4.8211 12.2331C4.90226 12.4647 4.76582 12.6983 4.5559 12.7635L4.25944 11.8085ZM3.87727 12.5635C4.86074 15.3756 7.38541 17.2827 10.2202 17.715L10.371 16.7265C7.87014 16.345 5.6722 14.6667 4.8212 12.2334L3.87727 12.5635ZM10.2202 17.715C11.4035 17.8955 12.6444 17.8198 13.8539 17.4454L13.5582 16.4901C12.4979 16.8183 11.4099 16.8849 10.371 16.7265L10.2202 17.715ZM13.8543 17.4453C14.162 17.3498 14.3505 17.0157 14.2364 16.69L13.2926 17.0206C13.2115 16.7891 13.3479 16.5554 13.5578 16.4902L13.8543 17.4453ZM14.2371 16.692C14.1271 16.3737 13.7897 16.2322 13.5022 16.3188L13.7906 17.2763C13.6007 17.3335 13.3694 17.2428 13.2919 17.0186L14.2371 16.692Z" fill="black" mask="url(#path-1-outside-1)"/>
</svg>
