<svg width="25" height="25" viewBox="0 0 25 25" fill="none" xmlns="http://www.w3.org/2000/svg">
<circle cx="12.5" cy="12.5" r="12.5" fill="#EBF5E1"/>
<mask id="mask0" mask-type="alpha" maskUnits="userSpaceOnUse" x="0" y="0" width="25" height="25">
<circle cx="12.5" cy="12.5" r="12.5" fill="#EBF5E1"/>
</mask>
<g mask="url(#mask0)">
<path d="M23.3252 19.6553L35.7372 22.5285L25.2724 15.3047L23.3252 19.6553Z" fill="#59412C"/>
<path d="M27.4447 10.4489H24.6709C25.3354 12.1197 25.925 13.6094 25.9727 13.7374L27.4447 10.4489Z" fill="#855936"/>
<path d="M22.8718 6.83746C22.88 6.8429 22.8868 6.84835 22.895 6.85516C22.929 6.88103 22.9617 6.90827 22.9944 6.93686C23.0053 6.94639 23.0175 6.95729 23.0284 6.96818C23.0584 6.99542 23.0883 7.02265 23.1156 7.05125C23.1251 7.06078 23.1346 7.07167 23.1442 7.08256C23.1877 7.12886 23.2286 7.17652 23.2667 7.22691C23.2871 7.25414 23.3076 7.28001 23.3266 7.30725C23.3402 7.32767 23.3539 7.3481 23.3675 7.36852C23.3879 7.4012 23.4083 7.43389 23.4274 7.46793C23.4369 7.48563 23.4478 7.50333 23.4573 7.52103C23.4819 7.56869 23.5064 7.61635 23.5268 7.66674C23.5295 7.67218 23.5322 7.67627 23.5336 7.68172C23.5581 7.74163 23.5813 7.80155 23.6003 7.86418C23.6017 7.86827 23.603 7.87372 23.6044 7.8778C23.6221 7.93363 23.6357 7.99219 23.648 8.04938C23.6507 8.05891 23.6521 8.0698 23.6534 8.07933C23.6643 8.13653 23.6739 8.19508 23.6807 8.25499C23.6807 8.26044 23.682 8.26589 23.6834 8.2727C23.6902 8.33942 23.6943 8.40751 23.6943 8.47695C23.6943 9.60853 22.7779 10.525 21.6463 10.525C20.802 10.525 20.0776 10.0143 19.7644 9.28581L19.0713 10.8422C19.0713 10.8422 25.745 13.6405 25.9697 13.7454L25.9738 13.74V13.7386C25.9261 13.6092 25.3351 12.1195 24.672 10.4501C23.776 8.19236 22.7438 5.59558 22.7438 5.59558C22.6036 5.92784 22.4687 6.25056 22.3421 6.55286C22.3435 6.55286 22.3435 6.55286 22.3435 6.55422C22.5341 6.62095 22.7111 6.71763 22.8718 6.83746Z" fill="#E59855"/>
<path d="M25.2725 15.3047L25.9697 13.7442C25.745 13.6407 19.0713 10.8411 19.0713 10.8411L18.3687 12.4193V12.4206V25.971H20.497L23.3239 19.654L25.2725 15.3047Z" fill="#855936"/>
<path d="M18.3687 5.55355V8.47577H19.5983C19.5983 8.40496 19.6024 8.33551 19.6092 8.26607C19.6092 8.2647 19.6092 8.26334 19.6092 8.26198C19.616 8.19526 19.6269 8.12853 19.6391 8.06317C19.6418 8.05092 19.6459 8.04002 19.6487 8.02913C19.6609 7.97466 19.6732 7.92019 19.6909 7.86709C19.699 7.84121 19.7099 7.8167 19.7181 7.79083C19.7317 7.7527 19.744 7.71594 19.759 7.67917C19.7794 7.63015 19.8039 7.58385 19.827 7.53755C19.8338 7.5253 19.8379 7.51304 19.8447 7.50079C20.192 6.86215 20.8674 6.42912 21.6463 6.42912C21.7103 6.42912 21.7743 6.43321 21.8383 6.43866C21.8764 6.44274 21.9132 6.44819 21.9499 6.45363C21.9717 6.45772 21.9949 6.45908 22.0167 6.46317C22.0657 6.4727 22.1133 6.48359 22.161 6.49585C22.1678 6.49721 22.176 6.49993 22.1828 6.50129C22.2359 6.51627 22.2876 6.53261 22.3394 6.55032H22.3408C22.4674 6.24802 22.6036 5.92529 22.7438 5.59167C23.6235 3.50145 24.6638 1.0354 24.6992 1C24.6434 1.04357 18.3687 5.55355 18.3687 5.55355Z" fill="#855936"/>
<path d="M19.5983 8.47699H18.3687V12.4205V12.4219L19.0713 10.8436L19.7644 9.28721C19.6582 9.03665 19.5983 8.76431 19.5983 8.47699Z" fill="#4C3724"/>
<path d="M18.3686 12.4206L17.6646 10.8424C17.6306 10.8574 10.9909 13.6407 10.7676 13.7456L11.4661 15.3047L13.4134 19.6554L16.2416 25.9723H18.3713L18.3686 12.4206Z" fill="#966E41"/>
<path d="M17.1393 8.47699C17.1393 8.76431 17.0794 9.03801 16.9731 9.28584L17.6663 10.8423L18.3689 12.4219V12.4191V8.47699H17.1393Z" fill="#77553B"/>
<path d="M14.3966 6.55166C14.3993 6.5503 14.402 6.5503 14.4047 6.54894C14.4524 6.53123 14.5014 6.51626 14.5504 6.50264C14.5613 6.49992 14.5736 6.49719 14.5858 6.49311C14.6308 6.48221 14.6743 6.47132 14.7206 6.46315C14.7465 6.4577 14.7738 6.45498 14.7996 6.45089C14.8337 6.44545 14.8664 6.44 14.9004 6.43728C14.9644 6.43047 15.0284 6.42774 15.0924 6.42774C15.6943 6.42774 16.2335 6.68919 16.608 7.10315C16.9375 7.46673 17.139 7.94741 17.139 8.47575H18.3687V8.47439V5.55353C18.3687 5.55353 12.0381 1.00407 12.0381 1.00134C12.0667 1.02041 13.1125 3.49599 13.9935 5.59438C14.1338 5.92664 14.2686 6.24936 14.3966 6.55166Z" fill="#966E41"/>
<path d="M15.0906 10.5249C13.959 10.5249 13.0426 9.60851 13.0426 8.47693C13.0426 8.40748 13.0467 8.34076 13.0535 8.27267C13.0535 8.26723 13.0548 8.26178 13.0548 8.25633C13.0616 8.19642 13.0698 8.13786 13.0821 8.07931C13.0834 8.06978 13.0862 8.06025 13.0875 8.05071C13.0998 7.9908 13.1147 7.93225 13.1325 7.87505C13.1338 7.87233 13.1338 7.86825 13.1352 7.86552C13.1542 7.80288 13.1774 7.74161 13.2033 7.68033C13.2046 7.67761 13.206 7.67625 13.206 7.67352C13.2291 7.62042 13.2536 7.56867 13.2809 7.51829C13.289 7.50331 13.2972 7.48833 13.3067 7.47199C13.3272 7.43522 13.3503 7.39846 13.3735 7.36305C13.3844 7.34535 13.3966 7.32765 13.4089 7.30995C13.432 7.27727 13.4565 7.24458 13.481 7.21327C13.4987 7.19012 13.5165 7.16833 13.5355 7.14654C13.5641 7.1125 13.5941 7.07846 13.6254 7.04714C13.6485 7.02263 13.6744 6.99948 13.6989 6.97633C13.7153 6.96135 13.7316 6.94637 13.7479 6.93139C13.7765 6.90688 13.8051 6.88237 13.8351 6.85922C13.8473 6.84969 13.861 6.84016 13.8746 6.82926C14.0298 6.71488 14.2 6.62228 14.3839 6.5542C14.3879 6.55284 14.3907 6.55148 14.3934 6.55011C14.2668 6.24782 14.1306 5.92509 13.9903 5.59283C13.9903 5.59283 12.9582 8.18961 12.0621 10.4473H12.0635C11.399 12.1222 10.808 13.616 10.7617 13.7372V13.7358V13.7372L10.7658 13.7426C10.9905 13.6392 17.6642 10.8395 17.6642 10.8395L16.9711 9.28306C16.6579 10.0143 15.9348 10.5249 15.0906 10.5249Z" fill="#FAB16E"/>
<path d="M11.4661 15.3047L1 22.5285L13.412 19.6553L11.4661 15.3047Z" fill="#59412C"/>
<path d="M12.0654 10.4489H9.29297L10.7636 13.7388V13.7402C10.8099 13.6176 11.4009 12.1252 12.0654 10.4489Z" fill="#966E41"/>
<path d="M10.7675 13.7456C10.7662 13.7456 10.7634 13.747 10.7634 13.747C10.7634 13.747 10.7634 13.7429 10.7648 13.7402L9.29143 10.4489L1 22.5273L11.4647 15.3048L10.7675 13.7456Z" fill="#6E4F36"/>
<path d="M16.6079 7.10309C16.9374 7.46666 17.139 7.94735 17.139 8.47569C17.139 7.94735 16.9374 7.46666 16.6079 7.10309Z" fill="#FEFCE3"/>
<path d="M15.0909 6.42767C15.0256 6.42767 14.9616 6.43176 14.8989 6.43721C14.9616 6.43176 15.0256 6.42767 15.0909 6.42767Z" fill="#FEFCE3"/>
<path d="M16.4359 8.51243H16.4345C16.4154 9.23958 15.8217 9.82239 15.0905 9.82239C14.3593 9.82239 13.7655 9.23958 13.7465 8.51243H13.7451V8.51106C13.3271 8.50426 13.0425 8.492 13.0425 8.47702C13.0425 8.40758 13.0466 8.33949 13.0534 8.27277C13.0466 8.33949 13.0425 8.40758 13.0425 8.47702C13.0425 9.6086 13.9589 10.525 15.0905 10.525C15.9347 10.525 16.6592 10.0144 16.9724 9.28588C17.0786 9.03805 17.1385 8.76434 17.1385 8.47702C17.1385 8.492 16.8539 8.50426 16.4359 8.51106C16.4359 8.51106 16.4359 8.51106 16.4359 8.51243Z" fill="#FEFCE3"/>
<path d="M14.4029 6.54877C14.4001 6.55013 14.3974 6.55013 14.3947 6.55149C14.3947 6.55149 14.3947 6.55149 14.3933 6.55149C14.3892 6.55285 14.3865 6.55421 14.3838 6.55558C14.3906 6.55285 14.3974 6.55149 14.4029 6.54877Z" fill="#FEFCE3"/>
<path d="M13.8745 6.83076C13.8609 6.84029 13.8486 6.84983 13.835 6.86072C13.805 6.88387 13.7764 6.90702 13.7478 6.93289C13.7315 6.94787 13.7152 6.96285 13.6988 6.97783C13.6743 7.00097 13.6484 7.02412 13.6253 7.04863C13.594 7.08132 13.564 7.114 13.5354 7.14804C13.5164 7.16983 13.4987 7.19298 13.481 7.21476C13.4564 7.24608 13.4319 7.27876 13.4088 7.31144C13.3965 7.32915 13.3856 7.34685 13.3734 7.36455C13.3502 7.39995 13.3284 7.43672 13.3067 7.47349C13.2985 7.48847 13.2889 7.50344 13.2808 7.51979C13.2535 7.57017 13.229 7.62191 13.2059 7.67502C13.2045 7.67774 13.2032 7.6791 13.2032 7.68183C13.1773 7.74174 13.1555 7.80302 13.1351 7.86702C13.1337 7.86974 13.1337 7.87383 13.1324 7.87655C13.1147 7.93374 13.0997 7.9923 13.0874 8.05221C13.0861 8.06174 13.0833 8.07128 13.082 8.08081C13.0711 8.13936 13.0615 8.19791 13.0547 8.25783C13.0547 8.26328 13.0534 8.26872 13.0534 8.27417C13.0466 8.34089 13.0425 8.40898 13.0425 8.47843C13.0425 8.49341 13.3271 8.50566 13.7451 8.51247C13.7451 8.50975 13.7451 8.50838 13.7451 8.50566C13.7451 8.49613 13.7438 8.48796 13.7438 8.47843C13.7438 8.30685 13.7778 8.14209 13.8364 7.99094C14.0311 7.46259 14.5186 7.1317 15.0905 7.1317C15.6039 7.1317 16.0505 7.40813 16.2765 7.84523C16.3773 8.03451 16.4359 8.24966 16.4359 8.47843C16.4359 8.48387 16.4345 8.48932 16.4345 8.49613C16.4345 8.50158 16.4359 8.50702 16.4359 8.51247C16.8539 8.50566 17.1385 8.49341 17.1385 8.47843C17.1385 7.95008 16.9356 7.4694 16.6074 7.10583C16.233 6.69187 15.6937 6.43042 15.0918 6.43042C15.0265 6.43042 14.9625 6.43451 14.8985 6.43995C14.8644 6.44268 14.8318 6.44948 14.7977 6.45357C14.7718 6.45765 14.7446 6.46038 14.7187 6.46582C14.6738 6.47399 14.6289 6.48489 14.5839 6.49578C14.5717 6.49851 14.5608 6.50123 14.5485 6.50531C14.4995 6.51893 14.4505 6.53391 14.4028 6.55161C14.396 6.55434 14.3906 6.5557 14.3838 6.55842C14.2013 6.62378 14.0297 6.71638 13.8745 6.83076Z" fill="#E6E4C6"/>
<path d="M13.7441 8.47699C13.7441 8.48653 13.7455 8.4947 13.7455 8.50423C13.7469 8.31767 13.7795 8.14474 13.8367 7.9895C13.7782 8.14065 13.7441 8.30406 13.7441 8.47699Z" fill="#855936"/>
<path d="M16.4362 8.47719C16.4362 8.24842 16.379 8.03191 16.2769 7.84399C16.3749 8.03327 16.4321 8.25387 16.4348 8.49489C16.4362 8.48808 16.4362 8.48263 16.4362 8.47719Z" fill="#855936"/>
<path d="M15.0911 9.82253C15.8223 9.82253 16.416 9.23972 16.4351 8.51257H13.7471C13.7661 9.23972 14.3598 9.82253 15.0911 9.82253Z" fill="#855936"/>
<path d="M13.747 8.51269H16.435H16.4363V8.51132C16.4363 8.50588 16.435 8.50043 16.435 8.49498C16.4323 8.25396 16.3751 8.03337 16.277 7.84409C16.051 7.40698 15.6043 7.13192 15.091 7.13055C14.5191 7.13055 14.0316 7.46145 13.8368 7.98979C13.7796 8.14503 13.747 8.31796 13.7456 8.50452C13.7456 8.50724 13.7456 8.5086 13.7456 8.51132C13.7456 8.51132 13.7456 8.51132 13.747 8.51269Z" fill="#77553B"/>
<path d="M21.6463 6.42767C20.8687 6.42767 20.192 6.8607 19.8447 7.49934C20.192 6.86206 20.8687 6.42767 21.6463 6.42767Z" fill="#FEFCE3"/>
<path d="M22.3426 6.55262C22.3414 6.55262 22.3414 6.55262 22.3414 6.55151H22.3403C22.3403 6.55151 22.3414 6.55151 22.3426 6.55262Z" fill="#FEFCE3"/>
<path d="M22.9915 8.51106V8.51243H22.9902C22.9711 9.23958 22.3774 9.82239 21.6462 9.82239C20.9149 9.82239 20.3212 9.23958 20.3021 8.51243H20.3008V8.51106C19.8827 8.50426 19.5981 8.492 19.5981 8.47702C19.5981 8.76434 19.6581 9.03805 19.7643 9.28588C20.0775 10.0144 20.8019 10.525 21.6462 10.525C22.7777 10.525 23.6942 9.6086 23.6942 8.47702C23.6942 8.40758 23.6901 8.34085 23.6833 8.27277C23.6901 8.33949 23.6942 8.40758 23.6942 8.47702C23.6942 8.492 23.4096 8.50289 22.9915 8.51106Z" fill="#FEFCE3"/>
<path d="M20.3008 8.51111C20.3008 8.50566 20.3021 8.50021 20.3021 8.49477C20.3021 8.48932 20.3008 8.48387 20.3008 8.47706C20.3008 8.32455 20.328 8.17749 20.3743 8.03996C20.5554 7.48166 21.0552 7.13034 21.6462 7.13034C22.1418 7.13034 22.5735 7.3877 22.8077 7.79894C22.9248 7.99774 22.9929 8.22923 22.9929 8.47843C22.9929 8.48796 22.9915 8.49613 22.9915 8.50566C22.9915 8.50838 22.9915 8.50975 22.9915 8.51247C23.4096 8.50566 23.6942 8.49341 23.6942 8.47843C23.6942 8.40898 23.6901 8.34226 23.6833 8.27417C23.6833 8.26872 23.6819 8.26328 23.6805 8.25647C23.6737 8.19655 23.6656 8.138 23.6533 8.08081C23.6519 8.07128 23.6492 8.06038 23.6479 8.05085C23.6356 7.9923 23.6206 7.93511 23.6043 7.87928C23.6029 7.87519 23.6016 7.86974 23.6002 7.86566C23.5811 7.80302 23.5593 7.7431 23.5335 7.68319C23.5308 7.67774 23.528 7.67366 23.5267 7.66821C23.5049 7.61919 23.4817 7.57017 23.4572 7.52251C23.4477 7.50481 23.4382 7.4871 23.4273 7.4694C23.4082 7.43536 23.3878 7.40268 23.3674 7.37C23.3537 7.34957 23.3401 7.32915 23.3265 7.30872C23.3074 7.28149 23.287 7.25425 23.2666 7.22838C23.2285 7.178 23.1862 7.13034 23.144 7.08404C23.1345 7.07315 23.125 7.06225 23.1154 7.05272C23.0868 7.02412 23.0582 6.99689 23.0283 6.96966C23.0174 6.95876 23.0065 6.94923 22.9942 6.93834C22.9616 6.90974 22.9289 6.88387 22.8948 6.85663C22.8867 6.85119 22.8799 6.84438 22.8717 6.83893C22.7124 6.7191 22.534 6.62242 22.3433 6.55297C22.342 6.55297 22.3406 6.55161 22.3393 6.55161C22.2875 6.53255 22.2358 6.51621 22.1827 6.50259C22.1759 6.50123 22.1677 6.4985 22.1609 6.49714C22.1132 6.48489 22.0656 6.47399 22.0165 6.46446C21.9947 6.46038 21.9716 6.45765 21.9498 6.45493C21.913 6.44948 21.8763 6.44268 21.8382 6.43995C21.7755 6.43451 21.7115 6.43042 21.6462 6.43042C20.8686 6.43042 20.1918 6.86344 19.8446 7.50208C19.8378 7.51434 19.8337 7.52659 19.8269 7.53885C19.8024 7.58515 19.7793 7.63281 19.7588 7.68047C19.7438 7.71723 19.7316 7.75536 19.718 7.79213C19.7084 7.818 19.6976 7.84251 19.6907 7.86838C19.6744 7.92149 19.6608 7.97596 19.6485 8.03043C19.6458 8.04268 19.6417 8.05357 19.639 8.06447C19.6254 8.12983 19.6158 8.19655 19.609 8.26328C19.609 8.26464 19.609 8.266 19.609 8.26736C19.6022 8.33681 19.5981 8.40626 19.5981 8.47706C19.5981 8.47706 19.5981 8.47706 19.5981 8.47843C19.5981 8.49204 19.8827 8.50294 20.3008 8.51111Z" fill="#E6E4C6"/>
<path d="M20.3008 8.47713C20.3008 8.48257 20.3021 8.48802 20.3021 8.49483C20.3035 8.33143 20.3294 8.18028 20.3757 8.04138C20.3267 8.17619 20.3008 8.32326 20.3008 8.47713Z" fill="#855936"/>
<path d="M21.6463 9.82253C22.3775 9.82253 22.9712 9.23972 22.9903 8.51257H20.3022C20.3213 9.23972 20.915 9.82253 21.6463 9.82253Z" fill="#855936"/>
<path d="M22.9928 8.47734C22.9928 8.22951 22.9247 7.99802 22.8076 7.79785C22.922 8.00075 22.9901 8.23904 22.9914 8.50322C22.9914 8.49505 22.9928 8.48551 22.9928 8.47734Z" fill="#855936"/>
<path d="M20.302 8.51269H22.99H22.9914V8.51132C22.9914 8.5086 22.9914 8.50724 22.9914 8.50452C22.99 8.24035 22.9233 8.00068 22.8076 7.79915C22.5747 7.38928 22.1431 7.13192 21.646 7.13055C21.0551 7.13055 20.5553 7.48324 20.3742 8.04017C20.3293 8.17907 20.3034 8.33158 20.3007 8.49362C20.3007 8.49907 20.2993 8.50452 20.2993 8.50996V8.51132H20.302V8.51269Z" fill="#77553B"/>
</g>
</svg>
