<svg width="40" height="40" viewBox="0 0 40 40" fill="none" xmlns="http://www.w3.org/2000/svg">
<ellipse cx="20" cy="20" rx="20" ry="20" fill="white" fill-opacity="0.6"/>
<path d="M19.9453 14.3055H14.6587C13.5541 14.3055 12.6587 15.2009 12.6587 16.3055V25.8378C12.6587 26.9424 13.5541 27.8378 14.6587 27.8378H24.191C25.2956 27.8378 26.191 26.9424 26.191 25.8378V20.5512" stroke="black" stroke-width="1.5" stroke-linecap="round" stroke-linejoin="round"/>
<path fill-rule="evenodd" clip-rule="evenodd" d="M25.5993 16.4919L19.894 22.1972L18.2905 22.3715L18.4647 20.768L24.1701 15.0626L25.5993 16.4919ZM26.66 15.4312L27.1638 14.9274C27.5585 14.5327 27.5585 13.8928 27.1638 13.4981C26.7692 13.1034 26.1293 13.1034 25.7346 13.4981L25.2307 14.002L26.66 15.4312ZM24.6739 12.4375C25.6544 11.457 27.244 11.457 28.2245 12.4375C29.205 13.4179 29.205 15.0076 28.2245 15.988L20.8302 23.3824C20.669 23.5435 20.4577 23.6448 20.2311 23.6694L17.8343 23.9299C17.1991 23.9989 16.6631 23.4628 16.7321 22.8277L16.9925 20.4309C17.0172 20.2043 17.1184 19.993 17.2796 19.8318L24.6739 12.4375Z" fill="black"/>
</svg>
