<svg width="25" height="25" viewBox="0 0 25 25" fill="none" xmlns="http://www.w3.org/2000/svg">
<circle cx="12.5" cy="12.5" r="12.5" fill="#F5F0E7"/>
<mask id="mask0" mask-type="alpha" maskUnits="userSpaceOnUse" x="0" y="0" width="25" height="25">
<circle cx="12.5" cy="12.5" r="12.5" fill="#F5F0E7"/>
</mask>
<g mask="url(#mask0)">
<path d="M25.5745 16.4724L18.6065 17.4399L24.6743 0.0200195L19.873 13.7645L18.5841 17.4578L15.3379 26.7494H21.8483L25.5745 16.4724Z" fill="#E29E55"/>
<path d="M16.2131 12.8001L15.9529 12.842L15.9559 12.8554L16.3043 15.8475L11.3057 22.4491L11.6959 22.7182L13.0641 21.6745L18.5846 17.4579L19.8735 13.7646L16.3597 10.9131L16.2131 12.8001Z" fill="#BC7D42"/>
<path d="M13.064 21.6746L14.1271 26.7495H15.3383L18.5845 17.4579L13.064 21.6746Z" fill="#976533"/>
<path d="M16.2127 12.8L16.3592 10.913L16.5192 8.86145L6.46055 12.2976L5.61572 13.2441L7.33378 14.2384L10.1583 13.7809L15.9525 12.8418L16.2127 12.8Z" fill="#F0CE76"/>
<path d="M9.06861 5.42395L5 12.8868L5.63848 11.7893L9.06861 5.42395Z" fill="#F0CE76"/>
<path d="M15.9563 12.8553L15.9533 12.8419L10.1592 13.7809L10.1876 13.9543L11.1132 22.3159L11.306 22.4489L16.3047 15.8473L15.9563 12.8553Z" fill="#E29E55"/>
<path d="M13.1566 5.424L12.8994 6.13724L15.256 6.57685L14.29 3.88837L13.7682 4.15452L13.5783 4.25022L13.1566 5.424Z" fill="#D38F4C"/>
<path d="M13.578 4.25011L13.7679 4.15442L13.5885 3.6236L12.8408 4.07068L12.3594 5.4239H13.1564L13.578 4.25011Z" fill="#BC7D42"/>
<path d="M13.1564 5.42395H12.3594H9.06836L12.8992 6.13719L13.1564 5.42395Z" fill="#976533"/>
<path d="M16.5212 8.86156L15.2562 6.5768L12.8997 6.13719L9.06881 5.42395L5.63867 11.7893L6.46107 12.2977L16.5197 8.86156H16.5212Z" fill="#EBA95A"/>
<path d="M5.61605 13.2442L6.46087 12.2977L5.63848 11.7893L5 12.8868L5.61605 13.2442Z" fill="#976533"/>
<path d="M25.5749 16.4724L24.6747 0.0200195L18.6069 17.4399L25.5749 16.4724Z" fill="#EBA95A"/>
<path d="M25.575 16.4724L27.9001 16.1494L24.6748 0.0200195L25.575 16.4724Z" fill="#F0CE76"/>
<path d="M29.3026 15.9551L32.0001 15.5797L24.6748 0.0200195L29.3026 15.9551Z" fill="#F0CE76"/>
<path d="M27.9 16.1496L25.5748 16.4726L21.8486 26.7495H23.619L27.9 16.1496Z" fill="#E2BB70"/>
<path d="M27.9001 16.1494L29.3026 15.9551L24.6748 0.0200195L27.9001 16.1494Z" fill="#EBA95A"/>
<path d="M29.3026 15.955L27.9001 16.1494L23.6191 26.7493H25.1862L25.3761 26.7105L29.3026 15.955Z" fill="#E29E55"/>
</g>
</svg>
