<svg width="221" height="172" viewBox="0 0 221 172" fill="none" xmlns="http://www.w3.org/2000/svg">
<path fill-rule="evenodd" clip-rule="evenodd" d="M166.07 49.371L220.751 121.584L190.735 200.928L160.127 126.338L122.981 36.0008L140.514 15.792L141.108 16.0888L166.07 49.371Z" fill="#FFB8B0"/>
<path fill-rule="evenodd" clip-rule="evenodd" d="M199.651 5.39173L215.994 47.8868L174.689 16.3851L153.887 0.338867L199.651 5.39173Z" fill="#FFCFE1"/>
<path fill-rule="evenodd" clip-rule="evenodd" d="M52.8475 181.018L88.8059 127.231L105.448 102.565L153.59 123.367L160.126 126.338L190.735 200.928L81.3763 211.33L72.7596 211.924L29.3716 216.084L50.4708 184.882L52.8475 181.018Z" fill="#FFCFE1"/>
<path fill-rule="evenodd" clip-rule="evenodd" d="M174.689 16.3851L174.392 16.6819L166.069 49.3706L141.107 16.0884L140.514 15.7916L153.886 0.338867L174.689 16.3851Z" fill="#AD8FF7"/>
<path fill-rule="evenodd" clip-rule="evenodd" d="M122.981 36.0005L160.127 126.338L153.59 123.367L122.981 36.0005Z" fill="#FD3724"/>
<path fill-rule="evenodd" clip-rule="evenodd" d="M105.448 102.565L88.8059 127.231L73.9467 126.637L105.448 102.565Z" fill="#FFCFE1"/>
<path fill-rule="evenodd" clip-rule="evenodd" d="M88.806 127.23L52.8477 181.018L0.249481 123.367L73.9468 126.637L88.806 127.23Z" fill="#E2C7FD"/>
<path fill-rule="evenodd" clip-rule="evenodd" d="M44.8245 178.342L30.2647 160.216L0.249481 123.367L52.8477 181.018L50.4709 184.881L44.8245 178.342Z" fill="#612680"/>
<path fill-rule="evenodd" clip-rule="evenodd" d="M44.8246 178.342L12.1359 173.885L30.2648 160.216L44.8246 178.342Z" fill="#FFCFE1"/>
</svg>
