<svg width="106" height="222" viewBox="0 0 106 222" fill="none" xmlns="http://www.w3.org/2000/svg">
<path fill-rule="evenodd" clip-rule="evenodd" d="M54.9153 45.8075L106 113.272L77.9587 187.398L49.363 117.713L14.6604 33.3166L31.0401 14.4368L31.5946 14.714L54.9153 45.8075Z" fill="#FFB8B0"/>
<path fill-rule="evenodd" clip-rule="evenodd" d="M86.2883 4.72056L101.557 44.4209L62.9676 14.991L43.5333 0L86.2883 4.72056Z" fill="#FFCFE1"/>
<path fill-rule="evenodd" clip-rule="evenodd" d="M-50.8611 168.797L-17.2675 118.547L-1.7196 95.5032L43.2558 114.937L49.3627 117.712L77.9584 187.397L-24.2085 197.116L-32.2585 197.67L-72.7931 201.556L-53.0815 172.406L-50.8611 168.797Z" fill="#FFCFE1"/>
<path fill-rule="evenodd" clip-rule="evenodd" d="M-15.3246 206.554L-24.2087 197.116L77.9582 187.397L-1.1653 221.545L-15.3246 206.554Z" fill="#E2C7FD"/>
<path fill-rule="evenodd" clip-rule="evenodd" d="M62.9673 14.991L62.6901 15.2683L54.9149 45.8072L31.5942 14.7138L31.0397 14.4365L43.533 0L62.9673 14.991Z" fill="#AD8FF7"/>
<path fill-rule="evenodd" clip-rule="evenodd" d="M14.6604 33.3164L49.363 117.713L43.2561 114.938L14.6604 33.3164Z" fill="#FD3724"/>
</svg>
