<svg width="25" height="25" viewBox="0 0 25 25" fill="none" xmlns="http://www.w3.org/2000/svg">
<circle cx="12.5" cy="12.5" r="12.5" fill="#F7CEC8"/>
<mask id="mask0" mask-type="alpha" maskUnits="userSpaceOnUse" x="0" y="0" width="25" height="25">
<circle cx="12.5" cy="12.5" r="12.5" fill="#F7CEC8"/>
</mask>
<g mask="url(#mask0)">
<path d="M20.5991 22.4165H24.5105L31.567 12.0013V8.20569L28.8712 11.7008L20.5991 22.4165Z" fill="#FF8D8D"/>
<path d="M22.4451 13.2085V9.3371L20.1587 11.0544L22.4451 13.2085Z" fill="#4F4842"/>
<path d="M23.9474 8.20552H28.8718H31.5676L25.8383 3L20.1587 8.20552H23.9474Z" fill="#FFAFA9"/>
<path d="M27.231 24.7467L26.5198 23.3203V23.3189L24.5104 22.4175L21.4287 24.7495H21.4342H27.2338V24.7481L27.231 24.7467Z" fill="#FFAFA9"/>
<path d="M20.5991 22.4163L21.4288 24.7496L24.5105 22.4163H20.5991Z" fill="#EF7373"/>
<path d="M20.1587 11.0545L22.4451 9.3372L23.9474 8.20569H20.1587V11.0545Z" fill="#FFDA64"/>
<path d="M7.43164 12.0013L14.4881 22.4165H18.3995L10.1274 11.7008L7.43164 8.20569V12.0013Z" fill="#FF8D8D"/>
<path d="M16.5542 13.2085L18.8407 11.0544L16.5542 9.3371V13.2085Z" fill="#4F4842"/>
<path d="M10.1274 8.20552H15.0518H18.8405L13.1609 3L7.43164 8.20552H10.1274Z" fill="#FFAFA9"/>
<path d="M12.4786 23.3189V23.3203L11.7674 24.7467L11.7646 24.7481V24.7495H17.5642H17.5697L14.488 22.4175L12.4786 23.3189Z" fill="#FFAFA9"/>
<path d="M11.7677 24.7468L12.4789 23.3204V23.319L4.1655 18.509L-1.82422 24.7496H11.7622L11.765 24.7482L11.7677 24.7468Z" fill="#FF8D8D"/>
<path d="M10.1274 11.7008V8.20569H7.43164L10.1274 11.7008Z" fill="#E86D6D"/>
<path d="M14.4883 22.4163L17.57 24.7496L18.3997 22.4163H14.4883Z" fill="#EF7373"/>
<path d="M16.555 9.3372L18.8414 11.0545V8.20569H15.0527L16.555 9.3372Z" fill="#FFDA64"/>
</g>
</svg>
