<svg width="25" height="25" viewBox="0 0 25 25" fill="none" xmlns="http://www.w3.org/2000/svg">
<circle cx="12.5" cy="12.5" r="12.5" fill="#FAE7D9"/>
<mask id="mask0" mask-type="alpha" maskUnits="userSpaceOnUse" x="0" y="0" width="25" height="25">
<circle cx="12.5" cy="12.5" r="12.5" fill="#FAE7D9"/>
</mask>
<g mask="url(#mask0)">
<path d="M26.0115 10.8163L27.3945 15.5815L26.4093 16.1269L23.5928 17.6849L26.0115 10.8163Z" fill="#F9F8F0"/>
<path d="M26.5163 18.6078L26.7999 26L20.9556 19.1445L23.5927 17.6849L26.4093 16.1269L26.4295 16.1631L26.5163 18.6078Z" fill="#D3D2CD"/>
<path d="M17.0761 14.592L18.7151 16.516L20.8922 19.0693L20.7895 19.2356L20.9559 19.1445L26.8002 26H9.82275L16.6811 14.1291L17.0761 14.592Z" fill="#ECEBE4"/>
<path d="M24.0328 6.23492L26.5166 10.4229L26.0117 10.8163L22.6426 13.4492L24.0328 6.23492Z" fill="#F9F8F0"/>
<path d="M22.6424 13.4492L26.0116 10.8163L20.892 19.0693L18.7148 16.516L22.6424 13.4492Z" fill="#A4A5A3"/>
<path d="M26.0117 10.8163L23.5929 17.6849L20.9557 19.1445L20.8921 19.0693L26.0117 10.8163Z" fill="#A4A5A3"/>
<path d="M20.8228 1.93848L24.3612 5.93113L24.0328 6.23492L21.6676 8.42075L20.8228 1.93848Z" fill="#F9F8F0"/>
<path d="M24.0324 6.23492L22.6422 13.4492L18.7147 16.516L17.0757 14.592L17.2797 14.0611L18.22 11.6105L21.6672 8.42075L24.0324 6.23492Z" fill="#D3D2CD"/>
<path d="M20.8227 1.93848L21.6675 8.42075L18.2202 11.6105L20.8227 1.93848Z" fill="#A4A5A3"/>
<path d="M20.8923 19.0693L20.9559 19.1445L20.7896 19.2356L20.8923 19.0693Z" fill="#ECEBE4"/>
<path d="M20.8226 1.93853L18.2201 11.6106C18.2201 11.6106 13.1194 7.23892 11.2793 5.69538L11.6655 4.44406L12.2471 4.04191L15.4716 1.81702L20.8226 1.93853Z" fill="#ECEBE4"/>
<path d="M20.8229 1.9385L15.4719 1.81698L12.5005 1.74754L11.498 0.797119L20.8229 1.9385Z" fill="#888A87"/>
<path d="M18.2201 11.6105L12.4496 12.8864L7.30976 14.0235L6.49242 14.2043L4.34131 14.6788L4.67548 14.2578L4.67692 14.2564L11.0377 6.2566L11.7537 8.156L12.8792 7.05657L11.2749 5.70833L11.2793 5.69531C13.1194 7.23885 18.2201 11.6105 18.2201 11.6105Z" fill="#F9F8F0"/>
<path d="M17.28 14.0612L17.0761 14.5921L16.6812 14.1291L17.28 14.0612Z" fill="#8B8D8B"/>
<path d="M15.4718 1.817L12.2473 4.04189L12.039 3.77716V3.77571L11.9204 3.62381L12.5005 1.74756L15.4718 1.817Z" fill="#B9B9B6"/>
<path d="M12.8791 7.05663L11.7537 8.15606L11.0376 6.25666L11.149 6.11634L11.2748 5.70984L12.8791 7.05663Z" fill="#888A87"/>
<path d="M12.5005 1.74757L11.9204 3.62382L10.4102 1.69983L12.5005 1.74757Z" fill="#B9B9B6"/>
<path d="M12.4499 12.8864L8.26046 17.2668L7.30859 14.0235L12.4499 12.8864Z" fill="#888A87"/>
<path d="M12.0388 3.77716L12.2471 4.04189L11.6655 4.44405L11.7408 4.19957L12.0388 3.77716Z" fill="#A4A5A2"/>
<path d="M12.0387 3.7757V3.77714L11.7407 4.19955L11.829 3.91602L12.0387 3.7757Z" fill="#A4A5A2"/>
<path d="M12.0389 3.77573L11.8291 3.91606L11.9202 3.62384L12.0389 3.77573Z" fill="white"/>
<path d="M11.8292 3.91602L11.7409 4.19955L11.4791 4.57278L10.6256 5.163L10.7789 5.56949L10.5981 5.82699L10.209 5.00098L11.8292 3.91602Z" fill="#A4A5A2"/>
<path d="M11.7408 4.19952L11.6656 4.444L11.479 4.57275L11.7408 4.19952Z" fill="#A4A5A2"/>
<path d="M11.6658 4.44403L11.2795 5.69535C11.1349 5.57239 11.009 5.46823 10.9092 5.38578L11.4791 4.57278L11.6658 4.44403Z" fill="#ECEBE4"/>
<path d="M11.479 4.57275L10.909 5.38575C10.7354 5.24254 10.6342 5.16153 10.627 5.16153L11.479 4.57275Z" fill="#ECEBE4"/>
<path d="M10.9018 5.39447L11.275 5.70983L11.1491 6.11633L11.0378 6.25665L10.7788 5.56951L10.9018 5.39447Z" fill="#888A87"/>
<path d="M10.7791 5.56952L11.038 6.25666L4.67725 14.2564L10.2959 6.25811L10.6257 5.88343L10.5982 5.82702L10.7791 5.56952Z" fill="#999A97"/>
<path d="M10.9076 5.3858L10.9003 5.39448L10.624 5.16302C10.6327 5.16302 10.734 5.24259 10.9076 5.3858Z" fill="white"/>
<path d="M10.9018 5.39448L10.7788 5.56952L10.6255 5.16302L10.9018 5.39448Z" fill="#888A87"/>
<path d="M10.5982 5.82703L10.6257 5.88344L10.2959 6.25812L10.5982 5.82703Z" fill="#A4A5A2"/>
<path d="M4 13.3943L10.2957 6.25812L4.67701 14.2564L4.67557 14.2579L4 13.3943Z" fill="#999A97"/>
<path d="M7.30818 14.0235L8.26005 17.2668L5.72559 16.7822L6.49229 14.2029L7.30818 14.0235Z" fill="#A4A5A3"/>
<path d="M6.49242 14.2029L5.72572 16.7822L4.34131 14.6788L6.49242 14.2029Z" fill="#D3D2CD"/>
<path d="M13.363 18.5668L19.866 25.9985H9.06787L13.363 18.5668Z" fill="#A4A5A3"/>
</g>
</svg>
