<svg width="26" height="19" viewBox="0 0 26 19" fill="none" xmlns="http://www.w3.org/2000/svg">
<path d="M1.5584 4.5926C1.72168 4.37337 5.63304 -0.730045 12.5085 3.58875C14.4418 4.80281 16.2461 5.25 17.8563 5.25C22.3217 5.24971 25.288 1.81046 25.3278 1.763C25.4626 1.60287 25.4748 1.32716 25.3553 1.14694C25.2358 0.966435 25.0296 0.950132 24.8944 1.10968C24.8432 1.17023 19.6816 7.12961 12.7861 2.7983C5.47694 -1.79213 1.13692 3.92036 1.09403 3.97859C0.967541 4.15007 0.968846 4.42578 1.09686 4.59522C1.22509 4.76496 1.43191 4.76292 1.5584 4.5926Z" fill="black" stroke="black" stroke-width="0.8"/>
<path d="M24.8946 7.48468C24.8434 7.54523 19.6818 13.5046 12.7863 9.1733C5.47694 4.58258 1.13714 10.2956 1.09403 10.3536C0.967541 10.5251 0.968846 10.8008 1.09686 10.9702C1.22509 11.14 1.43191 11.1382 1.5584 10.9676C1.72168 10.7481 5.63304 5.64437 12.5085 9.96375C14.4418 11.1778 16.2461 11.625 17.8563 11.625C22.3217 11.6247 25.288 8.18546 25.3278 8.138C25.4626 7.97787 25.4748 7.70216 25.3553 7.52194C25.236 7.34144 25.0298 7.32513 24.8946 7.48468Z" fill="black" stroke="black" stroke-width="0.8"/>
<path d="M24.8944 13.8598C24.8432 13.9203 19.6816 19.8798 12.7861 15.5484C5.47694 10.9578 1.13692 16.6707 1.09403 16.7286C0.96754 16.9001 0.968847 17.1758 1.09686 17.3452C1.22509 17.515 1.43191 17.5132 1.5584 17.3426C1.72168 17.1234 5.63304 12.0195 12.5085 16.3388C14.4418 17.5528 16.2461 18 17.8563 18C22.3217 17.9997 25.288 14.5605 25.3279 14.5131C25.4626 14.353 25.4748 14.0773 25.3553 13.8971C25.2358 13.7166 25.0296 13.7 24.8944 13.8598Z" fill="black" stroke="black" stroke-width="0.8"/>
</svg>
