<svg width="40" height="40" viewBox="0 0 40 40" fill="none" xmlns="http://www.w3.org/2000/svg">
<circle cx="20" cy="20" r="20" fill="white" fill-opacity="0.6"/>
<path d="M24.1783 22.2857C23.4989 22.2857 22.8408 22.1624 22.2038 21.9157C21.5669 21.6691 20.8025 21.3196 19.9108 20.8674C19.2527 20.518 18.7006 20.261 18.2548 20.0966C17.8089 19.9116 17.3949 19.8191 17.0127 19.8191C16.121 19.8191 15.3885 20.2199 14.8153 21.0216C14.518 21.371 14.2102 21.5457 13.8917 21.5457C13.7431 21.5457 13.5945 21.5046 13.4459 21.4224C13.1486 21.2374 13 20.9908 13 20.6824C13 20.5385 13.0531 20.3638 13.1592 20.1583C13.5839 19.4594 14.104 18.925 14.7197 18.555C15.3567 18.185 16.0679 18 16.8535 18C17.5329 18 18.1805 18.1233 18.7962 18.37C19.4119 18.5961 20.1868 18.9353 21.121 19.3875C21.7792 19.7369 22.3312 20.0041 22.7771 20.1891C23.2229 20.3535 23.6369 20.4358 24.0191 20.4358C24.9321 20.4358 25.6645 20.0452 26.2166 19.2641C26.5138 18.9147 26.811 18.74 27.1083 18.74C27.2781 18.74 27.4374 18.7811 27.586 18.8633C27.862 18.9866 28 19.223 28 19.5725C28 19.778 27.9469 19.963 27.8408 20.1274C26.9703 21.5663 25.7495 22.2857 24.1783 22.2857Z" fill="black"/>
</svg>
